<svg width="1444" height="1098" viewBox="0 0 1444 1098" fill="none" xmlns="http://www.w3.org/2000/svg">
<g clip-path="url(#clip0_164_176)">
<path d="M737.018 2.92794H837.52C837.52 2.92794 839.83 5.85594 840.408 7.31994C842.141 13.1759 843.874 19.0319 845.607 24.8879C850.805 43.1879 856.581 62.9519 860.624 81.9839C862.934 93.6959 865.245 105.408 867.555 116.388C869.288 124.44 870.443 131.76 872.176 139.812C876.797 163.968 884.883 183 897.59 199.836C901.056 204.228 904.522 208.62 907.987 213.744C913.763 221.064 919.539 228.384 924.738 235.704C940.333 259.86 948.997 289.14 951.885 326.472V334.524C953.618 353.556 955.351 373.32 958.239 392.352C964.592 435.54 969.213 480.192 971.523 529.236C972.101 542.412 973.834 559.248 978.455 575.352C984.808 595.848 995.783 609.024 1010.8 612.684C1014.84 613.416 1018.31 614.148 1022.35 614.148C1034.48 614.148 1046.03 609.024 1057.01 598.044C1072.6 583.404 1083.58 561.444 1091.66 532.164C1098.6 507.276 1099.17 480.924 1099.75 458.232C1099.75 440.664 1100.91 422.364 1103.22 404.064C1108.41 364.536 1122.85 331.596 1145.96 307.44C1154.62 297.924 1164.44 289.872 1173.68 281.82L1180.04 275.964C1219.31 241.56 1214.12 182.268 1210.07 158.844C1208.92 152.256 1206.03 147.132 1203.14 142.008C1195.05 128.832 1183.5 125.172 1173.11 123.708C1165.02 122.244 1156.36 122.244 1150.58 122.244C1147.11 122.244 1144.23 122.244 1140.76 122.244C1137.29 122.244 1134.41 122.244 1130.94 122.244H1125.74C1116.5 122.244 1108.99 120.78 1101.48 118.584C1070.87 108.336 1044.3 86.3759 1020.04 51.2399C1012.53 40.2599 1006.18 25.6199 1000.4 7.31994C999.248 4.39194 999.248 2.92794 1000.4 2.19594H1047.77C1047.77 2.19594 1050.65 5.85594 1051.81 8.78394C1059.32 27.0839 1067.4 40.9919 1076.65 51.2399C1095.13 71.0039 1117.08 80.5199 1144.8 80.5199C1149.42 80.5199 1154.62 80.5199 1159.82 79.7879C1174.26 78.3239 1189.28 76.8599 1204.3 74.6639C1214.12 73.1999 1223.93 71.7359 1233.75 68.8079C1242.42 65.8799 1247.62 59.2919 1251.08 48.3119C1253.97 38.7959 1255.7 27.8159 1257.44 13.9079V11.7119C1257.44 11.7119 1258.01 5.12394 1259.75 2.92794H1304.22C1304.22 2.92794 1307.11 6.58794 1308.26 8.78394C1315.2 21.2279 1322.7 29.2799 1331.37 34.4039C1339.45 38.7959 1348.12 41.7239 1356.2 44.6519C1356.2 44.6519 1361.4 46.8479 1364.29 47.5799C1374.69 51.2399 1385.66 54.8999 1396.06 60.7559C1411.08 69.5399 1420.32 79.0559 1426.09 92.9639C1436.49 116.388 1439.96 142.74 1437.07 169.824C1432.45 210.816 1417.43 240.096 1391.44 258.396C1369.49 273.768 1346.96 282.552 1329.06 289.14C1325.59 290.604 1322.13 291.336 1319.24 292.8C1307.69 296.46 1296.13 300.852 1285.16 307.44C1265.52 318.42 1253.39 338.184 1249.35 366C1247.04 379.176 1247.04 393.084 1247.04 406.26V413.58C1247.04 426.024 1248.77 439.2 1251.66 454.572C1260.32 494.832 1279.38 527.772 1310 554.124C1326.75 568.032 1344.08 579.012 1361.98 589.992C1366.02 592.92 1370.64 595.116 1374.69 598.044C1390.86 608.292 1407.61 620.004 1423.78 634.644C1431.29 641.232 1438.8 649.284 1443.42 660.264V797.148C1443.42 797.148 1441.69 795.684 1441.11 794.952C1441.11 794.952 1439.96 793.488 1439.38 793.488C1426.67 778.848 1416.28 767.136 1407.03 756.156C1389.13 734.196 1373.53 709.308 1355.05 680.028C1338.88 654.408 1325.59 635.376 1311.73 618.54C1308.26 614.88 1304.8 610.488 1301.91 606.828C1289.78 592.92 1277.65 577.548 1266.1 562.176C1254.55 546.072 1244.15 527.04 1235.49 504.348C1223.93 475.068 1218.74 442.86 1214.69 415.044V411.384C1212.38 396.744 1210.65 382.104 1206.03 368.196C1201.99 355.752 1194.48 348.432 1185.24 348.432C1183.5 348.432 1181.19 348.432 1179.46 349.164C1174.84 350.628 1170.22 352.824 1165.02 356.484C1149.42 367.464 1142.49 386.496 1137.87 404.064C1132.1 424.56 1130.94 445.788 1129.21 467.016V476.532C1125.74 516.06 1117.08 553.392 1102.06 586.332C1090.51 611.22 1076.07 630.984 1059.32 644.16C1044.3 655.872 1027.55 661.728 1008.49 661.728C1000.98 661.728 992.895 660.996 984.231 658.8C966.903 655.14 955.351 642.696 950.152 621.468C947.264 609.024 946.686 595.848 946.109 584.868C946.109 573.888 945.531 562.908 944.954 551.928C944.954 539.484 944.954 527.04 943.799 514.596C942.643 488.244 938.6 462.624 931.669 437.736C924.738 412.848 915.496 387.228 902.789 355.752C890.659 326.472 876.219 305.976 857.736 294.264C848.495 288.408 840.408 284.016 832.899 284.016C823.08 284.016 814.994 291.336 806.33 308.904C792.467 335.988 778.027 359.412 763.01 381.372C749.147 401.136 733.552 420.168 710.448 443.592C690.81 463.356 677.525 483.12 668.283 505.812C665.395 512.4 663.085 519.72 660.774 526.308C657.309 535.092 653.843 544.608 649.8 554.124C635.36 587.796 616.877 609.024 593.195 619.272C585.686 622.2 578.178 625.128 570.669 628.056C560.272 631.716 549.875 636.108 539.478 641.232C505.978 657.336 484.606 684.42 474.21 722.484C467.278 748.104 465.546 770.064 468.434 791.292C471.322 810.324 477.675 828.624 488.65 844.728C510.021 877.668 527.926 909.876 543.522 943.548C549.298 955.26 553.918 964.776 559.117 972.828C570.091 988.932 581.643 996.984 595.506 996.984H597.238C616.877 996.252 634.782 985.272 653.266 962.58C667.706 945.744 676.37 923.052 685.034 901.092V899.628C698.318 867.42 713.914 840.336 732.974 819.108C751.458 797.88 769.941 776.652 788.424 755.424C798.821 743.712 809.218 732 819.614 719.556C840.986 695.4 862.357 683.688 885.461 683.688C887.194 683.688 888.926 683.688 890.659 683.688C906.832 685.152 917.807 691.008 926.471 704.184C932.247 712.968 936.867 722.484 941.488 734.196C943.798 740.052 946.109 746.64 948.419 752.496C955.928 773.724 964.592 794.952 974.411 814.716C985.386 836.676 996.938 851.316 1010.22 861.564C1021.77 870.348 1033.33 874.74 1044.3 874.74C1051.81 874.74 1058.74 872.544 1066.25 868.884C1073.76 865.224 1080.11 860.832 1085.89 856.44C1089.93 853.512 1093.4 850.584 1097.44 847.656C1106.68 840.336 1116.5 832.284 1126.9 825.696C1141.92 816.18 1156.93 811.788 1172.53 811.788C1178.88 811.788 1185.81 812.52 1192.74 814.716C1222.2 822.036 1243 850.584 1248.19 890.844C1250.5 905.484 1250.5 922.32 1248.19 942.084C1245.31 975.756 1228.56 999.912 1204.3 1007.23C1190.43 1010.89 1176.57 1011.62 1162.71 1012.36C1156.36 1012.36 1150 1012.36 1144.23 1013.82C1140.76 1013.82 1137.29 1013.82 1133.83 1013.82C1128.63 1013.82 1122.85 1013.82 1117.08 1015.28C1091.66 1019.68 1072.6 1034.32 1059.32 1058.47C1054.7 1067.26 1050.65 1076.77 1046.61 1089.22C1045.46 1092.14 1044.3 1094.34 1042.57 1095.8H981.92C981.92 1095.8 980.765 1093.61 980.765 1092.88C980.765 1089.95 980.765 1087.02 980.187 1084.09C980.187 1081.16 980.187 1078.24 980.187 1074.58C980.187 1052.62 980.765 1026.26 984.808 1000.64C987.118 984.54 984.808 969.168 977.877 953.796C971.523 938.424 965.17 921.588 958.816 900.36C956.506 893.04 954.195 884.988 951.885 877.668C945.531 856.44 938.6 834.48 930.514 813.984C922.427 793.488 914.918 778.848 906.254 767.136C895.858 753.228 883.728 745.908 869.866 745.908C869.288 745.908 868.133 745.908 867.555 745.908C855.426 746.64 843.874 751.764 832.322 761.28C816.149 774.456 801.131 789.828 786.114 804.468L776.294 813.984C761.854 827.892 748.57 844.728 736.44 863.028C722.578 884.256 713.914 909.876 706.405 934.032C694.275 972.096 677.525 1006.5 653.843 1040.17C644.602 1053.35 634.782 1069.45 630.739 1091.41C630.739 1094.34 629.584 1095.8 627.851 1097.27H558.539C558.539 1097.27 556.229 1093.61 555.651 1092.14C550.453 1073.84 541.211 1058.47 527.349 1045.3L521.573 1039.44C509.443 1027.73 496.736 1015.28 485.762 1001.38C469.011 980.148 453.994 956.724 439.554 928.908C426.846 904.02 412.406 884.988 395.656 868.884C388.147 861.564 380.638 852.78 371.974 841.068C358.112 822.768 344.827 802.272 332.12 782.508C328.077 775.92 324.034 770.064 319.99 763.476C308.438 745.176 299.774 729.072 293.421 712.236C277.826 671.244 274.36 627.324 273.205 589.26C272.05 563.64 274.36 536.556 280.714 503.616C284.757 483.12 288.222 460.428 287.645 437.004C287.067 401.868 279.558 369.66 266.274 341.112C252.989 313.296 232.773 299.388 206.781 299.388C205.626 299.388 204.47 299.388 202.738 299.388C185.987 300.12 168.659 306.708 151.909 317.688C138.046 326.472 125.917 338.184 111.477 352.092C82.5968 380.64 49.6736 398.94 11.552 407.724C11.552 407.724 10.3968 407.724 9.8192 407.724C8.664 407.724 7.5088 407.724 6.9312 407.724C6.3536 407.724 5.776 407.724 5.1984 407.724V331.596C5.1984 331.596 6.9312 330.132 7.5088 330.132H4.6208C8.0864 330.132 10.9744 330.132 13.2848 329.4C15.5952 329.4 17.9056 329.4 19.6384 328.668C32.3456 327.936 44.4752 325.74 55.4496 321.348C69.8896 316.224 83.752 307.44 97.0368 299.388C101.658 296.46 105.701 294.264 109.744 291.336C140.357 273.036 169.237 264.252 198.117 264.252C206.203 264.252 214.29 264.252 222.376 266.448C247.79 270.84 267.429 287.676 280.714 318.42C292.266 343.308 300.352 373.32 306.706 412.116C310.749 435.54 311.326 456.768 309.016 476.532C307.283 490.44 304.973 503.616 302.662 516.792C301.507 521.916 300.93 526.308 299.774 531.432C293.998 562.908 292.843 591.456 295.731 620.004C302.085 678.564 324.034 723.216 361.578 751.032C371.397 758.352 380.638 762.012 388.725 762.012C401.432 762.012 412.406 753.228 422.803 736.392C429.734 724.68 436.088 711.504 441.864 699.06C444.174 694.668 446.485 689.544 448.218 685.152C463.813 652.944 485.762 628.056 512.909 611.22C523.883 604.632 535.435 598.776 546.987 592.92C553.918 589.26 560.272 586.332 567.203 582.672C598.971 565.104 616.299 536.556 621.498 494.1C623.808 474.336 624.963 453.84 624.386 433.344C624.386 426.024 624.386 417.972 626.696 410.652C629.584 396.012 636.515 387.96 647.49 385.764C652.11 384.3 657.309 384.3 661.93 384.3H668.861C687.922 384.3 705.827 373.32 718.534 354.288C732.397 333.06 738.75 305.244 735.285 277.428C731.242 243.756 721.422 213.012 712.181 185.928C710.448 180.804 708.715 175.68 706.982 170.556C701.206 152.988 694.853 135.42 690.81 116.388C684.456 89.3039 686.189 68.0759 696.586 49.0439C702.362 38.0639 709.87 29.2799 716.802 21.2279C718.534 19.0319 720.845 16.8359 722.578 14.6399C726.621 9.51594 730.664 4.39194 735.862 2.19594M735.862 -0.732056C727.198 2.19594 722 12.4439 715.646 19.0319C708.138 27.0839 700.629 35.8679 694.853 46.8479C683.301 68.8079 683.301 92.2319 689.077 116.388C694.853 140.544 702.939 162.504 710.448 185.928C719.69 215.208 729.509 245.22 732.974 277.428C739.328 331.596 708.715 380.64 668.861 380.64H661.93C656.731 380.64 652.11 380.64 647.49 382.104C635.36 385.032 628.429 393.816 624.963 409.188C623.23 416.508 622.653 424.56 622.653 432.612C622.653 453.108 622.075 472.872 619.765 493.368C614.566 536.556 596.083 563.64 566.626 579.744C548.72 589.26 530.237 597.312 512.331 608.292C485.184 625.128 463.235 649.284 446.485 682.956C438.398 699.792 430.312 718.092 421.07 734.196C411.251 751.032 400.854 759.084 389.302 759.084C381.216 759.084 372.552 755.424 363.31 748.836C325.766 721.02 304.395 677.832 298.619 620.004C295.731 589.992 297.464 561.444 302.662 532.164C306.128 513.864 309.594 495.564 311.904 477.264C314.214 455.304 313.059 433.344 309.594 412.116C304.395 379.176 296.886 346.968 283.602 317.688C269.739 287.676 250.101 269.376 223.531 264.984C215.445 263.52 206.781 262.788 198.694 262.788C168.082 262.788 138.046 273.036 109.166 289.872C91.2608 300.12 73.9328 312.564 54.872 319.152C43.32 323.544 31.1904 325.74 19.6384 326.472C14.44 326.472 9.8192 327.936 4.6208 327.936C4.6208 327.936 1.1552 329.4 0 330.864V409.92C0 409.92 2.888 412.116 4.0432 412.116C5.776 412.116 7.5088 411.384 9.2416 410.652C46.208 401.868 79.7088 384.3 110.322 354.288C123.029 341.844 136.314 329.4 150.754 319.884C166.349 309.636 183.099 302.316 200.427 301.584C201.582 301.584 202.738 301.584 204.47 301.584C228.152 301.584 247.79 313.296 261.653 341.844C275.515 370.392 281.869 401.868 283.024 436.272C283.602 458.964 280.136 480.192 276.093 501.42C270.894 529.968 267.429 558.516 268.584 587.796C270.317 630.984 274.36 673.44 289.378 712.236C296.309 731.268 306.128 748.104 315.947 764.208C333.275 790.56 349.448 817.644 367.931 841.8C375.44 852.048 383.526 861.564 392.19 869.616C409.518 885.72 423.381 905.484 435.51 928.908C449.373 955.26 464.39 979.416 482.296 1002.11C495.003 1018.21 509.443 1032.12 523.883 1046.03C536.013 1057.74 545.832 1072.38 551.608 1091.41C552.763 1094.34 554.496 1096.54 556.229 1098.73H627.274C627.274 1098.73 630.739 1094.34 631.317 1090.68C635.36 1070.92 644.024 1054.81 653.843 1040.9C675.792 1009.43 694.275 974.292 706.982 934.032C715.069 909.144 723.733 884.256 737.018 863.76C748.57 845.46 761.854 829.356 776.294 815.448C794.778 797.148 812.683 778.848 832.322 762.744C842.718 753.96 854.27 748.836 866.4 748.104C866.978 748.104 868.133 748.104 868.71 748.104C881.995 748.104 894.125 755.424 903.367 768.6C913.186 781.776 920.694 797.88 927.626 814.716C938.6 842.532 946.686 871.812 955.928 901.092C961.704 919.392 968.058 937.692 975.566 955.26C981.92 969.168 984.231 983.808 981.92 1000.64C978.455 1025.53 977.877 1050.42 977.299 1075.31C977.299 1081.9 978.455 1087.75 978.455 1093.61C978.455 1096.54 979.61 1098 980.765 1099.46H1043.15C1043.15 1099.46 1047.19 1095.07 1048.34 1091.41C1051.81 1081.16 1055.85 1070.18 1061.05 1061.4C1074.91 1035.78 1094.55 1023.34 1117.08 1018.94C1125.74 1017.48 1134.98 1018.94 1144.23 1017.48C1164.44 1015.28 1184.66 1016.75 1204.87 1010.89C1229.71 1003.57 1247.62 979.416 1250.5 943.548C1252.24 925.98 1252.81 908.412 1250.5 890.844C1244.73 849.852 1223.93 819.84 1193.32 811.788C1186.39 809.592 1179.46 808.86 1173.11 808.86C1156.93 808.86 1141.92 813.984 1126.9 823.5C1112.46 832.284 1099.75 843.996 1085.89 854.244C1079.53 859.368 1073.18 863.028 1066.25 866.688C1059.32 870.348 1052.39 872.544 1045.46 872.544C1033.9 872.544 1023.51 868.152 1012.53 859.368C998.093 848.388 987.119 832.284 977.299 813.984C964.592 788.364 954.773 760.548 944.376 733.464C940.333 722.484 935.134 712.236 928.781 702.72C918.384 687.348 905.677 682.224 891.237 681.492C889.504 681.492 887.771 681.492 885.461 681.492C859.469 681.492 837.52 696.132 817.882 718.092C789.002 751.032 760.122 783.972 731.242 816.912C711.603 839.604 696.008 867.42 683.878 898.164C675.214 920.856 665.973 943.548 652.11 960.384C636.515 979.416 619.187 993.324 597.816 994.056H596.083C582.221 994.056 570.669 985.272 561.427 971.364C555.651 962.58 550.453 953.064 545.832 942.816C529.659 907.68 510.598 874.74 490.382 843.996C480.563 828.624 473.632 811.788 470.744 792.024C467.856 768.6 470.744 746.64 476.52 724.68C488.072 682.956 511.176 659.532 540.634 644.892C558.539 636.108 576.445 630.984 594.35 622.932C620.342 611.22 638.826 587.796 652.11 556.32C659.042 540.948 664.24 524.112 670.594 508.008C680.413 483.12 695.43 464.088 712.181 447.252C730.664 428.22 749.147 407.724 764.742 384.3C780.338 361.608 794.778 336.72 808.062 311.1C816.726 294.264 824.235 287.676 832.899 287.676C839.83 287.676 847.339 291.336 856.581 297.924C876.797 311.1 890.082 332.328 900.479 358.68C911.453 385.032 921.272 411.384 929.359 439.932C936.29 464.82 940.333 489.708 941.488 516.06C942.643 539.484 942.643 562.908 943.799 586.332C943.799 598.776 945.531 611.22 948.419 623.664C953.618 647.088 966.903 660.264 984.231 663.192C992.317 664.656 1000.98 666.12 1009.07 666.12C1026.97 666.12 1044.88 660.996 1061.05 648.552C1079.53 633.912 1093.4 614.148 1104.95 589.992C1120.54 556.32 1129.21 518.988 1132.1 479.46C1133.83 455.304 1134.41 431.148 1141.34 407.724C1146.54 388.692 1153.47 371.856 1167.33 361.608C1171.95 358.68 1175.99 355.752 1181.19 354.288C1182.92 354.288 1184.66 354.288 1186.39 354.288C1195.05 354.288 1201.41 360.144 1204.87 371.856C1209.49 386.496 1211.23 402.6 1213.54 417.972C1217.58 449.448 1222.78 480.192 1234.33 508.008C1243 529.236 1252.81 549 1265.52 565.836C1279.96 586.332 1296.13 603.9 1311.73 622.2C1327.32 640.5 1341.19 661.728 1354.47 682.956C1370.64 710.04 1387.97 736.392 1406.46 759.816C1416.85 772.992 1427.83 785.436 1438.8 797.88C1440.53 799.344 1442.27 803.004 1444.58 803.004C1445.16 803.004 1445.73 803.004 1446.89 802.272V662.46C1441.69 650.748 1434.18 642.696 1426.09 635.376C1410.5 620.736 1393.75 609.024 1377 598.044C1355.05 584.136 1333.1 571.692 1312.88 554.124C1285.16 530.7 1264.37 499.956 1255.12 456.768C1252.24 443.592 1250.5 430.416 1250.5 416.508C1250.5 401.136 1250.5 385.032 1252.81 369.66C1256.86 341.844 1268.41 323.544 1287.47 312.564C1301.91 304.512 1316.93 300.12 1331.37 294.264C1352.74 286.212 1374.11 276.696 1394.33 262.788C1422.05 243.756 1436.49 213.012 1441.11 172.752C1444 144.936 1441.11 118.584 1430.14 93.6959C1423.21 76.8599 1411.65 67.3439 1398.95 60.0239C1386.24 52.7039 1372.38 49.0439 1359.09 43.9199C1350.43 40.9919 1342.34 38.0639 1333.68 33.6719C1324.44 28.5479 1317.51 19.7639 1311.73 9.51594C1310 6.58794 1308.26 3.65994 1306.53 2.19594H1260.32C1257.44 5.85594 1257.44 10.9799 1256.86 16.1039C1255.7 27.8159 1253.97 38.7959 1251.08 49.7759C1248.19 60.0239 1243 65.8799 1235.49 68.0759C1225.67 71.7359 1216.43 72.4679 1206.61 73.9319C1191.59 76.1279 1176.57 77.5919 1162.13 79.0559C1157.51 79.0559 1152.31 79.7879 1147.69 79.7879C1123.43 79.7879 1100.91 73.1999 1080.69 51.2399C1070.29 39.5279 1062.78 25.6199 1056.43 9.51594C1055.28 5.85594 1053.54 2.92794 1051.23 1.46394H1002.71C1002.71 1.46394 1000.98 7.31994 1002.14 10.2479C1006.76 26.3519 1013.11 42.4559 1021.77 55.6319C1044.88 88.5719 1071.45 112.728 1104.37 123.708C1112.46 126.636 1120.54 127.368 1129.21 127.368C1130.94 127.368 1132.67 127.368 1134.41 127.368C1140.76 127.368 1147.69 127.368 1154.04 127.368C1161.55 127.368 1169.06 127.368 1176.57 128.832C1187.55 131.028 1197.94 133.956 1205.45 146.4C1208.34 150.792 1210.65 155.916 1211.8 161.772C1218.74 201.3 1214.12 248.148 1182.92 275.964C1171.37 286.212 1159.82 295.728 1148.85 307.44C1124.59 332.328 1110.72 366 1104.95 406.26C1102.64 424.56 1102.06 442.86 1101.48 461.16C1101.48 486.048 1099.75 510.936 1093.4 534.36C1086.47 559.98 1076.65 582.672 1059.9 598.776C1049.5 609.024 1038.52 614.148 1026.4 614.148C1022.93 614.148 1018.89 614.148 1015.42 612.684C1000.4 608.292 990.584 595.116 984.808 576.816C980.187 562.176 978.455 546.804 977.877 531.432C975.567 485.316 971.523 439.932 964.592 393.816C961.704 371.856 959.971 349.896 958.816 327.936C956.506 293.532 948.419 262.056 931.091 235.704C922.427 223.26 913.186 211.548 903.944 199.836C891.814 183 883.728 163.968 879.107 141.276C875.064 122.244 872.176 102.48 868.133 83.4479C862.357 57.8279 854.848 33.6719 847.917 8.05194C846.762 5.12394 845.607 2.92794 843.296 1.46394H741.638L735.862 -0.732056Z" fill="#F8F8F8"/>
<path d="M5.1984 664.656C5.1984 664.656 5.776 664.656 6.3536 664.656C20.216 666.852 30.6128 669.048 40.432 671.244C80.2864 680.76 113.21 706.38 137.469 745.908C144.4 756.888 150.176 767.868 154.797 778.848C169.237 813.984 173.858 851.316 176.168 887.184V889.38C177.901 912.072 179.634 936.228 184.832 958.92C190.608 985.272 199.272 1004.3 212.557 1017.48C221.798 1027 231.618 1035.05 241.437 1043.1C244.902 1046.03 248.946 1048.96 252.411 1051.88C263.963 1061.4 273.782 1073.84 282.446 1088.48C284.179 1091.41 284.757 1092.88 284.179 1094.34H229.885C226.419 1092.88 222.954 1092.14 220.066 1091.41C217.755 1091.41 215.445 1089.95 213.134 1089.22C209.091 1087.75 205.048 1087.02 201.005 1087.02C193.496 1087.02 186.565 1089.22 179.634 1094.34C120.718 1094.34 61.8032 1094.34 3.4656 1094.34C2.3104 1094.34 2.3104 1094.34 1.7328 1094.34C1.7328 1094.34 1.7328 1094.34 1.7328 1092.14C1.7328 1081.9 1.7328 1070.92 1.7328 1060.67V1048.22C1.7328 1048.22 3.4656 1046.76 5.1984 1046.76C6.3536 1046.76 6.9312 1046.76 8.0864 1046.76C12.7072 1047.49 17.328 1047.49 21.3712 1047.49H38.1216C48.5184 1047.49 59.4928 1047.49 70.4672 1046.03C84.9072 1044.56 101.658 1041.64 117.253 1035.05C130.538 1029.19 139.202 1016.75 142.667 997.716C146.133 977.22 147.288 956.724 147.866 933.3C148.443 912.072 149.598 891.576 147.866 870.348C146.133 835.212 140.357 808.128 130.538 784.704C116.098 751.032 96.4592 728.34 70.4672 716.628C56.0272 710.04 42.1648 709.308 31.768 709.308C25.4144 709.308 19.6384 709.308 13.2848 709.308H9.8192C9.8192 709.308 8.664 709.308 8.0864 709.308C6.9312 709.308 6.3536 709.308 5.776 709.308C4.0432 709.308 3.4656 709.308 2.3104 707.844V663.192C2.3104 663.192 4.0432 661.728 5.1984 661.728M5.1984 658.8C5.1984 658.8 1.7328 659.532 0 661.728V708.576C0 708.576 3.4656 711.504 5.776 711.504C7.5088 711.504 8.664 711.504 10.3968 711.504C17.9056 711.504 24.8368 710.772 32.3456 710.772C45.0528 710.772 57.76 712.236 70.4672 717.36C97.0368 729.072 116.098 751.764 129.382 783.972C140.357 810.324 144.978 838.872 146.71 868.884C147.866 890.112 146.71 910.608 146.71 931.836C146.133 953.064 144.978 974.292 141.512 995.52C138.046 1013.09 130.538 1024.8 117.83 1030.66C102.813 1037.24 87.2176 1039.44 71.6224 1041.64C60.648 1043.1 50.2512 1043.1 39.2768 1043.1C33.5008 1043.1 28.3024 1043.1 22.5264 1043.1C17.9056 1043.1 13.8624 1043.1 9.2416 1042.37C8.0864 1042.37 6.9312 1042.37 6.3536 1042.37C4.0432 1042.37 2.3104 1042.37 0.5776 1046.03C0.5776 1060.67 0.5776 1076.04 0.5776 1090.68C0.5776 1095.07 1.1552 1095.8 4.6208 1095.8C63.536 1095.8 122.451 1095.8 181.366 1095.8C188.298 1090.68 195.229 1088.48 202.16 1088.48C206.203 1088.48 210.246 1088.48 213.712 1090.68C219.488 1092.88 225.264 1093.61 231.04 1095.8H287.067C289.378 1091.41 287.067 1088.48 285.912 1085.56C277.248 1070.92 266.851 1057.74 255.299 1048.22C242.014 1036.51 228.152 1026.26 215.445 1013.09C201.582 998.448 193.496 978.684 188.875 955.992C183.677 932.568 181.944 909.144 180.211 884.988C177.323 846.924 172.702 809.592 158.262 775.188C153.064 763.476 147.288 751.764 140.934 741.516C114.942 699.792 81.4416 675.636 42.1648 666.12C30.6128 663.192 19.0608 660.996 7.5088 659.532C7.5088 659.532 6.3536 659.532 5.776 659.532H5.1984V658.8Z" fill="#F8F8F8"/>
<path d="M309.016 2.92794H330.387C330.387 2.92794 332.698 6.58794 333.275 10.9799C336.741 31.4759 343.094 52.7039 354.069 78.3239C359.267 90.0359 363.888 101.748 369.086 112.728C377.173 131.028 385.259 150.06 393.346 168.36C402.587 190.32 412.406 213.012 427.424 230.58C445.907 251.808 463.813 262.056 482.296 262.056C484.029 262.056 485.762 262.056 487.494 262.056C504.822 260.592 518.685 251.076 529.082 232.776C542.366 210.084 546.987 183 549.875 159.576C552.186 141.276 552.763 122.244 553.918 103.944V94.4279C555.651 66.6119 559.117 39.5279 562.005 12.4439V8.05194C562.005 8.05194 563.738 4.39194 564.893 2.19594H615.144C612.834 16.8359 609.368 30.7439 604.17 44.6519C592.04 76.1279 583.376 110.532 577.6 150.06L576.445 155.916C572.979 181.536 568.936 207.156 562.005 232.044C558.539 245.952 553.918 260.592 546.41 271.572C533.702 289.14 518.107 297.924 497.891 297.924C493.27 297.924 488.65 297.924 483.451 296.46C449.373 289.872 420.493 266.448 395.078 223.26C383.526 204.228 374.285 183 365.043 161.772L363.888 158.844C360.422 151.524 356.957 144.204 353.491 136.884C342.517 112.728 330.965 88.5719 322.301 61.4879C314.792 38.7959 310.749 20.4959 309.016 2.19594M306.706 -0.732056C308.438 21.2279 314.214 42.4559 320.568 62.9519C332.12 97.3559 347.715 128.1 362.155 160.308C371.974 182.268 381.794 204.228 393.923 224.724C417.027 264.252 446.485 292.068 484.029 299.388C489.227 300.12 493.848 300.852 499.046 300.852C517.53 300.852 534.858 293.532 549.298 273.768C557.384 262.056 561.427 248.148 565.47 233.508C572.402 207.156 576.445 178.608 580.488 151.524C585.686 114.924 594.35 80.5199 607.058 46.8479C612.834 32.2079 616.877 16.8359 619.187 0.731944H565.47C565.47 0.731944 562.582 5.12394 562.005 8.78394C558.539 37.3319 555.074 66.6119 553.918 95.8919C552.763 117.852 552.186 139.08 549.298 160.308C546.41 185.928 541.211 210.816 529.082 232.044C518.685 249.612 504.822 258.396 488.65 259.86C486.917 259.86 485.184 259.86 483.451 259.86C462.658 259.86 445.33 247.416 429.734 229.116C415.294 212.28 404.898 189.588 395.656 167.628C382.949 136.884 369.664 107.604 356.379 76.8599C347.715 55.6319 339.629 34.4039 336.163 10.9799C335.586 6.58794 334.43 2.19594 331.542 0.731944H307.283L306.706 -0.732056Z" fill="#F8F8F8"/>
<path d="M92.416 2.92794H159.418C157.107 12.4439 155.374 21.9599 151.909 30.7439C139.779 64.4159 121.296 92.2319 97.0368 114.192C82.0192 127.368 65.8464 134.688 49.096 134.688C44.4752 134.688 39.2768 134.688 34.656 133.224L8.66404 127.368L2.31044 125.904V28.5479C2.31044 28.5479 5.77604 26.3519 8.08644 26.3519C9.81924 26.3519 10.9744 26.3519 12.7072 26.3519C13.8624 26.3519 15.0176 26.3519 16.1728 26.3519H21.9488C28.3024 27.0839 35.2336 27.8159 42.1648 27.8159C46.208 27.8159 49.096 27.8159 52.5616 27.8159C67.0016 26.3519 78.5536 19.7639 87.2176 8.05194C88.9504 5.85594 90.6832 4.39194 92.416 2.92794ZM92.416 -5.57109e-05C92.416 -5.57109e-05 87.7952 3.65994 86.0624 5.85594C76.8208 18.2999 65.2688 23.4239 53.1392 24.8879C49.6736 24.8879 46.208 24.8879 42.7424 24.8879C34.0784 24.8879 25.4144 24.1559 16.7504 23.4239C14.44 23.4239 11.552 22.6919 8.66404 22.6919C5.77604 22.6919 2.88804 22.6919 0.577637 26.3519V128.1C12.1296 130.296 23.6816 133.224 35.2336 135.42C40.432 136.152 45.0528 136.884 50.2512 136.884C67.5792 136.884 84.3296 129.564 99.9248 116.388C124.184 95.1599 143.245 67.3439 155.374 31.4759C158.84 21.2279 161.15 10.2479 163.461 -0.732056H92.416V-5.57109e-05Z" fill="#F8F8F8"/>
<path d="M1441.69 909.876V1004.3C1441.69 1004.3 1440.53 1006.5 1440.53 1007.96C1439.96 1010.16 1438.8 1012.36 1438.22 1013.09C1430.72 1021.14 1422.05 1030.66 1412.23 1037.98C1399.52 1047.49 1385.08 1054.08 1371.8 1059.94C1367.76 1062.13 1363.14 1063.6 1359.09 1065.79C1347.54 1070.92 1337.72 1076.04 1329.64 1086.29C1326.75 1089.95 1323.86 1092.88 1320.39 1095.07H1273.61C1274.76 1067.26 1287.47 1045.3 1307.11 1035.78C1314.62 1032.12 1322.13 1029.19 1329.64 1026.26C1337.72 1022.6 1345.81 1019.68 1353.89 1016.02C1372.96 1007.23 1389.71 994.056 1402.41 977.22C1410.5 966.24 1417.43 954.528 1423.78 942.084L1427.83 935.496C1427.83 935.496 1431.29 928.908 1433.03 925.248C1435.91 920.124 1438.22 915 1441.11 909.876M1443.42 901.824C1436.49 911.34 1431.29 923.052 1425.52 933.3C1417.43 947.208 1409.92 961.848 1400.68 974.292C1386.82 991.86 1370.64 1004.3 1352.74 1012.36C1337.14 1019.68 1320.97 1025.53 1305.38 1032.12C1284 1041.64 1270.72 1067.26 1270.14 1096.54H1319.82C1323.86 1094.34 1326.75 1090.68 1330.21 1087.02C1338.88 1077.5 1348.7 1072.38 1359.09 1067.26C1377 1058.47 1395.48 1051.88 1412.81 1039.44C1422.63 1032.12 1430.72 1023.34 1438.8 1014.55C1441.11 1011.62 1441.69 1007.96 1443.42 1004.3V901.092V901.824Z" fill="#F8F8F8"/>
<path d="M163.461 2.92799H209.091C209.091 2.92799 209.091 6.58799 209.091 9.51599V10.98C202.738 40.26 190.608 64.416 177.901 85.644C174.435 92.232 170.392 98.82 166.349 104.676C158.84 117.852 150.754 131.028 143.823 145.668C139.779 154.452 134.581 166.164 132.271 180.072C130.538 193.248 132.271 203.496 140.357 211.548C144.978 216.672 150.176 218.868 154.219 220.332C168.082 225.456 181.944 226.92 195.229 228.384H202.738L206.203 229.116C217.755 230.58 230.463 232.044 242.015 234.972C272.627 243.024 292.843 264.252 304.395 299.388C316.525 335.988 326.344 377.712 335.008 429.684C340.784 463.356 340.207 494.832 333.275 526.308C329.232 544.608 326.344 560.712 324.611 578.28C322.301 617.076 328.077 646.356 343.095 669.78C353.491 685.884 366.776 694.668 380.061 694.668C389.88 694.668 399.699 689.544 408.363 680.028C415.295 671.976 422.226 662.46 429.157 652.212C441.864 633.18 453.416 618.54 464.391 607.56C477.675 595.116 492.115 584.868 505.978 574.62L509.443 572.424L514.064 568.764C526.194 560.712 538.901 551.928 549.875 539.484C564.893 523.38 572.402 502.152 571.824 476.532C571.247 454.572 567.203 431.88 558.539 405.528C549.875 377.712 535.435 360.144 515.219 352.824C503.09 348.432 488.072 343.308 474.21 335.988C430.312 314.76 393.923 279.624 365.621 232.776C337.319 185.928 312.482 131.76 285.912 57.096C280.714 42.456 276.093 26.352 273.205 10.248V8.78399C273.205 8.78399 272.05 3.65999 273.205 2.19599H306.128C306.128 2.19599 307.861 6.58799 308.439 10.248C313.059 38.796 321.146 66.612 333.853 95.892C345.405 122.976 358.112 150.06 370.819 176.412L376.018 187.392C389.303 215.94 401.432 238.632 418.183 256.932C445.33 286.212 470.167 299.388 496.736 299.388H500.779C532.547 297.924 552.763 279.624 563.16 242.292C570.669 215.94 575.29 188.856 579.333 162.504C583.954 131.76 589.73 95.892 601.859 62.952L603.015 60.756C609.368 43.188 615.722 25.62 619.187 6.58799C619.187 5.12399 619.765 4.39199 620.92 3.65999H732.397C729.509 7.31999 726.043 10.98 723.155 14.64C720.845 17.568 717.957 20.496 715.647 23.424C709.871 30.012 703.517 36.6 698.896 45.384C690.232 60.756 686.767 74.664 687.344 89.304C687.922 103.944 690.81 119.316 696.586 138.348C700.051 150.06 704.095 162.504 708.138 174.216C712.759 188.124 717.379 202.764 722 216.672C728.931 239.364 735.863 265.716 735.863 294.996C735.863 333.06 715.069 368.928 687.922 378.444C680.991 380.64 674.059 381.372 667.128 381.372C664.24 381.372 660.775 381.372 657.309 381.372C638.826 382.836 629.007 388.692 625.541 417.24C624.386 427.488 624.386 437.736 624.386 447.984C624.386 456.036 624.386 464.82 623.808 472.872C622.075 488.976 620.343 507.276 614.567 524.844C606.48 549.732 591.463 567.3 568.359 580.476C561.427 584.136 553.919 588.528 546.41 592.188C530.815 599.508 515.219 607.56 500.202 619.272C482.296 633.18 468.434 649.284 457.459 668.316C451.683 678.564 446.485 689.544 441.287 700.524C435.511 712.968 429.157 725.412 422.226 737.124C411.829 753.96 403.165 760.548 392.191 760.548C387.57 760.548 381.794 759.084 375.44 756.888C358.69 749.568 343.095 734.928 328.077 710.772C303.818 671.976 294.576 623.664 299.197 562.908C300.352 549 303.24 534.36 305.551 521.184C306.706 516.06 307.861 510.204 308.439 505.08C313.059 478.728 314.215 458.232 312.482 438.468C308.439 392.352 298.619 353.556 283.024 318.42C272.627 294.996 258.187 279.624 239.704 271.572C227.575 266.448 215.445 264.252 201.583 264.252C195.807 264.252 189.453 264.252 183.099 265.716C153.642 269.376 124.762 281.088 98.1921 299.388C68.157 319.884 36.9665 330.132 3.46575 330.132H2.88815V130.296C2.88815 130.296 4.04335 129.564 4.62095 129.564C4.62095 129.564 5.77615 129.564 6.35375 129.564C9.81935 129.564 13.8625 131.028 17.3281 132.492C21.3713 133.224 25.4145 134.688 30.0353 135.42C38.1217 136.884 44.4753 137.616 50.8289 137.616C62.3809 137.616 72.2001 135.42 81.4417 130.296C98.7697 120.048 114.943 104.676 129.96 83.448C146.133 60.024 156.53 35.868 161.728 8.78399C161.728 6.58799 162.883 5.12399 164.039 4.39199M164.039 1.46399C164.039 1.46399 160.573 5.12399 159.995 8.05199C154.219 35.868 143.245 60.024 128.805 81.252C114.943 101.016 99.9249 117.12 81.4417 127.368C71.6225 132.492 61.8033 134.688 51.9841 134.688C45.0529 134.688 38.6993 133.956 31.7681 132.492C23.6817 131.028 16.1729 128.832 8.08655 127.368C7.50895 127.368 6.93135 127.368 6.35375 127.368C4.62095 127.368 3.46575 127.368 2.31055 130.296V331.596H5.19855C38.6993 331.596 70.4673 321.348 101.08 300.852C127.65 282.552 155.952 271.572 185.41 267.912C191.763 267.18 197.539 266.448 203.893 266.448C216.6 266.448 229.307 268.644 241.437 273.768C259.92 281.088 273.783 297.192 283.602 319.152C299.775 355.752 309.016 396.012 312.482 438.468C314.792 460.428 312.482 482.388 308.439 504.348C304.973 523.38 300.352 543.144 298.619 562.908C293.999 617.808 300.93 669.78 327.499 712.968C340.784 734.196 356.379 752.496 376.018 760.548C382.371 763.476 388.147 764.94 393.346 764.94C406.053 764.94 414.717 756.888 425.114 740.784C438.399 719.556 447.64 693.936 460.347 671.976C471.899 651.48 486.339 636.108 502.512 623.664C523.883 607.56 547.565 598.044 570.091 585.6C590.885 573.888 608.213 557.052 617.455 528.504C622.653 511.668 624.963 494.1 626.696 475.8C628.429 457.5 626.696 438.468 628.429 420.168C631.895 393.816 639.403 387.96 657.887 386.496C668.283 385.764 678.68 386.496 689.077 383.568C717.379 374.052 738.173 337.452 738.751 297.924C738.751 270.108 732.397 243.756 724.888 218.868C716.802 192.516 708.138 166.896 699.474 140.544C694.853 125.172 690.81 109.068 690.232 92.232C689.655 76.128 694.275 62.952 701.207 49.776C708.138 37.332 717.379 29.28 725.466 19.032C730.087 13.908 734.13 8.05199 738.751 2.92799H620.343C620.343 2.92799 617.455 5.85599 616.877 8.78399C612.834 28.548 606.48 46.848 600.127 65.148C588.575 96.624 582.799 131.028 577.6 165.432C573.557 192.516 569.514 218.868 562.005 244.488C551.608 279.624 533.703 297.924 501.357 299.388C500.202 299.388 499.047 299.388 497.891 299.388C468.434 299.388 443.597 281.82 421.071 257.664C403.743 238.632 391.035 214.476 379.483 188.856C365.043 158.112 351.181 128.1 337.319 97.356C325.767 71.004 317.103 43.188 312.482 12.444C311.904 8.78399 311.327 5.12399 309.016 2.19599H274.36C271.472 5.85599 273.205 10.248 274.36 14.64C277.826 30.744 281.869 46.848 287.645 62.22C309.594 124.44 335.008 184.464 367.931 238.632C397.389 286.944 434.355 321.348 477.675 342.576C490.96 349.164 504.823 354.288 518.685 359.412C538.901 366.732 552.763 385.032 560.85 410.652C567.781 433.344 572.979 456.036 573.557 480.924C574.135 505.812 567.203 526.308 552.763 541.68C540.634 554.856 526.194 564.372 512.331 573.888C496.736 584.868 481.141 595.116 467.279 609.024C453.994 622.2 442.442 637.572 431.467 654.408C425.114 663.924 418.183 673.44 410.674 682.224C402.01 691.74 392.768 696.132 383.527 696.132C370.819 696.132 358.69 687.348 348.871 671.976C332.12 646.356 328.655 615.612 330.965 582.672C332.12 565.104 335.586 548.268 339.051 530.7C345.983 498.492 346.56 465.552 340.784 432.612C333.275 387.96 323.456 344.04 309.594 301.584C297.464 263.52 274.938 243.756 245.48 235.704C232.773 232.044 219.488 231.312 206.203 229.848C190.031 228.384 173.858 227.652 158.263 221.796C153.642 220.332 149.021 217.404 144.978 213.012C138.047 205.692 136.314 196.176 138.047 184.464C139.779 172.02 144.4 161.04 149.599 150.792C159.995 129.564 172.125 110.532 183.677 90.768C196.962 67.344 208.514 43.188 214.867 14.64C215.445 10.98 216.6 6.58799 214.867 2.92799H167.504L164.039 1.46399Z" fill="#F8F8F8"/>
<path d="M841.563 2.92795H889.504C889.504 2.92795 892.97 8.05195 893.547 11.712V13.908C899.323 29.2799 906.254 43.1879 916.074 56.3639C918.962 60.0239 922.427 64.4159 927.048 64.4159C928.203 64.4159 929.358 64.4159 930.514 64.4159C936.29 61.4879 937.445 54.8999 938.022 49.0439V47.5799C939.755 39.5279 939.755 31.4759 939.178 23.424C939.178 19.032 939.178 15.372 939.178 10.98V9.51595C939.178 9.51595 939.178 5.12395 940.333 3.65995H995.782C998.67 16.104 1003.29 29.2799 1010.22 42.4559C1020.62 62.9519 1035.64 80.5199 1055.85 97.3559C1075.49 113.46 1094.55 122.976 1113.61 125.172C1121.12 125.904 1128.63 126.636 1133.83 126.636C1136.72 126.636 1140.18 126.636 1143.07 126.636H1158.67C1169.06 126.636 1177.15 128.1 1184.08 131.028C1197.36 136.152 1205.45 147.864 1207.76 166.164C1209.49 177.876 1210.07 189.588 1208.92 204.96C1207.18 232.776 1198.52 254.736 1181.77 271.572C1175.42 278.16 1168.48 284.016 1161.55 289.872C1158.09 292.8 1154.62 296.46 1150.58 299.388C1124.01 323.544 1107.26 357.948 1100.33 400.404C1097.44 420.168 1096.86 439.932 1096.28 458.964C1096.28 465.552 1096.28 472.872 1095.71 479.46C1094.55 510.936 1089.35 535.824 1080.69 557.052C1066.83 589.992 1050.08 607.56 1027.55 612.684C1025.24 612.684 1022.93 612.684 1020.62 612.684C1001.56 612.684 984.808 596.58 979.032 572.424C973.834 552.66 972.678 532.164 971.523 513.864V502.152C969.79 483.852 968.635 465.552 966.325 447.252C961.126 407.724 955.35 361.608 951.885 315.492C948.997 281.088 938.6 250.344 919.539 225.456C916.651 221.796 913.186 217.404 910.298 213.744C905.099 207.156 899.901 200.568 894.702 193.248C887.771 183.732 881.995 172.02 878.53 159.576C873.331 142.74 870.443 124.44 866.978 106.872C861.779 77.5919 853.693 49.7759 846.184 22.692C844.451 16.104 842.141 8.78395 840.408 2.19595M836.942 -0.732045C846.762 35.136 858.314 69.5399 864.667 106.872C867.555 125.172 871.021 142.74 876.219 160.308C880.262 173.484 885.461 184.464 892.97 194.712C901.056 205.692 909.142 216.672 917.229 226.92C935.712 251.076 946.686 280.356 948.997 314.76C952.462 358.68 957.661 402.6 963.437 446.52C966.325 468.48 967.48 491.172 968.635 513.132C969.79 532.896 970.946 553.392 976.144 572.424C982.498 598.044 1000.4 614.148 1020.04 614.148C1022.35 614.148 1024.66 614.148 1027.55 613.416C1053.54 607.56 1070.29 585.6 1082.42 556.32C1092.82 532.164 1096.86 505.812 1098.02 477.996C1099.17 451.644 1098.6 425.292 1102.64 398.94C1108.99 356.484 1125.74 323.544 1151.73 299.388C1162.13 289.872 1172.53 281.088 1182.92 270.84C1199.68 254.004 1209.49 231.312 1211.23 202.032C1211.8 188.856 1211.8 175.68 1210.07 162.504C1207.18 142.74 1197.94 131.028 1184.66 125.172C1175.99 121.512 1167.33 120.78 1158.67 120.78C1156.36 120.78 1154.62 120.78 1152.31 120.78C1145.96 120.78 1140.18 120.78 1133.83 120.78C1126.9 120.78 1120.54 120.78 1113.61 120.048C1092.82 117.12 1074.34 106.872 1057.01 92.2319C1039.68 77.5919 1023.51 60.7559 1011.96 38.0639C1005.6 25.6199 1000.4 12.444 997.515 -2.19604H939.178C939.178 -2.19604 936.867 4.39195 936.867 8.05195C936.867 20.496 938.022 32.2079 935.712 44.6519C934.557 50.5079 934.557 57.0959 929.358 59.2919C928.203 59.2919 927.626 59.2919 926.47 59.2919C922.427 59.2919 919.539 55.6319 917.229 51.9719C907.987 39.5279 901.056 26.352 895.858 10.98C894.125 5.85595 893.547 0.731955 889.504 -2.19604H837.52L836.942 -0.732045Z" fill="#F8F8F8"/>
<path d="M867.555 746.64C877.374 746.64 886.038 750.3 893.547 757.62C901.056 764.94 907.41 774.456 914.341 786.9C927.626 812.52 936.29 841.068 944.954 869.616L947.264 876.936V879.864C955.928 904.752 964.014 931.104 974.411 955.26C980.765 969.168 982.498 983.808 980.187 999.18C977.299 1021.87 975.566 1047.49 975.566 1075.31C975.566 1078.24 975.566 1081.9 975.566 1084.82C975.566 1087.75 975.566 1091.41 975.566 1095.07H908.565C908.565 1095.07 904.522 1089.22 902.789 1085.56C902.211 1084.09 901.634 1082.63 901.056 1081.16C894.125 1067.26 887.771 1054.08 883.728 1038.71C872.754 998.448 869.288 953.796 872.176 902.556V895.236C873.331 882.06 874.486 868.152 872.176 854.244C869.866 833.748 857.736 819.84 842.718 819.84C840.986 819.84 839.83 819.84 838.098 819.84C821.347 822.768 804.597 830.82 785.536 845.46C775.139 853.512 765.898 863.76 757.811 875.472C745.104 894.504 735.285 917.928 728.931 945.012C717.379 996.252 708.138 1042.37 701.784 1085.56V1087.02C701.206 1090.68 700.629 1093.61 698.896 1094.34H627.274C630.162 1079.7 633.627 1067.99 639.403 1058.47C645.757 1046.76 652.688 1036.51 659.042 1027C671.749 1007.96 681.568 990.396 689.654 971.364C696.008 956.724 701.206 941.352 706.405 926.712C709.87 917.196 713.336 906.948 716.802 897.432C726.043 873.276 738.75 852.048 756.078 832.284C778.027 807.396 802.286 784.704 824.813 764.94C834.054 756.156 843.296 751.032 853.115 748.104C857.736 746.64 862.357 745.908 866.4 745.908M866.4 742.98C861.779 742.98 857.158 743.712 852.538 745.176C842.141 748.104 832.322 753.96 823.658 762.012C799.976 783.24 776.294 805.2 754.346 830.088C738.173 848.388 724.31 870.348 714.491 895.968C705.25 920.856 697.741 946.476 687.344 969.9C678.68 989.664 668.283 1007.96 657.309 1024.8C650.378 1035.05 643.446 1045.3 637.67 1056.28C630.739 1068.72 627.274 1081.9 624.963 1096.54H700.051C703.517 1094.34 704.094 1089.95 704.672 1085.56C711.603 1037.98 721.422 991.86 731.819 945.744C737.595 920.124 746.837 896.7 760.122 876.936C768.208 865.224 777.45 855.708 787.269 847.656C803.442 835.212 820.192 825.696 839.253 822.036C840.408 822.036 842.141 822.036 843.296 822.036C857.158 822.036 868.133 834.48 870.443 854.244C872.754 870.348 870.443 885.72 870.443 901.824C867.555 948.672 869.866 994.788 881.995 1039.44C886.038 1054.81 892.97 1068.72 899.901 1082.63C902.211 1087.75 904.522 1094.34 908.565 1097.27H978.454C978.454 1089.22 977.299 1081.9 977.299 1074.58C977.299 1048.96 978.454 1023.34 981.92 998.448C984.23 982.344 981.92 966.972 975.566 952.332C965.17 927.444 957.083 901.092 948.997 874.74C939.178 843.996 930.514 812.52 916.074 784.704C910.298 772.992 903.366 762.744 894.702 754.692C886.038 746.64 876.797 742.98 866.978 742.98H866.4Z" fill="#F8F8F8"/>
<path d="M1439.96 0V2.928H1441.69C1441.69 2.928 1441.69 3.66 1441.69 5.856C1441.69 86.376 1441.69 167.628 1441.69 248.148V338.184C1441.69 338.184 1441.69 338.184 1441.11 338.184C1440.53 338.184 1439.38 338.184 1438.8 338.184H1438.22C1435.34 336.72 1431.87 335.256 1428.98 333.792C1424.36 331.596 1419.74 329.4 1415.12 327.936C1401.84 323.544 1388.55 321.348 1375.84 321.348C1355.05 321.348 1334.26 327.204 1314.04 337.452C1287.47 352.092 1273.61 380.64 1274.76 419.436C1275.92 451.644 1286.32 477.996 1306.53 499.224C1325.59 518.256 1348.7 527.772 1377 527.772C1382.2 527.772 1387.97 527.772 1393.75 527.04C1405.3 525.576 1416.85 521.916 1427.83 518.988C1431.29 518.256 1434.76 516.792 1438.22 516.06H1438.8C1438.8 516.06 1440.53 516.06 1441.11 516.06C1441.11 516.06 1441.69 516.06 1442.27 516.06V655.14C1442.27 655.14 1438.8 650.748 1437.07 648.552C1435.34 646.356 1433.6 643.428 1431.87 641.232C1420.9 629.52 1408.19 618.54 1392.59 608.292C1383.35 601.704 1373.53 595.848 1364.29 589.992C1351.01 581.208 1337.14 572.424 1323.86 563.64C1301.91 549 1283.43 527.772 1269.56 502.152C1250.5 466.284 1244.15 423.096 1249.93 370.392C1253.39 340.38 1265.52 320.616 1287.47 309.636C1299.02 303.78 1310.57 299.388 1322.13 295.728C1325.59 294.264 1329.06 293.532 1331.95 292.068C1358.52 282.552 1377.58 272.304 1394.9 259.128C1406.46 250.344 1414.54 241.56 1420.32 230.58C1438.22 196.908 1442.84 160.308 1435.91 120.78C1430.14 92.232 1418.01 71.736 1398.37 61.488C1389.71 56.364 1381.62 52.704 1372.96 49.776C1369.49 48.312 1366.02 47.58 1363.14 46.848C1351.58 43.188 1340.03 39.528 1329.64 32.94C1318.66 26.352 1311.15 16.836 1307.11 4.392H1371.8C1394.33 4.392 1417.43 4.392 1439.96 4.392V1.464M1439.96 1.464C1417.43 1.464 1394.33 1.464 1371.8 1.464H1303.64C1308.26 18.3 1317.51 28.548 1328.48 35.868C1342.34 44.652 1357.94 48.312 1372.38 53.436C1381.04 56.364 1389.13 60.024 1397.21 65.148C1416.85 76.128 1427.83 95.892 1433.03 122.976C1440.53 161.772 1435.34 197.64 1418.01 229.848C1411.65 241.56 1402.99 250.344 1393.75 257.664C1374.11 272.304 1352.74 281.82 1331.37 289.872C1316.35 295.728 1300.76 300.12 1286.32 307.44C1264.37 318.42 1250.5 338.916 1247.04 371.124C1241.84 418.704 1245.31 464.82 1266.68 505.08C1281.12 532.164 1299.6 552.66 1321.55 567.3C1344.65 582.672 1367.76 597.312 1390.28 612.684C1404.15 622.2 1417.43 632.448 1428.98 645.624C1434.18 650.748 1437.07 658.8 1443.42 662.46V516.792C1443.42 516.792 1441.11 514.596 1439.96 514.596C1438.8 514.596 1437.65 514.596 1436.49 515.328C1421.47 519.72 1407.03 524.844 1392.02 527.04C1386.24 527.04 1381.04 527.772 1375.84 527.772C1351.01 527.772 1327.9 521.184 1307.11 499.956C1288.05 480.924 1277.07 454.572 1276.5 422.364C1275.34 386.496 1286.89 357.948 1314.62 343.308C1334.26 332.328 1354.47 327.204 1375.27 327.204C1387.97 327.204 1401.26 329.4 1413.96 333.792C1422.05 336.72 1429.56 340.38 1437.07 344.04C1438.22 344.04 1439.38 345.504 1441.11 345.504C1442.27 345.504 1443.42 345.504 1444 343.308C1444 232.044 1444 120.78 1444 9.516C1444 4.392 1444 2.928 1439.96 2.928V1.464Z" fill="#F8F8F8"/>
<path d="M29.4575 713.7C33.5007 713.7 37.5439 713.7 41.5871 713.7C57.7599 713.7 72.7775 718.824 86.0623 729.072C123.029 756.888 142.667 801.54 146.71 865.224C147.865 885.72 147.865 905.484 146.71 923.784C146.71 930.372 146.133 937.692 145.555 944.28C145.555 957.456 144.4 971.364 142.667 984.54C140.934 999.18 138.624 1013.82 129.382 1024.07C123.029 1032.12 114.942 1035.05 107.433 1037.24C88.3727 1043.1 68.1567 1046.03 45.6303 1046.03H36.9663H28.3023C20.2159 1046.03 10.3967 1046.03 1.15509 1044.56V998.448C1.15509 998.448 3.46549 996.984 5.19829 996.984H7.50869C14.4399 996.984 21.9487 996.984 28.8799 996.252H32.9231C49.0959 994.788 61.8031 991.86 72.7775 986.004C90.1055 977.22 103.39 960.384 110.899 936.96C117.83 915 121.296 889.38 120.718 860.1C120.718 838.14 116.675 819.108 109.744 803.004C95.3039 768.6 73.3551 750.3 45.0527 750.3H44.4751C34.6559 750.3 24.8367 752.496 15.5951 754.692C12.7071 754.692 9.24149 756.156 6.35349 756.888C5.19829 756.888 4.62069 756.888 4.04309 756.888C2.88789 756.888 2.31029 756.888 1.73269 756.156V715.896C9.81909 715.164 18.4831 714.432 28.8799 714.432M28.8799 711.504C19.0607 711.504 9.24149 711.504 -0.57771 712.968V756.888C-0.57771 756.888 2.31029 759.816 4.04309 759.816C4.62069 759.816 5.77589 759.816 6.93109 759.816C19.6383 757.62 31.7679 753.228 45.0527 753.228H45.6303C74.5103 753.228 94.7263 771.528 108.011 804.468C114.942 822.036 118.408 840.336 118.408 860.832C118.408 887.184 116.675 912.804 108.589 936.96C101.657 959.652 88.9503 975.756 71.6223 984.54C58.9151 991.128 45.6303 993.324 32.3455 994.788C23.6815 994.788 15.5951 996.252 6.93109 996.252H4.62069C4.62069 996.252 -0.000110131 996.252 -1.73291 999.912V1049.69C8.08629 1051.15 17.9055 1051.15 27.7247 1051.15C33.5007 1051.15 39.2767 1051.15 45.0527 1051.15C65.8463 1051.15 86.6399 1048.22 107.433 1042.37C115.52 1040.17 123.606 1036.51 129.96 1028.46C139.779 1017.48 142.089 1002.84 143.822 987.468C146.133 966.972 146.133 946.476 147.288 926.712C148.443 906.948 148.443 887.184 147.288 867.42C143.822 807.396 125.339 759.084 85.4847 729.072C71.6223 718.824 56.0271 713.7 39.8543 712.968C35.8111 712.968 31.7679 712.968 27.7247 712.968L28.8799 711.504Z" fill="#F8F8F8"/>
<path d="M1441.69 1011.62V1029.92C1441.69 1051.15 1441.69 1071.65 1441.69 1092.88C1441.69 1095.07 1441.69 1095.07 1441.69 1095.07C1441.69 1095.07 1441.11 1095.07 1439.96 1095.07H1325.01C1328.48 1089.95 1333.1 1084.09 1338.3 1080.43C1345.81 1074.58 1353.89 1070.92 1361.4 1067.26L1364.87 1065.79C1368.33 1064.33 1372.38 1062.13 1375.84 1060.67C1383.93 1057.01 1392.59 1053.35 1401.26 1048.22C1414.54 1040.17 1427.25 1028.46 1441.11 1012.36M1443.42 1005.77C1430.14 1021.87 1416.28 1035.78 1400.1 1046.03C1388.55 1053.35 1375.84 1057.74 1363.71 1063.6C1354.47 1067.99 1345.23 1072.38 1336.57 1078.97C1329.64 1084.09 1324.44 1091.41 1319.82 1099.46H1439.38C1442.27 1099.46 1443.42 1099.46 1443.42 1094.34C1443.42 1065.06 1443.42 1035.78 1443.42 1006.5V1005.77Z" fill="#F8F8F8"/>
<path d="M201.583 1089.95C208.514 1089.95 214.867 1091.41 221.221 1095.07H185.41C185.41 1095.07 188.875 1092.14 190.608 1091.41C194.074 1090.68 198.117 1089.95 201.583 1089.95ZM201.583 1087.02C197.539 1087.02 194.074 1087.02 190.031 1088.48C185.987 1089.22 183.099 1093.61 180.211 1098H229.885C220.643 1090.68 211.402 1087.02 201.005 1087.02H201.583Z" fill="#F8F8F8"/>
<path d="M1170.8 849.12V852.048C1185.81 852.048 1197.36 860.1 1205.45 876.204C1214.69 894.504 1215.85 932.568 1193.32 954.528C1181.77 966.24 1167.91 968.436 1155.2 968.436C1137.29 968.436 1122.85 963.312 1110.72 955.26C1104.95 951.6 1099.75 947.208 1098.6 938.424C1097.44 928.176 1098.6 918.66 1102.64 910.608C1106.1 903.288 1109.57 897.432 1113.61 891.576C1129.21 867.42 1145.38 854.976 1163.86 852.78C1166.17 852.78 1168.48 852.78 1170.8 852.78V849.852M1170.8 849.852C1170.8 849.852 1166.17 849.852 1163.29 849.852C1141.92 853.512 1125.74 868.884 1111.88 890.112C1107.84 895.968 1104.37 902.556 1100.91 909.144C1096.28 917.928 1095.13 928.908 1096.28 939.156C1097.44 948.672 1103.79 953.796 1109.57 958.188C1124.01 967.704 1139.6 970.632 1155.2 971.364C1169.06 971.364 1182.92 968.436 1194.48 956.724C1217.58 934.032 1217 894.504 1207.18 874.74C1197.94 856.44 1185.24 849.852 1170.8 849.852Z" fill="#F8F8F8"/>
<path d="M830.589 286.212C830.589 286.212 835.787 286.212 838.675 288.408C858.891 297.192 874.486 311.1 886.616 332.328C897.013 350.628 904.521 371.124 912.03 390.888L915.496 399.672C932.824 446.52 941.488 494.832 940.91 545.34C940.91 569.496 942.065 589.992 943.798 609.024C947.264 638.304 958.238 654.408 979.032 660.996C987.696 663.192 996.36 664.656 1004.45 664.656C1014.27 664.656 1024.08 663.192 1033.9 659.532C1063.94 649.284 1087.04 622.932 1106.68 576.816C1124.01 535.824 1128.63 491.172 1130.94 452.376C1132.67 426.024 1136.72 405.528 1143.65 387.96C1151.16 369.66 1161.55 357.948 1175.99 352.824C1178.3 352.092 1181.19 351.36 1182.92 351.36C1193.9 351.36 1199.1 362.34 1201.99 371.124C1206.61 386.496 1208.92 402.6 1210.65 418.704C1210.65 423.096 1211.8 426.756 1212.38 431.148C1218.16 475.068 1230.87 513.864 1249.93 546.072C1263.79 569.496 1281.12 589.26 1297.29 609.024L1305.38 618.54C1319.24 635.376 1332.52 653.676 1345.81 674.904C1348.7 680.028 1352.16 685.152 1355.05 690.276C1364.29 704.916 1373.53 719.556 1382.77 733.464C1401.26 760.548 1422.05 783.972 1439.96 803.736V903.288C1439.96 903.288 1438.8 906.948 1438.22 909.144C1437.65 911.34 1437.07 914.268 1435.34 915.732L1429.56 925.98C1424.94 934.764 1419.74 942.816 1415.12 951.6C1398.37 983.076 1377 1004.3 1348.7 1016.75C1341.76 1019.68 1334.26 1022.6 1327.32 1025.53C1320.39 1028.46 1314.04 1030.66 1307.69 1033.58C1285.74 1043.1 1273.03 1061.4 1269.56 1089.22C1269.56 1092.14 1268.99 1095.07 1267.25 1097.27H1222.2C1222.2 1097.27 1219.31 1094.34 1218.16 1091.41C1213.54 1078.97 1206.61 1070.92 1197.36 1065.79C1182.92 1059.2 1169.06 1055.54 1155.2 1055.54C1144.8 1055.54 1134.41 1057.74 1124.59 1061.4C1108.99 1067.26 1098.02 1077.5 1091.09 1092.14C1090.51 1093.61 1089.35 1095.07 1087.62 1095.8C1087.62 1095.8 1087.62 1095.8 1087.04 1095.8H1042.57C1042.57 1095.8 1043.15 1093.61 1043.72 1092.88C1045.46 1087.02 1047.77 1081.9 1049.5 1076.04C1061.05 1046.76 1078.38 1028.46 1101.48 1020.41C1114.77 1016.02 1128.05 1016.02 1141.34 1015.28C1147.11 1015.28 1152.89 1015.28 1158.67 1015.28H1165.6C1177.73 1013.82 1190.43 1012.36 1202.56 1008.7C1223.93 1002.11 1237.8 985.272 1243.57 958.92C1247.04 942.816 1248.19 924.516 1247.04 903.288C1245.88 884.988 1243 871.08 1237.8 858.636C1223.36 824.964 1200.25 808.86 1166.75 808.86C1149.42 808.86 1132.67 815.448 1117.08 826.428C1110.72 830.82 1104.37 835.944 1098.02 841.068C1088.78 847.656 1079.53 854.976 1070.29 861.564C1060.47 868.884 1050.65 871.812 1040.84 871.812C1029.28 871.812 1017.73 866.688 1006.18 857.172C993.472 846.924 983.075 833.016 972.678 812.52C961.704 792.024 953.617 768.6 945.531 746.64L941.488 734.928C938.022 725.412 934.557 718.092 931.669 711.504C922.427 694.668 912.03 685.152 899.323 682.224C893.547 680.76 888.349 680.028 882.573 680.028C866.4 680.028 850.805 685.884 835.209 697.596C820.769 708.576 808.64 723.216 796.51 737.124L793.045 741.516C778.027 759.084 762.432 776.652 747.414 792.756L742.793 797.88C728.353 814.716 711.025 834.48 697.741 859.368C690.232 873.276 683.878 888.648 677.525 903.288C674.059 912.072 670.016 921.588 665.973 929.64C651.533 960.384 633.049 980.148 608.213 990.396C603.592 992.592 598.971 993.324 593.773 993.324C579.333 993.324 565.47 984.54 556.229 968.436C548.72 955.26 541.789 941.352 536.013 929.64C525.038 906.948 511.753 880.596 495.003 856.44C489.227 847.656 482.873 838.14 477.675 827.16C466.701 804.468 463.235 780.312 466.123 753.228C469.589 722.484 478.253 697.596 493.27 677.1C506.555 658.8 523.883 648.552 537.745 641.964C547.565 636.84 557.961 633.18 568.358 629.52C576.445 626.592 584.531 623.664 592.617 620.004C612.256 611.22 627.851 595.116 641.136 569.496C648.067 556.32 653.265 541.68 658.464 527.772C660.197 522.648 661.929 518.256 663.662 513.132C670.016 497.028 677.525 483.12 686.189 471.408C694.853 458.964 705.249 448.716 715.069 438.468C721.422 431.88 727.776 425.292 734.129 417.972C746.837 403.332 758.966 386.496 771.096 367.464C780.915 352.092 790.157 335.988 798.821 319.152C801.709 313.296 805.174 308.172 808.062 302.316C813.838 291.336 820.769 286.212 828.856 286.212M828.856 283.284C820.192 283.284 812.683 289.14 806.329 300.852C794.2 322.812 782.648 344.772 769.363 365.268C757.811 382.836 745.681 399.672 732.397 415.044C716.801 433.344 698.896 448.716 684.456 468.48C675.214 480.924 667.705 495.564 661.929 510.936C654.421 529.968 648.067 549.732 638.825 567.3C626.696 590.724 611.101 607.56 590.885 617.076C572.979 625.128 553.918 630.252 536.013 639.036C519.262 647.088 503.667 658.068 490.96 674.904C475.365 696.864 466.701 723.216 463.235 752.496C460.347 779.58 463.813 805.2 474.787 827.892C479.985 838.872 485.761 848.388 492.115 857.904C507.133 880.596 520.417 905.484 532.547 931.104C538.901 944.28 545.254 957.456 552.763 969.9C562.582 986.736 577.022 996.252 592.04 996.252C597.238 996.252 601.859 995.52 607.057 993.324C632.472 983.076 652.11 961.848 665.973 931.104C676.947 907.68 685.033 882.792 697.163 860.832C709.87 837.408 725.465 818.376 742.216 800.076C758.966 781.044 775.717 762.744 792.467 742.98C805.752 727.608 819.037 711.504 834.054 699.792C848.494 688.812 864.089 682.956 880.262 682.956C885.461 682.956 890.659 682.956 896.435 685.152C909.72 688.08 919.539 699.06 927.048 712.968C931.091 720.288 933.979 728.34 936.867 735.66C946.686 762.012 955.928 789.096 968.635 813.984C977.877 832.284 988.851 847.656 1002.71 859.368C1014.84 868.884 1026.4 874.008 1038.52 874.008C1048.92 874.008 1059.32 870.348 1069.14 863.028C1085.31 851.316 1100.33 839.604 1116.5 827.892C1131.52 816.912 1148.27 810.324 1165.02 810.324C1193.9 810.324 1218.74 822.768 1233.75 858.636C1239.53 871.812 1241.84 886.452 1242.42 901.824C1243.57 920.124 1242.42 938.424 1238.95 955.992C1233.18 982.344 1219.31 997.716 1199.1 1004.3C1184.66 1008.7 1170.22 1009.43 1155.78 1010.89C1136.72 1012.36 1117.66 1009.43 1098.6 1016.02C1074.34 1024.07 1056.43 1043.83 1044.88 1073.84C1041.99 1081.9 1039.1 1089.95 1036.21 1098H1084.73C1084.73 1098 1088.78 1095.07 1089.93 1092.14C1097.44 1076.04 1108.99 1067.26 1122.28 1062.13C1132.1 1058.47 1142.49 1057.01 1152.31 1057.01C1166.17 1057.01 1180.04 1060.67 1193.9 1066.52C1202.56 1070.92 1209.49 1078.97 1213.54 1089.95C1214.69 1093.61 1216.43 1095.8 1218.74 1097.27H1265.52C1265.52 1097.27 1268.41 1090.68 1268.99 1087.02C1272.45 1058.47 1286.32 1042.37 1305.38 1033.58C1318.66 1027.73 1332.52 1022.6 1346.39 1016.75C1374.11 1004.3 1396.64 982.344 1413.96 950.136C1420.32 937.692 1427.25 925.98 1433.6 914.268C1435.91 909.876 1436.49 905.484 1438.22 901.092V799.344C1418.01 777.384 1397.79 754.692 1380.46 728.34C1367.76 709.308 1355.63 689.544 1342.92 670.512C1330.21 650.748 1316.93 631.716 1301.91 614.148C1282.85 591.456 1262.63 569.496 1247.04 542.412C1227.4 508.74 1215.27 470.676 1210.07 428.952C1207.18 408.456 1205.45 387.96 1199.68 368.928C1195.63 355.02 1188.12 347.7 1178.3 347.7C1175.99 347.7 1173.11 347.7 1170.22 349.164C1155.2 355.02 1143.65 367.464 1136.14 385.764C1128.05 406.26 1124.59 428.22 1123.43 451.644C1121.12 494.832 1115.92 536.556 1099.75 574.62C1083 613.416 1061.63 644.16 1028.13 655.872C1018.89 658.8 1009.07 660.996 999.248 660.996C991.161 660.996 982.497 659.532 973.833 657.336C953.617 651.48 943.798 635.376 940.333 608.292C938.022 587.064 936.867 565.836 937.445 545.34C937.445 493.368 928.781 444.324 911.453 398.208C902.789 374.784 894.702 351.36 882.573 330.132C869.865 307.44 853.115 293.532 833.477 285.48C830.589 284.016 827.123 283.284 824.813 283.284H828.856Z" fill="#F8F8F8"/>
<path d="M203.315 300.852C207.358 300.852 211.402 300.852 214.867 301.584C231.04 304.512 244.325 313.296 254.144 327.936C271.472 354.288 280.714 387.96 283.024 429.684C284.179 455.304 280.714 479.46 276.093 501.42C270.317 532.896 267.429 559.248 268.006 585.6C268.006 604.632 269.739 622.932 272.05 641.964C277.248 685.884 289.378 721.752 307.861 751.764C318.835 769.332 330.387 786.9 341.362 804.468C354.646 825.696 369.664 848.388 388.147 865.956C407.208 884.256 421.648 904.02 433.2 925.98C443.597 945.744 454.571 964.044 465.546 980.88C481.141 1004.3 500.202 1022.6 518.107 1040.9L525.616 1048.22C538.323 1061.4 546.41 1076.04 551.03 1094.34H489.227C489.227 1094.34 489.227 1092.88 488.072 1091.41C476.52 1065.06 460.347 1043.1 445.33 1024.07C426.846 1001.38 406.053 983.808 380.638 969.9C355.224 955.992 337.318 931.836 327.499 898.164L324.034 886.452C318.835 868.884 313.059 849.852 307.283 832.284C300.352 811.056 291.11 792.756 281.869 773.724C279.558 769.332 277.826 765.672 276.093 761.28C266.851 742.248 260.498 722.484 257.032 701.988C251.256 663.192 248.946 624.396 247.213 581.208C245.48 546.072 248.368 510.204 255.299 474.336C261.653 440.664 261.075 412.116 254.144 385.032C244.902 351.36 226.419 332.328 202.738 332.328C195.806 332.328 188.875 333.792 181.944 336.72C161.728 346.236 145.555 363.072 129.382 381.372C106.856 406.992 88.3728 423.828 69.312 437.004C61.2256 442.86 52.5616 447.984 44.4752 453.108C30.6128 461.892 16.1728 471.408 1.73276 481.656V407.724L5.77596 406.992C41.5872 398.208 68.1568 385.032 91.2608 366C98.7696 360.144 106.278 352.824 113.21 346.236C123.029 337.452 132.848 327.936 143.245 320.616C164.616 305.244 184.254 297.192 203.315 297.192M203.315 294.264C181.366 294.264 161.15 303.78 142.09 318.42C124.184 332.328 108.011 349.164 90.1056 363.804C64.1136 385.764 35.2336 396.744 5.19836 404.064C3.46556 404.064 1.15516 404.796 -0.577637 405.528V486.78C22.5264 469.212 46.7856 455.304 70.4672 439.2C92.416 423.828 112.054 404.796 130.538 383.568C146.133 365.268 162.306 348.432 182.522 338.916C189.453 335.988 196.384 334.524 202.738 334.524C224.686 334.524 243.17 352.824 251.834 385.032C259.92 414.312 258.765 443.592 252.989 472.872C246.058 508.008 243.17 543.876 244.902 580.476C246.635 620.736 248.946 661.728 254.722 701.256C258.187 723.216 264.541 742.98 273.782 761.28C284.757 783.972 296.886 805.932 305.55 831.552C312.482 853.512 319.413 875.472 325.766 897.432C336.163 932.568 354.646 956.724 380.061 970.632C403.742 983.808 425.114 1000.64 444.174 1024.07C460.347 1043.83 475.365 1065.06 486.917 1090.68C486.917 1092.14 488.072 1093.61 488.072 1094.34H554.496C550.453 1072.38 540.634 1055.54 527.926 1042.37C507.133 1021.14 485.762 1001.38 467.856 975.024C455.726 957.456 445.33 939.888 435.51 920.856C422.803 896.7 407.208 876.936 389.88 860.1C372.552 842.532 357.534 821.304 343.672 798.612C332.698 781.044 321.146 763.476 310.171 745.908C290.533 714.432 279.558 677.832 274.36 637.572C272.05 619.272 270.894 600.24 270.317 581.94C269.739 553.392 272.627 526.308 277.826 499.224C282.446 475.068 285.912 451.644 284.757 426.756C283.024 387.96 274.36 352.824 255.299 323.544C244.902 307.44 230.462 298.656 214.867 296.46C210.824 296.46 206.781 295.728 202.738 295.728L203.315 294.264Z" fill="#F8F8F8"/>
<path d="M2.31036 600.24C2.31036 600.24 2.88796 600.24 3.46556 600.24C24.2592 617.076 45.6304 630.984 67.0016 644.892C72.2 648.552 77.3984 651.48 82.5968 655.14C103.39 669.048 121.296 685.152 136.314 703.452L137.469 704.916C153.064 723.948 168.659 744.444 180.789 767.868C193.496 793.488 198.117 822.768 202.16 851.316C202.738 856.44 203.315 862.296 203.893 867.42C206.203 889.38 209.091 912.072 215.445 933.3C221.798 955.992 229.885 972.828 240.282 985.272C250.678 996.984 262.23 1006.5 273.205 1015.28C276.093 1017.48 279.558 1020.41 282.446 1022.6C305.55 1041.64 318.258 1064.33 322.878 1093.61H288.222C288.222 1092.14 287.067 1089.95 285.912 1088.48C276.67 1070.92 263.963 1057.01 245.48 1042.37L242.014 1039.44C231.04 1030.66 219.488 1021.14 209.669 1009.43C196.962 993.324 188.298 971.364 183.677 939.156C181.366 922.32 179.634 904.752 178.478 887.184C177.323 875.472 176.746 863.028 175.013 850.584C168.082 788.364 144.4 737.856 104.546 700.524C72.7776 671.244 34.656 663.924 1.73276 659.532V598.044M-0.577637 593.652V662.46C35.8112 666.852 72.2 674.172 103.39 702.72C142.09 738.588 165.771 787.632 172.702 850.584C176.168 879.864 176.746 909.876 181.366 939.156C185.41 966.24 192.341 991.128 207.936 1010.89C218.91 1024.07 231.04 1033.58 243.747 1043.83C258.765 1055.54 272.627 1069.45 283.024 1089.22C284.179 1091.41 284.757 1093.61 285.912 1095.8H325.189C320.568 1060.67 304.395 1037.24 283.024 1019.68C268.584 1007.96 254.144 996.984 241.437 982.344C229.885 968.436 222.376 950.868 217.178 931.836C209.669 905.484 207.358 877.668 203.893 850.584C199.85 820.572 195.229 792.024 182.522 766.404C169.814 741.516 153.642 721.752 137.469 701.256C121.296 680.76 102.813 665.388 83.1744 652.212C56.6048 634.644 30.0352 617.808 4.04316 597.312C2.88796 596.58 1.15516 595.848 -0.577637 595.116H-3.67484e-05L-0.577637 593.652Z" fill="#F8F8F8"/>
<path d="M333.853 2.92794H357.534C359.267 17.5679 363.888 32.2079 369.664 46.8479C382.371 76.8599 394.501 108.336 406.63 138.348C410.674 148.596 414.717 158.844 418.76 168.36C427.424 189.588 437.821 205.692 450.528 215.94C459.192 222.528 468.434 226.188 477.675 226.188C492.115 226.188 505.4 216.672 514.064 199.836C525.038 178.608 527.349 155.184 528.504 132.492C528.504 117.852 528.504 103.212 527.349 88.572C526.771 76.86 526.194 65.1479 526.194 54.1679V2.92794H562.582C562.005 9.51595 560.85 15.3719 560.272 21.9599C558.539 36.5999 556.806 51.9719 555.651 67.3439C554.496 81.2519 553.918 95.8919 552.763 109.8C552.186 122.976 551.031 136.884 549.875 150.06C547.565 177.144 543.522 198.372 536.013 215.94C525.038 243.756 505.978 259.86 483.451 259.86C475.365 259.86 467.279 257.664 459.77 254.004C440.131 243.756 423.381 225.456 409.519 197.64C402.587 183 395.656 167.628 389.88 152.988C387.57 147.864 385.837 142.74 383.526 137.616C378.906 127.368 374.862 117.12 370.242 106.872C365.043 95.16 359.845 83.448 354.646 71.7359C345.405 50.5079 339.051 27.0839 334.43 2.19594M331.542 -0.732056C335.586 25.6199 342.517 49.7759 352.336 73.1999C361.578 95.16 371.397 117.12 381.216 139.08C389.88 158.844 397.966 180.072 407.786 199.104C421.07 225.456 437.243 245.952 459.192 256.932C467.278 261.324 475.943 262.788 484.029 262.788C505.978 262.788 526.771 248.148 538.323 217.404C546.41 196.176 550.453 173.484 552.186 150.792C554.496 122.976 555.651 95.16 557.384 68.0759C559.117 45.3839 562.005 22.6919 564.893 0.731944H523.883V54.8999C523.883 81.2519 526.771 106.872 526.194 133.224C525.038 156.648 522.728 179.34 512.331 199.104C503.667 215.94 490.96 223.992 477.675 223.992C469.011 223.992 460.347 220.332 451.683 213.744C437.821 202.764 428.579 185.928 421.07 167.628C404.898 126.636 389.302 86.3759 372.552 46.1159C366.776 32.2079 362.155 16.8359 360.422 0.731944H332.12L331.542 -0.732056Z" fill="#F8F8F8"/>
<path d="M1050.08 2.928H1092.82C1092.82 2.928 1096.86 6.588 1098.6 9.516C1101.48 14.64 1105.53 19.032 1111.3 23.424C1123.43 32.208 1136.14 36.6 1148.85 36.6C1163.29 36.6 1177.73 31.476 1193.9 20.496C1197.94 17.568 1200.83 13.908 1203.72 10.248C1206.03 7.32 1208.34 4.392 1211.23 2.196H1254.55C1254.55 10.98 1252.81 19.764 1251.66 27.816C1246.46 60.756 1243.57 64.416 1218.74 69.54C1207.76 71.736 1196.21 73.2 1185.24 73.932C1181.77 73.932 1178.3 73.932 1175.42 75.396H1172.53C1162.71 76.86 1152.89 78.324 1142.49 78.324C1136.14 78.324 1129.79 78.324 1124.59 76.86C1089.93 70.272 1065.09 45.384 1050.65 2.928M1047.19 0C1061.63 46.116 1087.62 73.2 1124.59 79.788C1130.94 81.252 1136.72 81.252 1143.07 81.252C1154.04 81.252 1165.02 79.788 1175.99 78.324C1190.43 76.86 1205.45 75.396 1219.89 72.468C1245.31 66.612 1249.35 62.22 1254.55 28.548C1256.28 19.032 1257.44 9.516 1257.44 0H1210.65C1204.3 5.124 1200.25 13.908 1193.32 18.3C1178.88 28.548 1163.86 34.404 1149.42 34.404C1137.29 34.404 1125.16 30.744 1113.04 21.96C1108.41 18.3 1103.79 14.64 1100.91 8.784C1098.6 5.124 1096.86 2.928 1093.97 0.732H1047.19V0Z" fill="#F8F8F8"/>
<path d="M4.0432 2.92794C18.4832 2.92794 33.5008 2.92794 47.9408 2.92794H69.8896H87.7952C75.6656 23.4239 58.3376 26.3519 42.1648 26.3519H41.0096C34.0784 26.3519 27.7248 26.3519 20.7936 24.8879C14.44 24.8879 8.0864 24.1559 1.7328 23.4239C1.7328 21.9599 1.7328 21.2279 1.7328 19.7639C1.7328 14.6399 1.7328 9.51595 1.7328 4.39195C1.7328 2.92795 1.7328 2.19594 1.7328 2.19594C1.7328 2.19594 1.7328 2.19594 2.888 2.19594M2.888 -0.732056C0.5776 -5.55239e-05 0 0.731945 0 5.12395C0 12.4439 0 19.7639 0 27.0839H0.5776C14.44 27.0839 27.7248 29.2799 41.0096 29.2799H42.1648C61.8032 29.2799 80.2864 24.1559 91.8384 -5.55239e-05H47.3632C33.5008 -5.55239e-05 18.4832 -5.55239e-05 4.0432 -5.55239e-05L2.888 -0.732056Z" fill="#F8F8F8"/>
<path d="M1294.98 88.572V91.5C1310.57 91.5 1325.59 95.892 1336.57 99.552C1345.23 102.48 1353.32 107.604 1360.83 114.192C1372.38 125.904 1378.73 140.544 1379.89 158.112C1381.04 178.608 1374.69 200.568 1361.4 218.868C1352.74 231.312 1340.61 239.364 1324.44 245.952C1313.46 250.344 1303.64 253.272 1294.4 253.272C1290.36 253.272 1286.89 253.272 1282.85 251.808C1265.52 246.684 1260.32 240.828 1255.7 218.136C1253.39 206.424 1252.24 194.712 1252.81 181.536C1252.24 175.68 1252.81 170.556 1252.81 164.7C1252.81 162.504 1252.81 159.576 1252.81 157.38C1253.97 141.276 1255.7 128.1 1259.17 115.656C1262.63 101.748 1269.56 95.16 1280.54 92.964C1284.58 92.964 1289.2 92.232 1293.82 92.232V89.304M1293.82 89.304C1289.2 89.304 1284.58 89.304 1280.54 90.036C1268.99 92.232 1260.9 99.552 1257.44 114.924C1253.97 128.832 1252.24 142.74 1251.08 157.38C1251.08 166.164 1248.77 174.216 1249.93 181.536C1249.93 194.712 1250.5 207.156 1252.81 218.868C1258.01 243.024 1263.79 249.612 1281.69 254.736C1285.74 255.468 1289.78 256.2 1293.25 256.2C1303.64 256.2 1314.04 252.54 1323.86 248.88C1338.3 243.024 1351.58 234.972 1361.98 221.064C1385.08 189.588 1389.71 141.276 1360.83 112.728C1353.32 105.408 1344.65 100.284 1335.99 97.356C1322.13 92.964 1308.26 89.304 1293.82 89.304Z" fill="#F8F8F8"/>
<path d="M784.958 69.54C789.579 69.54 793.622 71.004 797.088 74.664C802.286 79.788 806.33 86.376 809.218 95.16C814.416 112.728 816.149 131.028 813.261 152.256C811.528 166.164 809.795 180.072 805.174 191.784C802.864 197.64 799.398 200.568 795.355 200.568C793.045 200.568 790.734 199.836 788.424 198.372C777.45 191.784 768.208 180.072 760.122 162.504C753.19 147.132 749.147 133.224 748.57 119.316C748.57 114.192 749.147 109.8 750.302 104.676V103.212C754.346 85.644 771.096 68.808 784.958 68.808M784.958 65.88C768.786 65.88 752.035 84.18 747.992 102.48C746.837 108.336 745.682 113.46 745.682 119.316C746.259 135.42 750.88 150.06 757.234 163.968C764.742 179.34 773.984 192.516 786.691 200.568C789.579 202.032 792.467 203.496 794.778 203.496C799.398 203.496 803.442 199.836 806.33 192.516C811.528 180.072 813.261 166.164 814.994 152.256C817.304 131.76 816.726 112.728 810.95 93.696C808.062 84.912 804.597 77.592 798.243 71.736C794.2 68.076 789.579 65.88 784.958 65.88Z" fill="#F8F8F8"/>
<path d="M203.893 336.72C217.178 336.72 228.73 344.04 238.549 357.948C250.679 374.784 257.032 396.744 258.187 428.22C258.765 446.52 255.877 464.82 252.989 480.924C246.635 514.596 244.325 551.196 246.058 589.26C247.213 618.54 250.101 648.552 251.834 673.44C255.299 712.236 263.386 743.712 277.826 770.796C288.223 789.828 298.619 811.056 306.706 835.212C313.059 852.78 318.258 871.08 323.456 889.38L324.611 893.772C335.586 933.3 353.491 958.92 379.483 972.828C384.682 975.756 389.88 978.684 395.079 982.344L399.122 984.54C423.381 999.912 445.33 1023.34 469.011 1058.47C475.943 1068.72 481.719 1078.97 486.339 1089.22C486.339 1089.22 486.339 1090.68 486.917 1090.68C488.072 1092.88 488.65 1094.34 488.072 1095.8H428.579C428.579 1095.8 423.381 1091.41 421.071 1089.22H420.493C415.295 1082.63 410.096 1078.97 403.743 1076.04C401.432 1075.31 399.699 1074.58 397.389 1074.58C389.88 1074.58 383.527 1079.7 380.061 1089.95C378.906 1092.88 377.751 1094.34 376.018 1095.8H328.077C328.077 1095.8 325.767 1092.14 325.189 1089.22C321.146 1070.18 313.637 1054.08 302.085 1040.17C293.999 1029.92 284.757 1022.6 275.515 1015.28C273.205 1013.82 270.895 1011.62 269.162 1010.16C258.765 1001.38 247.791 991.86 239.127 979.416C227.575 963.312 219.488 942.084 214.29 913.536C211.402 898.164 209.091 881.328 207.359 865.224C206.203 854.244 204.471 842.532 202.738 831.552C198.117 801.54 190.031 777.384 177.901 757.62C165.194 736.392 150.754 718.092 138.047 701.988C121.874 682.956 103.391 666.12 80.8642 652.212C58.9154 638.304 34.0786 621.468 10.397 603.168C7.50898 600.972 5.77618 598.776 4.62098 596.58V492.636C4.62098 492.636 7.50898 487.512 9.81938 486.048C21.3714 477.264 31.1906 470.676 41.0098 464.82C79.709 442.128 112.632 413.58 140.935 379.908C157.107 360.144 173.28 347.7 190.031 341.112C195.807 338.916 201.583 338.184 206.781 338.184M206.781 335.256C201.005 335.256 195.229 336.72 189.453 338.184C170.392 345.504 154.219 360.144 139.779 377.712C110.322 413.58 76.821 440.664 40.4322 462.624C30.0354 468.48 19.6386 475.8 9.24178 483.852C6.35378 486.048 4.62098 488.244 2.88818 491.904V597.312C4.62098 600.972 6.93138 603.9 9.81938 606.096C32.9234 623.664 56.605 639.768 80.8642 655.14C101.08 668.316 120.719 684.42 137.469 704.916C151.909 722.484 165.194 740.052 177.323 759.816C190.031 781.044 197.539 805.932 201.583 833.016C205.626 860.1 207.936 887.916 213.135 915C217.755 939.888 225.264 963.312 238.549 982.344C247.213 994.788 258.187 1004.3 269.162 1013.09C280.714 1022.6 292.266 1030.66 302.085 1042.37C313.059 1055.54 320.568 1071.65 324.611 1090.68C325.189 1094.34 326.344 1097.27 328.655 1099.46H378.328C378.328 1099.46 382.371 1095.07 383.527 1092.14C386.992 1083.36 392.191 1078.97 399.122 1078.97C400.855 1078.97 403.165 1078.97 404.898 1080.43C411.251 1082.63 416.45 1086.29 421.071 1092.14C423.959 1095.07 426.847 1098.73 430.312 1100.2H491.538C494.426 1095.8 491.538 1092.14 490.383 1089.22C485.762 1078.24 479.408 1067.99 473.055 1058.47C452.261 1028.46 429.735 1001.38 402.01 983.808C395.656 980.148 389.303 975.756 382.949 972.096C356.379 957.456 339.629 929.64 329.81 894.504C324.034 874.74 318.835 854.976 311.904 835.944C303.818 812.52 293.999 792.024 283.024 771.528C268.007 742.98 260.498 710.772 257.61 675.636C255.299 647.82 252.989 620.004 251.834 591.456C250.101 554.856 251.834 518.988 258.765 483.852C262.231 466.284 264.541 448.716 263.963 430.416C262.808 404.064 258.187 378.444 243.747 358.68C233.351 344.04 220.643 336.72 207.359 336.72L206.781 335.256Z" fill="#F8F8F8"/>
<path d="M360.422 2.92795H396.811C396.811 2.92795 399.699 5.85595 400.854 9.51595C403.165 16.836 405.475 23.424 408.363 29.28C418.76 53.436 429.734 80.52 437.821 108.336C441.286 122.244 445.33 133.224 449.95 142.008C452.838 148.596 456.882 155.184 462.658 158.844C465.546 161.04 468.434 161.772 471.322 161.772C477.098 161.772 482.296 157.38 485.184 149.328C489.227 139.08 490.382 127.368 489.227 114.924C487.494 98.088 484.606 81.2519 481.718 65.8799C477.675 43.9199 475.365 24.888 474.21 6.58796C474.21 4.39196 474.21 2.92795 474.787 2.19595H522.728C522.728 2.19595 523.883 5.85595 523.883 8.78395V10.248C523.883 17.568 523.883 25.62 523.883 32.94C523.883 45.384 523.883 58.56 523.883 71.004C523.883 75.396 523.883 79.7879 524.461 83.4479C525.038 100.284 526.194 117.12 525.616 133.956C525.038 158.112 521.573 176.412 514.642 191.784C507.133 209.352 496.158 219.6 483.451 222.528C481.141 222.528 478.83 222.528 476.52 222.528C461.502 222.528 448.218 213.744 436.088 196.176C427.424 183.732 419.915 168.36 412.406 147.132C402.587 119.316 391.613 92.232 378.906 62.952C370.242 43.188 364.466 25.62 360.422 8.05195C359.845 4.39195 359.845 2.92795 360.422 2.19595M359.267 -0.732045C359.267 -0.732045 357.534 5.12395 358.112 8.78395C362.155 28.548 369.086 46.848 376.595 64.4159C388.725 91.4999 399.699 119.316 410.096 147.864C416.45 166.164 423.958 183 434.355 197.64C445.907 214.476 459.77 225.456 476.52 225.456C478.83 225.456 481.141 225.456 483.451 225.456C498.469 222.528 508.866 210.816 516.374 193.248C523.883 174.948 526.771 155.184 527.349 133.956C527.926 112.728 526.771 91.4999 525.616 70.2719C525.038 49.7759 525.616 30.012 525.616 9.51595C525.616 5.12395 525.616 1.46395 523.306 -1.46404H473.632C473.632 -1.46404 471.322 2.92795 471.322 5.85595C472.477 26.352 475.365 46.116 478.83 65.1479C481.718 81.2519 484.606 97.3559 486.339 114.192C487.494 125.904 486.339 136.884 482.874 147.132C479.986 154.452 475.942 158.112 470.744 158.112C468.434 158.112 465.546 157.38 463.235 155.184C458.037 151.524 454.571 145.668 451.683 139.08C446.485 128.832 443.019 117.12 440.131 105.408C432.622 77.592 421.648 51.24 410.674 25.62C407.786 19.032 405.475 12.444 403.165 5.85595C402.01 2.19595 400.277 -0.732045 397.966 -2.19604H359.845L359.267 -0.732045Z" fill="#F8F8F8"/>
<path d="M1155.78 1053.35V1056.28C1164.44 1056.28 1174.26 1057.74 1184.66 1059.94C1203.72 1065.06 1215.27 1075.31 1220.47 1094.34H1092.82C1099.75 1077.5 1111.3 1066.52 1128.63 1059.94C1136.72 1057.01 1145.38 1055.54 1155.2 1055.54V1052.62M1155.2 1052.62C1145.96 1052.62 1137.29 1054.08 1128.05 1057.01C1111.3 1062.86 1096.86 1073.84 1089.35 1096.54H1223.36C1217 1070.92 1202.56 1060.67 1184.66 1056.28C1174.84 1054.08 1165.02 1052.62 1155.2 1052.62Z" fill="#F8F8F8"/>
<path d="M1097.44 2.928H1206.61C1204.87 6.588 1202.56 9.516 1200.25 12.444C1185.81 27.084 1168.48 34.404 1149.42 34.404C1147.69 34.404 1146.54 34.404 1144.8 34.404C1122.85 32.94 1107.26 22.692 1096.86 2.928M1092.82 0C1104.37 26.352 1122.85 35.868 1144.23 37.332C1145.96 37.332 1147.11 37.332 1148.85 37.332C1167.91 37.332 1185.24 30.744 1200.83 14.64C1204.87 10.98 1207.18 5.856 1209.49 0H1092.24L1092.82 0Z" fill="#F8F8F8"/>
<path d="M831.166 396.012H832.322C848.494 396.012 862.934 405.528 875.064 422.364C903.366 461.892 913.186 505.812 904.522 554.856C900.478 578.28 891.814 595.116 878.53 606.096C871.598 611.952 865.822 616.344 860.046 620.004C838.675 634.644 819.614 653.676 804.019 674.904C794.2 688.08 785.536 699.792 777.45 712.236C759.544 738.588 737.595 763.476 711.603 789.096C683.878 816.18 663.662 842.532 649.222 871.812V873.276C643.446 883.524 637.67 893.772 630.162 901.092C622.075 909.876 614.566 913.536 607.058 913.536C603.592 913.536 600.126 912.804 596.661 911.34C587.419 906.948 578.755 898.164 571.824 885.72C555.651 857.904 541.789 826.428 527.349 785.436C520.995 767.868 519.262 753.228 521.573 739.32C525.038 716.628 535.435 701.988 555.651 691.008C564.315 686.616 572.979 682.956 582.221 679.296C588.574 676.368 595.506 674.172 601.859 670.512C621.498 661.728 637.67 647.82 651.533 629.52C663.662 613.416 673.482 592.92 682.723 565.836C695.43 527.772 712.758 497.76 734.13 473.604L741.061 465.552C756.078 448.716 772.251 431.148 789.002 415.776C802.286 404.064 815.571 394.548 831.166 394.548M831.166 391.62C814.416 391.62 801.131 402.6 787.846 413.58C768.208 430.416 750.88 450.912 732.974 470.676C709.87 496.296 693.12 527.772 680.99 563.64C672.904 586.332 663.662 608.292 649.8 626.592C635.938 645.624 619.187 658.8 600.704 666.852C585.109 674.172 569.514 679.296 554.496 687.348C537.168 696.864 523.306 711.504 519.262 737.856C516.374 754.692 519.84 770.796 525.616 785.436C538.323 820.572 552.763 854.976 570.669 885.72C577.6 897.432 586.264 906.948 596.661 912.072C600.704 914.268 604.17 915 607.635 915C616.299 915 624.386 909.876 631.894 901.824C639.981 893.772 645.757 882.792 650.955 871.812C667.706 838.872 689.077 813.252 712.758 789.828C736.44 766.404 758.966 741.516 779.182 712.236C787.846 699.792 797.088 687.348 805.752 674.904C821.925 652.944 840.986 635.376 861.202 620.736C867.555 616.344 873.909 611.22 880.262 606.828C895.28 594.384 903.366 576.084 907.41 553.392C916.651 500.688 904.522 456.036 877.374 417.972C865.822 401.136 850.805 390.888 832.899 390.156H831.744L831.166 391.62Z" fill="#F8F8F8"/>
<path d="M1176.57 513.864C1176.57 513.864 1181.19 514.596 1184.08 516.792C1192.17 521.916 1197.94 531.432 1203.72 540.216L1206.61 544.608C1219.89 565.836 1234.33 588.528 1249.35 609.756C1253.97 616.344 1258.59 622.2 1263.21 628.788C1281.12 652.944 1300.18 677.832 1315.77 705.648C1324.44 721.02 1333.68 735.66 1342.34 750.3C1354.47 770.796 1367.18 791.292 1378.73 813.252C1390.86 835.944 1395.48 854.976 1393.17 875.472C1388.55 919.392 1367.76 952.332 1338.3 961.116C1334.26 962.58 1330.21 963.312 1326.17 963.312C1315.77 963.312 1297.29 958.92 1289.78 927.444C1286.89 915.732 1284.58 904.02 1282.85 892.308C1281.69 886.452 1280.54 880.596 1279.38 874.008C1271.3 832.284 1254.55 803.736 1228.56 788.364C1208.92 776.652 1187.55 770.796 1163.29 770.796C1154.04 770.796 1144.23 771.528 1134.41 772.992C1116.5 775.92 1100.33 785.436 1084.73 794.22C1074.34 800.076 1062.78 805.932 1050.08 806.664C1030.44 806.664 1010.22 785.436 1005.02 759.816C1002.14 746.64 1006.18 733.464 1014.84 725.412C1021.2 719.556 1028.71 714.432 1036.79 710.772C1066.25 697.596 1091.09 672.708 1110.72 634.644C1122.28 612.684 1133.25 589.26 1145.96 559.98L1148.27 554.124C1153.47 541.68 1158.67 529.968 1166.17 519.72C1169.64 515.328 1172.53 513.132 1175.42 513.132M1175.42 510.204C1171.37 510.204 1168.48 512.4 1164.44 517.524C1155.78 529.236 1150 543.876 1144.23 557.784C1133.25 583.404 1121.7 608.292 1108.99 632.448C1090.51 667.584 1066.83 693.936 1036.21 707.844C1028.13 711.504 1020.62 715.896 1013.69 722.484C1004.45 731.268 999.826 745.176 1003.29 759.816C1008.49 786.9 1029.86 808.86 1050.08 808.86C1062.78 808.86 1074.34 803.004 1085.89 796.416C1102.06 787.632 1117.66 778.116 1134.98 775.188C1144.8 773.724 1154.04 772.992 1163.86 772.992C1185.81 772.992 1207.76 778.116 1228.56 790.56C1255.12 806.664 1270.72 836.676 1278.23 874.008C1281.69 891.576 1284.58 909.876 1288.63 927.444C1294.98 954.528 1310.57 964.776 1326.75 964.776C1330.79 964.776 1335.41 964.776 1339.45 962.58C1372.38 952.332 1392.02 915.732 1396.06 874.008C1398.37 849.852 1391.44 828.624 1381.04 809.592C1361.4 772.26 1338.88 738.588 1318.08 702.72C1297.87 667.584 1274.19 637.572 1251.08 606.828C1236.06 586.332 1222.2 564.372 1208.34 541.68C1201.41 530.7 1195.05 518.988 1185.24 512.4C1181.77 510.204 1179.46 509.472 1176.57 509.472L1175.42 510.204Z" fill="#F8F8F8"/>
<path d="M211.979 2.92799H269.739C273.205 23.424 279.558 45.384 288.222 71.004C298.619 98.82 309.594 126.636 322.301 153.72C341.362 195.444 362.155 239.364 392.19 273.768C407.208 291.336 423.958 306.708 441.286 319.152C464.968 336.72 492.115 346.968 515.797 355.752C534.858 363.072 549.298 379.908 557.384 406.26C565.47 431.88 569.514 453.108 570.091 473.604C571.246 495.564 567.781 511.668 559.694 524.844C553.341 535.092 545.254 543.876 536.59 551.196C526.194 559.248 515.219 566.568 504.822 574.62C500.779 577.548 497.314 579.744 493.27 582.672C472.477 597.312 455.149 614.148 441.286 633.18C438.398 637.572 434.933 641.964 432.045 646.356C425.114 655.872 418.182 665.388 411.251 674.904C402.01 687.348 392.19 693.204 381.794 693.936C381.216 693.936 380.638 693.936 379.483 693.936C358.69 693.936 341.362 669.78 333.275 646.356C325.189 622.932 323.456 597.312 327.499 567.3C329.232 554.124 332.12 540.948 334.43 528.504C335.586 522.648 336.741 516.792 337.896 511.668C340.784 494.832 341.939 477.996 340.206 461.892C338.474 439.932 335.008 417.972 329.81 395.28L327.499 385.764C320.568 354.288 313.637 322.08 302.085 292.068C298.619 283.284 293.421 271.572 285.912 262.056C276.093 250.344 263.386 241.56 249.523 236.436C233.35 230.58 216.022 229.116 199.85 227.652C192.341 227.652 184.832 226.188 177.323 225.456C166.926 223.992 155.952 222.528 146.71 216.672C140.934 213.012 131.115 204.228 132.848 188.124C134.003 177.144 136.314 166.896 140.934 156.648C148.443 139.812 157.685 123.708 166.349 109.8C185.987 77.592 203.893 45.384 211.979 4.39199M210.246 1.46399C202.738 43.188 184.254 76.128 164.616 108.336C155.374 123.708 146.71 139.08 139.202 155.916C134.581 166.164 131.693 177.144 131.115 188.856C129.382 204.96 138.046 215.208 146.71 220.332C156.53 226.188 167.504 228.384 177.901 229.848C201.582 233.508 225.842 232.776 249.523 240.828C262.808 245.22 274.938 253.272 284.757 265.716C291.688 273.768 296.309 284.016 300.352 294.996C313.059 327.204 319.99 363.072 327.499 397.476C332.12 419.436 335.586 441.396 337.318 464.088C338.474 480.192 337.318 497.028 335.008 513.132C331.542 532.164 327.499 550.464 325.189 569.496C321.146 596.58 322.301 624.396 330.965 650.016C339.629 675.636 357.534 699.06 379.483 699.06C380.061 699.06 380.638 699.06 381.794 699.06C394.501 698.328 404.32 690.276 412.984 678.564C423.381 665.388 432.622 650.748 443.019 636.84C458.037 616.344 475.365 600.24 494.426 587.064C508.866 576.816 523.883 567.3 537.746 556.32C546.987 549 554.496 540.216 561.427 529.236C571.246 513.864 573.557 495.564 572.402 475.8C571.246 451.644 566.048 429.684 559.117 407.724C551.03 381.372 537.168 363.072 515.797 355.752C490.382 346.236 464.968 336.72 441.864 319.152C424.536 305.976 408.363 291.336 393.346 273.768C364.466 240.096 343.672 197.64 324.034 154.452C311.904 127.368 300.352 100.284 290.533 71.736C282.446 49.044 275.515 26.352 271.472 2.19599H210.246V1.46399Z" fill="#F8F8F8"/>
<path d="M845.607 822.036C851.96 822.036 857.159 824.964 862.357 830.82C872.754 843.996 873.331 860.1 872.754 879.132C872.754 887.184 872.176 895.236 871.599 903.288C871.599 912.804 870.443 922.32 869.866 931.836C869.866 951.6 871.021 971.364 872.754 988.932C876.219 1020.41 883.15 1046.76 894.125 1069.45C895.28 1071.65 896.435 1073.84 897.013 1075.31C899.901 1081.16 903.367 1087.75 905.677 1095.07H703.517C708.138 1059.94 715.069 1025.53 722 991.86L726.043 972.828C734.13 933.3 745.104 893.04 771.096 864.492C793.623 839.604 816.726 826.428 842.141 822.768C843.296 822.768 844.451 822.768 845.029 822.768M845.029 819.84C845.029 819.84 842.718 819.84 841.563 819.84C814.416 823.5 790.157 838.872 769.363 862.296C743.371 890.844 731.819 930.372 723.733 972.096C715.646 1013.09 706.983 1053.35 701.207 1095.07C701.207 1095.8 701.207 1097.27 700.629 1098H908.565C905.677 1086.29 900.479 1077.5 895.858 1067.99C884.306 1043.83 877.952 1016.75 875.064 988.932C872.754 969.9 871.599 950.868 871.599 931.836C871.599 914.268 873.909 896.7 874.487 879.132C874.487 860.832 874.486 842.532 863.512 828.624C858.314 822.036 851.96 819.108 845.607 819.108L845.029 819.84Z" fill="#F8F8F8"/>
<path d="M1374.69 324.276C1383.35 324.276 1392.59 325.008 1402.41 327.204C1411.08 328.668 1419.74 333.06 1428.4 336.72C1432.45 338.916 1437.07 341.112 1441.69 342.576V512.4C1435.91 514.596 1429.56 516.06 1423.78 518.256C1407.03 523.38 1391.44 526.308 1377 526.308C1363.71 526.308 1351.01 524.112 1338.88 519.72C1311.15 509.472 1279.96 474.336 1276.5 427.488C1274.19 390.888 1285.74 358.68 1308.26 344.772C1329.06 331.596 1350.43 325.008 1375.27 325.008M1375.27 322.08C1352.16 322.08 1329.06 327.936 1307.11 342.576C1282.85 357.948 1271.88 392.352 1274.19 428.22C1277.65 473.604 1307.11 511.668 1338.3 522.648C1351.01 527.04 1364.29 529.236 1377 529.236C1392.59 529.236 1408.77 526.308 1424.36 521.184C1430.72 518.988 1437.65 516.792 1444 514.596V340.38C1430.14 335.256 1417.43 326.472 1402.99 324.276C1393.75 322.812 1384.51 321.348 1375.27 321.348V322.08Z" fill="#F8F8F8"/>
<path d="M45.0528 751.764C49.6736 751.764 53.7168 751.764 57.76 753.228C87.2176 759.816 106.856 785.436 116.098 827.892C121.874 854.976 121.296 884.988 114.365 919.392C106.856 956.724 90.1056 979.416 63.536 988.2C45.0528 994.788 26.5696 994.788 4.62076 994.788H2.31036V939.156C2.31036 939.156 4.62076 937.692 6.93116 937.692H7.50876C7.50876 937.692 10.9744 937.692 12.7072 937.692H15.5952C21.9488 937.692 27.7248 937.692 34.0784 936.228C67.0016 928.908 87.2176 895.236 86.0624 851.316C85.4848 823.5 72.2 803.736 52.5616 799.344C50.2512 799.344 47.9408 799.344 45.6304 799.344C42.7424 799.344 39.8544 799.344 36.9664 800.076C26.5696 802.272 17.328 805.932 6.35356 809.592H5.77596C5.77596 809.592 4.04316 810.324 3.46556 810.324C3.46556 810.324 2.88796 810.324 2.31036 810.324V759.816C7.50876 759.084 13.2848 757.62 18.4832 756.156C25.4144 754.692 35.2336 752.496 44.4752 752.496M44.4752 749.568C35.8112 749.568 26.5696 751.032 17.9056 753.228C12.1296 754.692 5.77596 756.156 -0.577637 756.888V811.056C-0.577637 811.056 1.73276 813.252 2.88796 813.252C4.04316 813.252 5.19836 813.252 6.93116 811.788C16.7504 808.128 27.1472 803.736 36.9664 802.272C39.8544 802.272 42.7424 801.54 45.6304 801.54C47.9408 801.54 49.6736 801.54 51.984 801.54C71.0448 805.2 83.1744 824.232 83.752 850.584C84.9072 893.04 65.2688 925.248 33.5008 932.568C27.7248 934.032 21.3712 934.032 15.5952 934.032H12.7072C12.7072 934.032 9.24156 934.032 7.50876 934.032C4.62076 934.032 1.73276 934.032 -3.67484e-05 937.692V997.716H4.62076C24.8368 997.716 44.4752 997.716 64.1136 990.396C91.8384 980.88 109.166 956.724 116.675 919.392C123.029 888.648 124.762 857.172 118.408 826.428C109.744 785.436 90.6832 756.888 58.3376 749.568C53.7168 748.836 49.6736 748.104 45.0528 748.104L44.4752 749.568Z" fill="#F8F8F8"/>
<path d="M892.97 2.92806H937.445V8.78406C937.445 16.1041 937.445 23.4241 937.445 30.7441C937.445 38.7961 937.445 46.1161 935.134 53.4361C934.557 57.0961 932.246 62.9521 927.625 62.9521C925.893 62.9521 924.16 62.2201 921.85 60.7561C920.117 59.2921 918.384 57.8281 916.651 55.6321C905.677 40.9921 897.59 23.4241 892.392 3.66006M889.504 0.732056C894.702 22.6921 903.366 41.7241 915.496 57.8281C917.229 60.0241 918.962 62.2201 920.694 63.6841C923.005 65.8801 925.315 66.6121 927.625 66.6121C932.246 66.6121 935.712 62.2201 937.445 54.9001C939.178 47.5801 939.755 39.5281 939.755 31.4761C939.755 21.2281 939.755 10.9801 939.755 0.732056H890.082H889.504Z" fill="#F8F8F8"/>
<path d="M638.248 172.02C641.714 172.02 644.602 173.484 647.49 176.412C659.042 187.392 665.395 203.496 666.551 223.992C667.128 236.436 665.395 246.684 660.197 253.272C656.154 259.128 649.8 262.056 642.291 262.056C641.714 262.056 641.136 262.056 639.981 262.056C626.119 262.056 617.455 248.88 615.722 237.168C612.256 215.208 615.722 196.176 624.963 180.804C627.851 175.68 632.472 172.752 637.093 172.752M637.093 169.824C631.895 169.824 626.696 172.752 623.231 179.34C612.834 196.908 610.523 216.672 613.989 238.632C616.299 253.272 626.119 265.716 640.559 265.716H642.869C660.775 265.716 670.594 250.344 668.861 224.724C667.706 204.228 661.352 187.392 648.645 174.948C645.179 172.02 641.714 169.824 637.671 169.824H637.093Z" fill="#F8F8F8"/>
<path d="M994.049 138.348V141.276C1011.96 141.276 1027.55 148.596 1046.61 158.112C1067.98 169.092 1093.4 181.536 1119.39 188.856C1123.43 189.588 1128.63 191.052 1132.1 193.98C1142.49 202.764 1144.23 208.62 1139.6 222.528C1137.87 228.384 1135.56 232.776 1133.25 236.436L1130.94 240.096C1124.01 251.076 1117.08 262.056 1110.15 273.768C1091.66 303.78 1078.96 332.328 1071.45 363.072C1065.09 387.228 1062.78 415.044 1063.94 445.788C1063.94 450.912 1063.94 456.036 1063.94 460.428C1063.94 469.212 1063.94 475.8 1063.94 482.388C1063.94 497.028 1062.21 513.864 1055.85 529.968C1052.39 538.752 1047.77 546.072 1041.99 551.196C1037.95 554.856 1033.33 557.052 1029.28 557.052C1020.62 557.052 1013.11 549 1009.07 535.092C1005.02 521.916 1004.45 507.276 1003.87 492.636V489.708C1003.87 478.728 1003.87 467.748 1003.87 456.768C1003.87 445.056 1003.87 432.612 1003.87 420.168C1002.71 392.352 1002.71 363.804 1002.71 336.72V320.616C1002.71 304.512 1001.56 287.676 998.67 267.18C996.938 252.54 994.049 237.9 991.161 223.992C989.429 216.672 988.273 209.352 987.118 202.764C986.541 199.104 985.963 196.176 984.808 192.516C982.497 181.536 980.187 170.556 980.765 158.844C980.765 151.524 983.075 143.472 992.317 142.74H995.205V139.812M995.205 139.812C995.205 139.812 992.894 139.812 991.739 139.812C983.075 139.812 978.454 147.132 977.877 158.112C977.877 173.484 981.342 188.124 984.23 202.764C988.274 223.992 993.472 245.22 996.36 267.18C998.67 284.748 1000.4 302.316 1000.4 320.616C1000.4 353.556 1000.4 387.228 1001.56 420.168C1002.71 443.592 1001.56 466.284 1002.71 489.708C1003.29 505.08 1003.87 521.184 1007.91 535.824C1012.53 551.928 1021.2 559.98 1030.44 559.98C1035.06 559.98 1039.68 557.784 1044.3 554.124C1050.65 549 1055.28 540.948 1059.32 532.164C1065.67 516.792 1067.4 499.956 1067.98 483.12C1067.98 472.872 1067.98 461.892 1067.98 446.52C1067.4 422.364 1068.56 393.084 1075.49 364.536C1083.58 331.596 1097.44 303.048 1113.61 276.696C1121.12 264.252 1129.21 251.808 1136.72 239.364C1139.6 234.972 1141.34 229.848 1143.07 224.724C1147.69 210.084 1146.54 202.032 1134.41 192.516C1130.36 189.588 1125.74 188.124 1121.12 186.66C1096.28 179.34 1072.03 168.36 1048.34 155.916C1031.02 147.132 1013.69 138.348 994.627 138.348L995.205 139.812Z" fill="#F8F8F8"/>
<path d="M46.7856 800.808C46.7856 800.808 47.9408 800.808 48.5184 800.808C64.1136 800.808 76.8208 814.716 82.0192 834.48C86.64 854.976 84.3296 878.4 75.6656 897.432C67.5792 915.732 54.2944 928.176 39.2768 932.568C30.6128 934.764 21.9488 935.496 12.7072 935.496H8.66404C8.66404 935.496 4.62084 935.496 2.31044 935.496V813.252C2.31044 813.252 5.77604 811.788 8.08644 811.056H9.81924C21.9488 805.932 34.0784 800.808 47.3632 800.808M47.3632 797.88C33.5008 797.88 20.7936 803.004 7.50884 808.128C5.19844 808.86 2.88804 809.592 0.577637 810.324V937.692C0.577637 937.692 6.35364 937.692 9.24164 937.692H13.2848C22.5264 937.692 31.1904 937.692 40.432 934.764C73.9328 925.248 95.304 876.204 84.9072 833.016C79.7088 812.52 65.8464 798.612 49.6736 797.88C49.096 797.88 48.5184 797.88 47.3632 797.88Z" fill="#F8F8F8"/>
<path d="M365.043 311.832C365.043 311.832 369.086 311.832 371.397 313.296C382.371 316.956 392.19 325.008 402.009 333.06L404.32 335.256C425.113 352.092 445.329 368.928 464.968 385.764C478.253 396.744 491.537 408.456 501.934 423.828C512.909 439.932 518.107 456.036 516.952 474.336C517.529 488.244 514.064 500.688 505.4 513.132C494.425 528.504 480.563 539.484 470.166 546.804L462.08 552.66C446.485 563.64 430.312 575.352 415.294 588.528C408.941 594.384 403.165 598.776 397.966 601.704C394.501 603.9 391.613 604.632 388.725 604.632C381.216 604.632 376.017 596.58 375.44 583.404C375.44 575.352 375.44 566.568 377.173 556.32C381.216 524.112 380.061 494.832 374.862 466.284C372.552 453.108 369.086 439.2 366.198 426.756C362.733 412.116 359.267 397.476 356.957 382.104C354.646 367.464 352.336 351.36 352.336 335.256C352.336 321.348 356.957 314.028 365.043 314.028M365.043 311.1C355.801 311.1 350.603 319.152 350.025 335.256C350.025 351.36 351.758 367.464 354.646 383.568C359.845 412.116 367.353 439.2 372.552 467.748C378.328 497.028 378.328 527.04 374.862 557.052C373.707 565.836 372.552 575.352 373.129 584.868C373.129 600.24 379.483 609.024 388.725 609.024C391.613 609.024 395.078 608.292 398.544 606.096C404.897 602.436 410.673 597.312 416.449 592.188C433.777 576.816 452.261 563.64 470.744 550.464C484.029 540.948 496.158 530.7 506.555 516.06C514.641 504.348 519.84 491.904 518.685 475.8C519.262 454.572 512.909 437.736 503.089 423.828C492.115 408.456 478.83 396.744 465.545 385.764C445.329 368.928 425.691 351.36 404.897 335.256C394.501 326.472 383.526 317.688 371.397 314.028C369.086 313.296 366.198 312.564 364.465 312.564L365.043 311.1Z" fill="#F8F8F8"/>
<path d="M236.238 120.048V122.976C244.325 122.976 251.834 130.296 255.877 142.008C258.187 149.328 258.187 155.916 255.877 161.772C254.144 166.164 250.678 169.824 246.058 171.288C242.592 172.02 238.549 172.752 235.083 172.752C230.462 172.752 225.264 172.02 220.066 169.824C214.867 167.628 210.246 161.04 210.246 153.72C210.246 145.668 210.246 144.204 218.91 133.224C224.109 126.636 229.885 122.976 235.661 122.976V120.048M235.661 120.048C229.307 120.048 222.954 123.708 217.178 131.76C209.091 142.74 207.936 144.936 207.936 153.72C207.936 161.772 212.557 170.556 219.488 172.752C224.686 174.216 229.885 175.68 235.083 175.68C239.126 175.68 242.592 175.68 246.635 174.216C258.187 170.556 262.808 156.648 257.61 141.276C252.989 127.368 244.902 120.048 235.661 120.048Z" fill="#F8F8F8"/>
<path d="M793.622 936.228C793.622 936.228 797.088 937.692 799.398 939.888C806.907 949.404 809.218 966.24 804.019 977.952C800.554 986.004 797.088 989.664 791.89 990.396C789.579 990.396 787.269 988.932 784.958 986.736C778.605 980.148 778.027 970.632 778.605 964.776C778.605 953.796 783.803 942.084 789.002 937.692C790.734 936.228 791.89 936.228 793.622 936.228ZM793.622 933.3C793.622 933.3 790.157 934.032 787.846 935.496C777.45 942.816 769.363 975.024 783.803 988.932C786.114 991.86 789.002 992.592 791.89 993.324C798.821 992.592 802.864 986.004 805.752 979.416C811.528 966.972 808.64 947.94 800.554 938.424C798.243 935.496 795.933 934.032 793.622 934.032V933.3Z" fill="#F8F8F8"/>
<path d="M1359.67 376.98C1380.46 376.98 1401.26 389.424 1415.7 410.652C1423.78 423.096 1423.78 439.2 1415.12 450.18C1402.41 466.284 1387.4 473.604 1367.18 473.604H1365.45C1350.43 473.604 1338.88 468.48 1329.06 458.232C1318.66 446.52 1314.04 434.076 1314.62 418.704C1315.77 401.868 1322.7 389.424 1335.41 382.836C1342.92 378.444 1351.58 376.248 1360.25 376.248M1360.25 373.32C1351.58 373.32 1342.92 375.516 1334.83 379.908C1322.13 386.496 1314.04 399.672 1312.88 418.704C1311.73 436.272 1318.08 449.448 1327.9 460.428C1338.88 472.872 1352.16 476.532 1366.02 476.532H1367.76C1386.24 476.532 1402.99 469.944 1417.43 452.376C1426.67 440.664 1427.83 423.096 1418.59 408.456C1403.57 385.764 1382.2 373.32 1360.83 373.32H1360.25Z" fill="#F8F8F8"/>
<path d="M400.855 2.92813H471.322V8.78413C472.477 16.8361 473.055 24.1561 473.632 32.2081C474.787 45.3841 477.675 58.5601 479.408 71.0041C481.141 81.9841 483.451 92.9641 484.607 103.944C486.339 116.388 487.495 127.368 484.607 138.348C482.874 146.4 481.719 152.988 477.098 156.648C474.21 159.576 471.899 160.308 469.011 160.308C465.546 160.308 461.503 158.112 457.459 153.72C450.528 144.936 446.485 133.224 442.442 122.244C440.131 115.656 437.821 108.336 436.088 101.016C432.045 87.1081 427.424 72.4681 422.226 59.2921C419.915 54.1681 418.183 49.7761 415.872 44.6521C410.096 31.4761 404.32 16.8361 399.122 2.19613M395.656 -0.731867C402.01 20.4961 411.251 40.2601 419.915 60.0241C428.002 79.7881 433.778 101.748 440.131 122.976C444.175 134.688 448.218 146.4 455.727 155.184C459.77 160.308 464.391 162.504 468.434 162.504C471.899 162.504 474.787 161.04 478.253 158.112C483.451 153.72 485.184 145.668 486.917 137.616C489.227 125.904 488.072 114.192 486.917 102.48C484.029 78.3241 478.253 54.9001 475.365 30.7441C474.21 20.4961 473.632 9.51613 472.477 -1.46387H396.234L395.656 -0.731867Z" fill="#F8F8F8"/>
<path d="M395.656 1076.77C395.656 1076.77 400.854 1076.77 403.742 1078.97C411.829 1082.63 418.182 1088.48 422.803 1095.8H378.906C378.906 1095.8 378.906 1095.07 378.906 1094.34C381.216 1086.29 385.837 1076.77 395.656 1076.77ZM395.656 1073.84C386.992 1073.84 380.638 1080.43 377.173 1092.88C377.173 1095.07 376.018 1096.54 375.44 1098H427.424C421.648 1087.02 414.139 1079.7 404.898 1076.04C402.01 1074.58 399.122 1073.84 396.234 1073.84H395.656Z" fill="#F8F8F8"/>
<path d="M195.229 401.868C201.582 401.868 207.936 406.26 211.979 415.044C214.29 419.436 215.445 423.828 216.6 430.416C218.91 445.788 217.755 461.892 216.6 477.264C216.6 481.656 216.022 486.048 215.445 490.44C213.712 514.596 213.134 534.36 214.29 551.928V565.836C216.022 584.868 217.178 603.9 217.178 622.932C217.178 644.892 215.445 663.192 210.824 679.296C207.358 690.276 202.738 696.132 195.229 696.132C192.918 696.132 190.608 696.132 188.298 694.668C180.789 691.74 173.28 686.616 164.616 679.296L161.728 676.368C139.202 656.604 116.675 635.376 94.1488 614.88C86.0624 607.56 77.976 599.508 71.6224 589.26C55.4496 564.372 54.872 543.144 68.1568 519.72C72.2 513.132 76.8208 507.276 82.0192 502.152C91.2608 493.368 100.502 484.584 109.166 476.532C124.762 461.892 140.934 447.252 155.952 430.416C164.616 420.9 175.59 409.92 189.453 404.064C191.763 403.332 194.074 402.6 196.384 402.6M196.384 399.672C196.384 399.672 191.186 399.672 188.875 401.136C176.168 406.26 165.194 416.508 154.797 428.22C131.115 454.572 105.123 475.8 80.2864 499.956C75.088 505.08 69.8896 510.936 65.8464 518.256C50.2512 544.608 54.2944 568.032 69.312 591.456C76.2432 601.704 84.3296 609.756 92.416 617.076C116.098 639.036 139.779 660.264 163.461 681.492C170.97 688.08 179.056 693.936 187.72 697.596C190.608 698.328 192.918 699.06 195.229 699.06C203.315 699.06 209.669 692.472 213.134 680.76C218.333 662.46 220.066 642.696 219.488 623.664C219.488 600.24 217.755 576.084 216.6 552.66C215.445 532.164 216.6 511.668 217.755 491.172C218.91 470.676 222.376 450.912 219.488 430.416C218.91 424.56 217.178 418.704 214.867 413.58C210.246 404.796 203.893 399.672 196.384 399.672Z" fill="#F8F8F8"/>
<path d="M821.925 463.356C821.925 463.356 825.968 463.356 828.278 464.82H829.434C838.675 467.748 847.339 475.8 852.538 487.512C857.736 499.956 859.469 513.864 856.003 526.308C853.115 537.288 848.494 546.804 842.141 555.588C835.787 564.372 829.434 571.692 823.08 579.744C819.614 584.136 816.149 588.528 812.683 592.92C793.622 617.076 774.562 644.892 751.458 680.76C739.328 699.792 724.31 721.02 704.094 735.66C691.965 745.176 680.99 749.568 670.016 750.3C669.438 750.3 668.861 750.3 668.283 750.3C661.93 750.3 657.309 747.372 654.421 741.516C650.955 734.928 652.11 729.072 654.998 720.288C657.886 712.236 661.352 703.452 665.395 696.132C686.189 662.46 702.362 625.86 713.336 586.332C721.422 557.784 731.819 535.092 745.682 518.256C759.544 499.956 776.294 484.584 794.2 472.872C804.019 466.284 812.683 463.356 820.77 462.624C820.77 462.624 821.347 462.624 821.925 462.624M821.925 459.696C821.925 459.696 820.77 459.696 820.192 459.696C810.373 459.696 801.131 464.82 792.467 470.676C774.562 483.12 758.389 497.76 743.371 516.792C728.354 535.824 717.957 559.98 710.448 586.332C699.474 626.592 683.301 662.46 663.085 695.4C658.464 702.72 655.576 710.772 652.11 719.556C649.222 727.608 646.912 735.66 651.533 743.712C655.576 751.032 661.352 753.228 667.128 753.228C667.706 753.228 668.283 753.228 669.438 753.228C682.146 752.496 693.698 745.908 704.094 737.856C722.578 723.948 737.595 704.184 752.035 682.224C771.674 652.212 791.89 622.2 813.261 595.116C823.08 582.672 833.477 570.96 842.718 557.784C849.072 549 853.693 538.752 857.158 527.04C864.09 499.956 850.227 467.748 828.856 461.892C825.968 461.16 823.658 459.696 820.77 459.696H821.925Z" fill="#F8F8F8"/>
<path d="M1182.92 617.076C1188.7 617.076 1195.63 620.004 1203.72 627.324C1222.2 643.428 1237.8 663.192 1249.93 687.348C1256.28 699.792 1259.75 710.04 1261.48 720.288C1262.06 724.68 1261.48 729.072 1259.75 732C1258.01 734.928 1255.7 737.124 1252.81 737.856C1248.77 738.588 1245.31 739.32 1241.84 739.32C1241.84 739.32 1240.68 739.32 1240.11 739.32C1222.2 737.856 1204.87 734.928 1188.7 731.268C1175.99 728.34 1162.13 724.68 1150 715.896C1140.76 709.308 1136.72 696.864 1139.6 682.956C1143.07 665.388 1148.85 650.016 1156.36 639.036C1166.17 623.664 1174.26 617.076 1182.92 617.076ZM1182.92 614.148C1173.11 614.148 1163.86 622.2 1154.62 636.84C1145.96 650.016 1140.76 665.388 1137.29 682.224C1134.41 697.596 1139.03 710.772 1148.85 718.092C1160.98 726.876 1174.26 730.536 1188.12 734.196C1205.45 737.856 1222.78 740.784 1240.11 742.248C1240.68 742.248 1241.26 742.248 1241.84 742.248C1245.88 742.248 1249.35 741.516 1253.39 740.784C1260.9 739.32 1265.52 729.804 1263.79 720.288C1262.06 707.844 1257.44 696.864 1251.66 686.616C1238.95 662.46 1223.36 641.964 1204.87 625.86C1196.79 618.54 1189.28 614.88 1182.92 614.88V614.148Z" fill="#F8F8F8"/>
<path d="M147.866 535.092V538.02C154.797 538.02 158.84 545.34 161.151 551.196C164.039 558.516 165.194 565.104 165.194 571.692C165.194 581.208 161.151 591.456 154.219 591.456C151.909 591.456 149.599 590.724 146.711 588.528L144.4 587.064C140.935 584.868 138.047 581.94 135.736 578.28C131.693 572.424 129.383 566.568 128.805 559.98C128.805 557.052 129.96 554.124 131.115 550.464C135.159 541.68 140.357 537.288 147.288 537.288V534.36M147.288 534.36C139.779 534.36 132.848 539.484 128.805 549C127.65 552.66 126.495 555.588 126.495 559.98C127.072 567.3 129.96 573.888 134.003 579.744C137.469 584.868 141.512 587.064 145.555 590.724C148.443 592.92 151.331 594.384 154.219 594.384C162.306 594.384 167.504 582.672 167.504 571.692C167.504 564.372 165.771 557.052 163.461 549.732C160.573 540.948 155.375 534.36 148.443 534.36H147.288Z" fill="#F8F8F8"/>
</g>
<defs>
<clipPath id="clip0_164_176">
<rect width="1444" height="1098" fill="white"/>
</clipPath>
</defs>
</svg>
