<?xml version="1.0" encoding="utf-8"?>
<!-- Generator: Adobe Illustrator 27.9.0, SVG Export Plug-In . SVG Version: 6.00 Build 0)  -->
<svg version="1.1" id="Layer_1" xmlns="http://www.w3.org/2000/svg" xmlns:xlink="http://www.w3.org/1999/xlink" x="0px" y="0px"
	 viewBox="0 0 2048 2048" style="enable-background:new 0 0 2048 2048; opacity:0.1; fill:#85C3C4" xml:space="preserve">
<style type="text/css">
	.st0{clip-path:url(#SVGID_00000098192683906059431050000001478903951759470233_);}
	
</style>
<g>
	<defs>
		<rect id="SVGID_1_" x="-0.3" y="-0.3" width="2048.7" height="2048.7"/>
	</defs>
	<clipPath id="SVGID_00000028290197559514781330000016672397341069052345_">
		<use xlink:href="#SVGID_1_"  style="overflow:visible;"/>
	</clipPath>
	<path style="clip-path:url(#SVGID_00000028290197559514781330000016672397341069052345_);" d="M114,174.9
		c5.7-13.3,10.6-25.8,16.2-37.9c3.6-7.7,7.8-15.2,12.3-22.4c6.6-10.7,16.1-11.4,23.8-1.5c5.4,7,9.6,14.8,14.1,22.5
		c7.3,12.4,14.2,25.1,21.6,37.5c3.6,5.9,8,10.9,15.3,13c3.8,1.1,6.7,4.8,10.6,7.8c5.5-14.1,11-27.9,16.5-41.8
		c-7.1-8-14.1-15.8-21.1-23.6c-12.8-14-22.5-29.8-29-47.6C184.1,53,174.8,24.9,172.1-4.7c-2.1-22.8-4.1-46,5.4-67.9
		c3.2-7.4,7.5-14.6,12.4-21c3-3.9,7.9-7.1,12.5-9.2c13-5.7,24.2-1.1,29.8,11.9c1.8,4.2,3.3,8.7,3.7,13.2c1.5,15.3,2.8,30.7,3.7,46
		c0.8,13.1,0.8,26.2,1.4,39.3c0.6,11,3.6,21.5,9,31c7.9,13.9,16.5,27.6,25.4,40.9c2.8,4.2,7.3,7.2,11.6,11.3
		c9.6-8.9,18.5-17,27.4-25.2c6.5-6,12.8-12.2,19.5-18c7.7-6.7,17-9.7,27.2-9.9c9.8-0.2,15.4,3.6,18.7,12.7c0.8,2.1,1.5,4.4,1.8,6.6
		c3,22,3.1,43.8-6,64.8c-2.3,5.4-4.2,10.9-6.5,17.1c15.4,11.6,30.4,23,45.5,34.4c0.9-0.8,1.9-1.3,2.3-2.1
		c10.5-18.9,27.1-31.7,43.7-44.7c15.2-12,33.1-13.6,51.1-14.3c4.1-0.2,9.6,2.1,12.1,5.2c10.6,13,20.5,26.9,19.1,45
		c-0.5,6.1-1.7,12.6-4.4,17.9c-5,9.9-10.8,19.5-17.1,28.7c-16.7,24.3-33.9,48.3-50.7,72.6c-3.5,5.1-6.1,10.8-8.7,16.5
		c-9.1,19.3-17.9,38.6-27,57.9c-10.1,21.4-19.8,42.9-30.6,63.9c-7.9,15.4-16.9,30.3-25.7,45.3c-10.6,18.1-21.3,36.1-32.2,54.1
		c-8.5,14-17.4,27.8-25.9,41.8c-2.5,4.1-4.5,8.7-5.8,13.3c-3.9,14.8-9.6,28.7-18.6,41c-4.6,6.3-10,12.3-16.1,17.1
		c-17.9,14.3-41.6,11.4-55.5-7c-5.3-7-9.4-15-13.5-22.8c-4.7-8.9-8.9-18.2-13.8-28.2c-3.9,0.9-7.8,1.5-11.3,2.8
		c-14.7,5.3-29.9,7.5-45.4,7.8c-15.2,0.3-29.8,3.1-44.3,8.1c-12.6,4.4-25.9,7.2-38.9,10.2c-6.9,1.6-11.3,5.8-15.2,11.4
		c-7.2,10.1-14.4,20.4-22.7,29.7c-19.6,22.1-48.3,19.2-64.1-6.2c-7.9-12.7-11.1-26.8-9.8-41.4c3.3-36.2,12.7-70.9,29.2-103.5
		c0.5-1.1,0.8-2.3,1.5-4.2c-3.1-1.1-5.8-2.1-8.6-2.9c-21.3-5.6-40.4-15.2-57-29.8c-7.9-6.9-17-12.7-23.7-20.5
		c-21.3-24.9-33.8-53.4-32.8-87.1c0.5-18.1,1-36,6-53.6c3.5-12.4,8.5-24,17-34.1c5.5-6.5,10.4-13.6,15.6-20.3c2.3-3,3.4-5.9,3-9.9
		c-3.5-37.4,5-73.1,17-108c5.3-15.4,18.6-18.7,31.1-8.5c4.8,3.9,8.7,8.9,12.3,13.9c12.2,16.7,24,33.6,36,50.5
		c6,8.5,6.1,7.8,16.2,6.3c25.2-4,50.6-7.4,75.9-10.7c5.5-0.7,11.1,0.2,16.7,0.3C105.5,175,110.1,174.9,114,174.9z M257.3,164.4
		c-3.7,7.2-7,13.2-10,19.2c-3.2,6.4-6.3,12.8-9.5,19.4c3.9,4.3,7,8.6,10.9,12c13.2,11.6,18.5,27.1,19.9,43.6
		c3.1,35.4-3.9,69.4-19.8,101.1c-11,21.9-21.2,44.7-43.3,58.5c-1.4,0.8-2.3,2.4-3.6,3.3c-7.4,5.4-14.4,11.5-22.3,15.8
		c-21.6,11.6-42.4,25.1-66.8,30.7c-0.9,0.2-1.8,0.7-2.7,1.2c-16.5,9-34.3,14.5-52.3,19.8c-15,4.5-30.1,8-45.5,5.7
		c-12.7-1.9-18.8,3.9-23.6,13.8c-1.1,2.3-2.5,4.7-3.2,7.2c-6,21.4-12.6,42.8-17.5,64.4c-2.3,10.1-1.9,20.9-2,31.3
		c0,8.9,3.5,16.9,10.5,22.5c13.6,11.1,20.9,8.3,28.6-1.5c8.3-10.5,16.5-21.2,24.2-32.2c5-7,11.1-11.9,19.5-14
		c14-3.5,28.2-6.3,41.7-11.1c17.3-6.2,34.9-8.2,53-9.4c11-0.8,21.9-3.4,32.8-5.5c4.5-0.9,8.8-2.7,13.3-3.8
		c14.2-3.6,19.7-1.1,26.2,12c4.8,9.7,9.2,19.6,14.1,29.2c2.8,5.5,5.8,11.1,9.6,16c8.4,10.7,19.7,12,29.9,3.3
		c4.5-3.8,8.4-8.3,11.8-13.1c7.5-10.5,12-22.5,15.5-34.9c1.8-6.2,4.5-12.3,7.9-17.8c11.4-19.1,24.1-37.4,34.4-57.3
		c7-13.3,15.8-25.7,23.4-38.7c8.6-14.7,17.5-29.3,25.2-44.5c12.5-24.5,24.2-49.5,36-74.4c6.4-13.3,12.2-26.9,18.6-40.1
		c4.7-9.7,9-19.8,15-28.6c15.9-23.7,32.8-46.7,49-70.2c5.4-7.8,10.1-16.1,14.8-24.4c3.3-5.9,4.3-12.9,2.1-19.1
		c-2.5-7-6.5-13.6-10.4-20c-0.9-1.6-4-3-5.8-2.7c-11.2,1.7-22.9,1.6-32.8,8.9c-17.8,13.1-34.7,27-45,47.3c-0.7,1.4-1.7,2.8-2.7,4.2
		c-6.1,8.1-13.8,9.2-20.8,1.6c-14.1-15.5-31.7-26.4-48.4-38.5c-9.2-6.7-10.8-10.8-6.8-21.7c3.2-8.6,6.6-17.1,9.8-25.7
		c5.7-15.3,4-31,2.7-46.7c-0.1-1.4-1.4-2.8-2-4c-9.4,0.7-11.7,1.5-18.8,7.9c-12.1,11-24.1,22.2-36.1,33.4c-1.6,1.4-2.7,3.4-4,5.3
		c1.7,2,2.8,3.6,4.3,4.9c12.6,11,21.1,24.8,28.5,39.7c4.9,9.8,6.8,19.8,6.2,30.4c-0.6,10-5,16.1-14.9,18.1
		c-17.4,3.6-33.9,2.3-47.4-11.6C272.3,178.2,265.4,172.1,257.3,164.4L257.3,164.4z M-67.7,129.5c-0.9,0.2-1.7,0.5-2.7,0.7
		c-2.9,10-7.1,19.8-8.6,30c-3.1,22.3-4.8,44.9-7.1,67.4c-0.3,3.2-0.5,6.8-2.1,9.5c-6.7,11.7-13.4,23.3-20.9,34.4
		c-5.8,8.6-10.1,17.6-12.9,27.4c-6.4,22.9-6,46.2-3.6,69.4c0.9,8.6,4.4,17.1,7.8,25.2c12.4,30.2,37.1,48.6,64,64.3
		c18.4,10.7,39.3,14.8,60.1,17.7c14.6,2.1,29.2,0.7,43.7-3.8c18.6-5.7,36.9-11.5,54.2-20.4c6.1-3.1,13-4.4,19.5-6.9
		c6.7-2.6,13.3-5.5,19.7-8.7c9.3-4.8,18.4-10.1,27.6-15c15.3-8.1,26.7-20.9,39.5-32.1c2.4-2.1,3.7-5.3,5.4-8.2c2.3-3.9,4.5-8,6.8-12
		c18.1-31.3,28.8-64.4,27.4-101.1c-0.5-13-3.9-24-12.4-33.2c-9.6-10.3-19.5-20.5-30.5-29.2c-10-7.9-18.3-16.9-24.7-27.7
		c-7.1-11.8-13.4-24.1-20.1-36.1c-2.2-3.9-4.6-7.7-7.6-12.8c-3.5,5.8-6.4,10.1-8.8,14.7c-7.3,13.6-14.7,27.1-21.5,40.9
		c-3.3,6.7-8.1,9.7-15.4,10.3C86.5,196,64,197.8,41.4,200c-9.1,0.9-18.1,2.7-27.2,4.2c-3.9,0.6-7.7,1.6-11.6,2
		c-10.6,1-18.4-4-24.2-12.2c-12.8-18.2-25.3-36.7-38.1-54.9C-62,135.6-65,132.6-67.7,129.5L-67.7,129.5z M220-26.8
		c0.5,0,0.9-0.1,1.3-0.1c-1.1-15-2-30.1-3.6-45c-0.5-4.8,0.1-12.1-6.1-13.1c-6.1-0.9-9.5,5.1-12.1,10c-6,10.8-8.9,22.3-9.5,34.7
		c-1.7,34.7,5.9,67.7,16.7,100.2c3.2,9.6,7.7,18.5,12.6,27.5c18.3,33.5,45.4,59.1,73.3,84c5.4,4.8,12.8,7.8,19.8,10.2
		c8,2.7,12.9-1.4,12.4-9.9c-0.3-4.1-1.4-8.5-3.4-12.1c-11.6-20.4-26-38.4-44.9-52.7c-5.9-4.5-11.8-9.7-16-15.8
		c-9.3-13.4-18.1-27.3-26.2-41.5c-7.5-13.2-11.6-27.8-12.4-43.1C221.2-4.6,220.7-15.7,220-26.8L220-26.8z"/>
	<path style="clip-path:url(#SVGID_00000028290197559514781330000016672397341069052345_);" d="M146.3,343.5
		c-13.6,0.4-24.4-4.4-33.3-13.5c-7.5-7.6-13-16.5-16.4-26.5c-6.5-19.2,1.8-42.9,19.2-53.3c4-2.4,9.2-3.8,13.9-3.6
		c9.4,0.4,18.9,2,28.2,3.4c2.6,0.4,5.1,1.3,7.6,2.1c27.1,9.6,35.8,33.3,21,58.1c-4.4,7.3-9.3,14.2-14.5,21
		C165.4,339.8,156.8,344.7,146.3,343.5z M141.9,264.2c-0.1,0.2-0.1,0.5-0.2,0.7c-3.6,0.2-7.2,0.1-10.8,0.7
		c-9.2,1.5-16.1,8-17.4,16.2c-2.3,14.5,6.5,33.1,19.2,40.3c10.5,6,20.5,4.2,27.6-5.4c4.1-5.5,8.1-11.1,11.5-17.1
		c7.6-13.3,2.8-26.4-11.8-31.5C154.2,265.9,147.9,265.4,141.9,264.2L141.9,264.2z"/>
	<path style="clip-path:url(#SVGID_00000028290197559514781330000016672397341069052345_);" d="M-9,367.1c-11.2,0.3-21-2.3-30.3-6.6
		C-65.5,348.2-74,311.4-56,288.4c5.8-7.4,13.3-11.3,23-10.7c3.9,0.3,7.8,0,11.7-0.4c19.3-2.2,40.4,8.6,49.5,25.7
		c1.5,2.8,2.6,6.1,2.7,9.3c0.8,15.9-3.3,30.4-13.1,43.2C10.9,364.8,1.4,368.2-9,367.1L-9,367.1z M-47.2,317.4
		c0.4,16.1,6.7,24.2,22.8,29.3c20.1,6.4,28.2,2.7,36.1-16.6c4.5-11,1.4-21.8-8.3-28.7c-9.7-6.9-20.6-9.9-32.4-9.6
		c-8.6,0.3-13.4,3.9-15.8,12.1C-46.1,308.3-46.5,313-47.2,317.4L-47.2,317.4z"/>
	<path style="clip-path:url(#SVGID_00000028290197559514781330000016672397341069052345_);" d="M71.7,370.2
		c-5.1-1.6-10.3-2.7-14.9-4.8c-9.3-4.4-10.2-11.7-2.7-18.5c6.7-6,14.8-8.4,23.5-8.6c9.7-0.3,14.4,5.6,13,15.2
		c-1.7,12,1,22.4,10.7,30.4c2,1.7,3.6,3.8,5.1,5.9c3,4.5,2.8,8.9-0.2,11.6c-3,2.7-7.8,2.7-11.5-0.9c-2.3-2.2-3.9-5.2-6.5-8.7
		c-2.9,3.9-4.3,5.9-5.8,7.9c-1.7,2.4-3.2,5-5.3,7.1c-3.7,3.8-8,4.4-11.5,1.8c-3.9-2.9-5.4-7-3.4-11.3c2.2-4.7,4.7-9.5,8.1-13.3
		C74.4,379.3,75.3,375.1,71.7,370.2L71.7,370.2z"/>
	<path style="clip-path:url(#SVGID_00000028290197559514781330000016672397341069052345_);" d="M136.1,287.3
		c0.5-1.5,0.9-4.2,2.2-6.4c2-3.3,5.3-3.9,8.5-1.8c6.3,3.9,10.1,14.4,8.2,21.6c-1.2,4.5-3.4,7.9-8.5,8.2c-4.2,0.2-7.3-2.7-8.6-8
		c-0.5-1.9-0.5-3.9-0.8-5.8C136.9,292.9,136.6,290.6,136.1,287.3L136.1,287.3z"/>
	<path style="clip-path:url(#SVGID_00000028290197559514781330000016672397341069052345_);" d="M-26.6,320.8
		c0.5-1.2,1.3-4.9,3.3-7.6c3.6-4.8,10.1-4.8,13.3,0.2c2.9,4.6,5.3,9.9,6.3,15.2c1.5,8.3-5.1,12.8-12.8,9.4
		C-24.6,334.4-26.9,331.1-26.6,320.8z"/>
	<path style="clip-path:url(#SVGID_00000028290197559514781330000016672397341069052345_);" d="M2162.7,174.9
		c5.7-13.3,10.6-25.8,16.2-37.9c3.6-7.7,7.8-15.2,12.3-22.4c6.6-10.7,16.1-11.4,23.8-1.5c5.4,7,9.6,14.8,14.1,22.5
		c7.3,12.4,14.2,25.1,21.6,37.5c3.6,5.9,8,10.9,15.3,13c3.8,1.1,6.7,4.8,10.6,7.8c5.5-14.1,11-27.9,16.5-41.8
		c-7.1-8-14.1-15.8-21.1-23.6c-12.8-14-22.5-29.8-29-47.6c-10.2-27.8-19.5-55.9-22.1-85.5c-2.1-22.8-4.1-46,5.4-67.9
		c3.2-7.4,7.5-14.6,12.4-21c3-3.9,7.9-7.1,12.5-9.2c13-5.7,24.2-1.1,29.8,11.9c1.8,4.2,3.3,8.7,3.7,13.2c1.5,15.3,2.8,30.7,3.7,46
		c0.8,13.1,0.8,26.2,1.4,39.3c0.6,11,3.6,21.5,9,31c7.9,13.9,16.5,27.6,25.4,40.9c2.8,4.2,7.3,7.2,11.6,11.3
		c9.6-8.9,18.5-17,27.4-25.2c6.5-6,12.8-12.2,19.5-18c7.7-6.7,17-9.7,27.2-9.9c9.8-0.2,15.4,3.6,18.7,12.7c0.8,2.1,1.5,4.4,1.8,6.6
		c3,22,3.1,43.8-6,64.8c-2.3,5.4-4.2,10.9-6.5,17.1c15.4,11.6,30.4,23,45.5,34.4c0.9-0.8,1.9-1.3,2.3-2.1
		c10.5-18.9,27.1-31.7,43.7-44.7c15.2-12,33.1-13.6,51.1-14.3c4.1-0.2,9.6,2.1,12.1,5.2c10.6,13,20.5,26.9,19.1,45
		c-0.5,6.1-1.7,12.6-4.4,17.9c-5,9.9-10.8,19.5-17.1,28.7c-16.7,24.3-33.9,48.3-50.7,72.6c-3.5,5.1-6.1,10.8-8.7,16.5
		c-9.1,19.3-17.9,38.6-27,57.9c-10.1,21.4-19.8,42.9-30.6,63.9c-7.9,15.4-16.9,30.3-25.7,45.3c-10.6,18.1-21.3,36.1-32.2,54.1
		c-8.5,14-17.4,27.8-25.9,41.8c-2.5,4.1-4.5,8.7-5.8,13.3c-3.9,14.8-9.6,28.7-18.6,41c-4.6,6.3-10,12.3-16.1,17.1
		c-17.9,14.3-41.6,11.4-55.5-7c-5.3-7-9.4-15-13.5-22.8c-4.7-8.9-8.9-18.2-13.8-28.2c-3.9,0.9-7.8,1.5-11.3,2.8
		c-14.7,5.3-29.9,7.5-45.4,7.8c-15.2,0.3-29.8,3.1-44.3,8.1c-12.6,4.4-25.9,7.2-38.9,10.2c-6.9,1.6-11.3,5.8-15.2,11.4
		c-7.2,10.1-14.4,20.4-22.7,29.7c-19.6,22.1-48.3,19.2-64.1-6.2c-7.9-12.7-11.1-26.8-9.8-41.4c3.3-36.2,12.7-70.9,29.2-103.5
		c0.5-1.1,0.8-2.3,1.5-4.2c-3.1-1.1-5.8-2.1-8.6-2.9c-21.3-5.6-40.4-15.2-57-29.8c-7.9-6.9-17-12.7-23.7-20.5
		c-21.3-24.9-33.9-53.4-32.9-87.2c0.5-18.1,1-36,6-53.6c3.5-12.4,8.5-24,17-34.1c5.5-6.5,10.4-13.6,15.6-20.3c2.3-3,3.4-5.9,3-9.9
		c-3.5-37.4,5-73.1,17-108c5.3-15.4,18.6-18.7,31.1-8.5c4.8,3.9,8.7,8.9,12.3,13.9c12.2,16.7,24,33.6,36,50.5
		c6,8.5,6.1,7.8,16.2,6.3c25.2-4,50.6-7.4,75.9-10.7c5.5-0.7,11.1,0.2,16.7,0.3C2154.1,175,2158.7,174.9,2162.7,174.9L2162.7,174.9z
		 M2306,164.4c-3.7,7.2-7,13.2-10,19.2c-3.2,6.4-6.3,12.8-9.5,19.4c3.9,4.3,7,8.6,10.9,12c13.2,11.6,18.5,27.1,19.9,43.6
		c3.1,35.4-3.9,69.4-19.8,101.1c-11,21.9-21.2,44.7-43.3,58.5c-1.4,0.8-2.3,2.4-3.6,3.3c-7.4,5.4-14.4,11.5-22.3,15.8
		c-21.6,11.6-42.4,25.1-66.8,30.7c-0.9,0.2-1.8,0.7-2.7,1.2c-16.5,9-34.3,14.5-52.3,19.8c-15,4.5-30.1,8-45.5,5.7
		c-12.7-1.9-18.8,3.9-23.6,13.8c-1.1,2.3-2.5,4.7-3.2,7.2c-6,21.4-12.6,42.8-17.5,64.4c-2.3,10.1-1.9,20.9-2,31.3
		c0,8.9,3.5,16.9,10.5,22.5c13.6,11.1,20.9,8.3,28.6-1.5c8.3-10.5,16.5-21.2,24.2-32.2c5-7,11.1-11.9,19.5-14
		c14-3.5,28.2-6.3,41.7-11.1c17.3-6.2,34.9-8.2,53-9.4c11-0.8,21.9-3.4,32.8-5.5c4.5-0.9,8.8-2.7,13.3-3.8
		c14.2-3.6,19.7-1.1,26.2,12c4.8,9.7,9.2,19.6,14.1,29.2c2.8,5.5,5.8,11.1,9.6,16c8.4,10.7,19.7,12,29.9,3.3
		c4.5-3.8,8.4-8.3,11.8-13.1c7.5-10.5,12-22.5,15.5-34.9c1.8-6.2,4.5-12.3,7.9-17.8c11.4-19.1,24.1-37.4,34.4-57.3
		c7-13.3,15.8-25.7,23.4-38.7c8.6-14.7,17.5-29.3,25.2-44.5c12.5-24.5,24.2-49.5,36-74.4c6.4-13.3,12.2-26.9,18.6-40.1
		c4.7-9.7,9-19.8,15-28.6c15.9-23.7,32.8-46.7,49-70.2c5.4-7.8,10.1-16.1,14.8-24.4c3.3-5.9,4.3-12.9,2.1-19.1
		c-2.5-7-6.5-13.6-10.4-20c-0.9-1.6-4-3-5.8-2.7c-11.2,1.7-22.9,1.6-32.8,8.9c-17.8,13.1-34.7,27-45,47.3c-0.7,1.4-1.7,2.8-2.7,4.2
		c-6.1,8.1-13.8,9.2-20.8,1.6c-14.1-15.5-31.7-26.4-48.4-38.5c-9.2-6.7-10.8-10.8-6.8-21.7c3.2-8.6,6.6-17.1,9.8-25.7
		c5.7-15.3,4-31,2.7-46.7c-0.1-1.4-1.4-2.8-2-4c-9.4,0.7-11.7,1.5-18.8,7.9c-12.1,11-24.1,22.2-36.1,33.4c-1.6,1.4-2.7,3.4-4,5.3
		c1.7,2,2.8,3.6,4.3,4.9c12.6,11,21.1,24.8,28.5,39.7c4.9,9.8,6.8,19.8,6.2,30.4c-0.6,10-5,16.1-14.9,18.1
		c-17.4,3.6-33.9,2.3-47.4-11.6C2321,178.2,2314.1,172.1,2306,164.4L2306,164.4z M1981,129.5c-0.9,0.2-1.7,0.5-2.7,0.7
		c-2.9,10-7.1,19.8-8.6,30c-3.1,22.3-4.8,44.9-7.1,67.4c-0.3,3.2-0.5,6.8-2.1,9.5c-6.7,11.7-13.4,23.3-20.9,34.4
		c-5.8,8.6-10.1,17.6-12.9,27.4c-6.4,22.9-6,46.2-3.6,69.4c0.9,8.6,4.4,17.1,7.8,25.2c12.4,30.2,37.1,48.6,64,64.3
		c18.4,10.7,39.3,14.8,60.1,17.7c14.6,2.1,29.2,0.7,43.7-3.8c18.6-5.7,36.9-11.5,54.2-20.4c6.1-3.1,13-4.4,19.5-6.9
		c6.7-2.6,13.3-5.5,19.7-8.7c9.3-4.8,18.4-10.1,27.6-15c15.3-8.1,26.7-20.9,39.5-32.1c2.4-2.1,3.7-5.3,5.4-8.2c2.3-3.9,4.5-8,6.8-12
		c18.1-31.3,28.8-64.4,27.4-101.1c-0.5-13-3.9-24-12.4-33.2c-9.6-10.3-19.5-20.5-30.5-29.2c-10-7.9-18.3-16.9-24.7-27.7
		c-7.1-11.8-13.4-24.1-20.1-36.1c-2.2-3.9-4.6-7.7-7.6-12.8c-3.5,5.8-6.4,10.1-8.8,14.7c-7.3,13.6-14.7,27.1-21.5,40.9
		c-3.3,6.7-8.1,9.7-15.4,10.3c-22.6,1.7-45.1,3.6-67.6,5.8c-9.1,0.9-18.1,2.7-27.2,4.2c-3.9,0.6-7.7,1.6-11.6,2
		c-10.6,1-18.4-4-24.2-12.2c-12.8-18.2-25.3-36.7-38.1-54.9C1986.7,135.6,1983.7,132.6,1981,129.5L1981,129.5z M2268.7-26.8
		c0.5,0,0.9-0.1,1.3-0.1c-1.1-15-2-30.1-3.6-45c-0.5-4.8,0.1-12.1-6.1-13.1c-6.1-0.9-9.5,5.1-12.1,10c-6,10.8-8.9,22.3-9.5,34.7
		c-1.7,34.7,5.9,67.7,16.7,100.2c3.2,9.6,7.7,18.5,12.6,27.5c18.3,33.5,45.4,59.1,73.3,84c5.4,4.8,12.8,7.8,19.8,10.2
		c8,2.7,12.9-1.4,12.4-9.9c-0.3-4.1-1.4-8.5-3.4-12.1c-11.6-20.4-26-38.4-44.9-52.7c-5.9-4.5-11.8-9.7-16-15.8
		c-9.3-13.4-18.1-27.3-26.2-41.5c-7.5-13.2-11.6-27.8-12.4-43.1C2269.9-4.6,2269.3-15.7,2268.7-26.8L2268.7-26.8z"/>
	<path style="clip-path:url(#SVGID_00000028290197559514781330000016672397341069052345_);" d="M2195,343.5
		c-13.6,0.4-24.4-4.4-33.3-13.5c-7.5-7.6-13-16.5-16.4-26.5c-6.5-19.2,1.8-42.9,19.2-53.3c4-2.4,9.2-3.8,13.9-3.6
		c9.4,0.4,18.9,2,28.2,3.4c2.6,0.4,5.1,1.3,7.6,2.1c27.1,9.6,35.8,33.3,21,58.1c-4.4,7.3-9.3,14.2-14.5,21
		C2214.1,339.8,2205.5,344.7,2195,343.5L2195,343.5z M2190.6,264.2c-0.1,0.2-0.1,0.5-0.2,0.7c-3.6,0.2-7.2,0.1-10.8,0.7
		c-9.2,1.5-16.1,8-17.4,16.2c-2.3,14.5,6.5,33.1,19.2,40.3c10.5,6,20.5,4.2,27.6-5.4c4.1-5.5,8.1-11.1,11.5-17.1
		c7.6-13.3,2.8-26.4-11.8-31.5C2202.8,265.9,2196.6,265.4,2190.6,264.2L2190.6,264.2z"/>
	<path style="clip-path:url(#SVGID_00000028290197559514781330000016672397341069052345_);" d="M2039.7,367.1
		c-11.2,0.3-21-2.3-30.3-6.6c-26.2-12.3-34.8-49.1-16.7-72.1c5.8-7.4,13.3-11.3,23-10.7c3.9,0.3,7.8,0,11.7-0.4
		c19.3-2.2,40.4,8.6,49.5,25.7c1.5,2.8,2.6,6.1,2.7,9.3c0.8,15.9-3.3,30.4-13.1,43.2C2059.5,364.8,2050.1,368.2,2039.7,367.1
		L2039.7,367.1z M2001.5,317.4c0.4,16.1,6.7,24.2,22.8,29.3c20.1,6.4,28.2,2.7,36.1-16.6c4.5-11,1.4-21.8-8.3-28.7
		c-9.7-6.9-20.6-9.9-32.4-9.6c-8.6,0.3-13.4,3.9-15.8,12.1C2002.6,308.3,2002.2,313,2001.5,317.4L2001.5,317.4z"/>
	<path style="clip-path:url(#SVGID_00000028290197559514781330000016672397341069052345_);" d="M2120.4,370.2
		c-5.1-1.6-10.3-2.7-14.9-4.8c-9.3-4.4-10.2-11.7-2.7-18.5c6.7-6,14.8-8.4,23.5-8.6c9.7-0.3,14.4,5.6,13,15.2
		c-1.7,12,1,22.4,10.7,30.4c2,1.7,3.6,3.8,5.1,5.9c3,4.5,2.8,8.9-0.2,11.6c-3,2.7-7.8,2.7-11.5-0.9c-2.3-2.2-3.9-5.2-6.5-8.7
		c-2.8,3.9-4.3,5.9-5.8,7.9c-1.7,2.4-3.2,5-5.3,7.1c-3.7,3.8-8,4.4-11.5,1.8c-3.9-2.9-5.4-7-3.4-11.3c2.2-4.7,4.7-9.5,8.1-13.3
		C2123.1,379.3,2124,375.1,2120.4,370.2L2120.4,370.2z"/>
	<path style="clip-path:url(#SVGID_00000028290197559514781330000016672397341069052345_);" d="M2184.8,287.3
		c0.5-1.5,0.9-4.2,2.2-6.4c2-3.3,5.3-3.9,8.5-1.8c6.3,3.9,10.1,14.4,8.2,21.6c-1.2,4.5-3.4,7.9-8.5,8.2c-4.2,0.2-7.3-2.7-8.6-8
		c-0.5-1.9-0.5-3.9-0.8-5.8C2185.6,292.9,2185.2,290.6,2184.8,287.3L2184.8,287.3z"/>
	<path style="clip-path:url(#SVGID_00000028290197559514781330000016672397341069052345_);" d="M2022.1,320.8
		c0.5-1.2,1.3-4.9,3.3-7.6c3.6-4.8,10.1-4.8,13.3,0.2c2.9,4.6,5.3,9.9,6.3,15.2c1.5,8.3-5.1,12.8-12.8,9.4
		C2024.1,334.4,2021.8,331.1,2022.1,320.8z"/>
	<path style="clip-path:url(#SVGID_00000028290197559514781330000016672397341069052345_);" d="M1274.7,887.6c14.1-3.6,27-7.1,40-10
		c8.3-1.8,16.8-3,25.3-3.7c12.5-1.2,18.9,6,15.6,18.1c-2.3,8.5-6,16.6-9.4,24.8c-5.5,13.3-11.5,26.5-16.8,39.9
		c-2.5,6.4-3.9,12.9-1.1,20.1c1.4,3.6,0.2,8.3,0.2,13.2c14.6-4.1,28.9-8.1,43.3-12.1c2-10.5,4.1-20.8,6-31
		c3.4-18.6,10.2-35.9,20.4-51.9c16-24.9,32.8-49.2,54.8-69.3c17-15.4,34.2-31.1,57.4-36.7c7.9-1.9,16.1-2.9,24.2-2.8
		c5,0,10.4,2,14.8,4.5c12.4,7,15.5,18.6,8.5,31c-2.2,3.9-5,7.9-8.3,10.9c-11.3,10.5-22.8,20.7-34.5,30.7
		c-10,8.5-20.4,16.4-30.5,24.8c-8.4,7.1-15,15.8-19.3,25.8c-6.3,14.7-12,29.8-17.3,44.9c-1.7,4.7-1.4,10.1-2,16.1
		c12.9,2.3,24.8,4.5,36.6,6.6c8.7,1.6,17.5,2.8,26.1,4.6c10,2.1,18,7.7,24.3,15.7c6.1,7.7,6.4,14.4,1.2,22.6
		c-1.2,1.9-2.6,3.8-4.2,5.4c-15.8,15.7-33.1,28.9-55.3,34.3c-5.7,1.4-11.3,3.3-17.6,5.1c0,19.2,0,38.1,0,57c1.1,0.2,2.1,0.7,3,0.6
		c21.4-3.1,41.6,2.5,62,7.9c18.7,4.9,30.8,18.2,42.3,32.1c2.6,3.1,4.1,9,3.1,12.8c-4,16.3-9.1,32.6-24.3,42.4
		c-5.1,3.3-11.1,6.2-17,7.3c-10.9,2-22.1,3.2-33.2,3.7c-29.5,1.4-59,2.1-88.5,3.4c-6.2,0.3-12.3,1.7-18.4,3
		c-20.8,4.4-41.6,9-62.5,13.4c-23.1,4.9-46.1,10.1-69.4,14.2c-17.1,3-34.4,4.8-51.6,6.9c-20.8,2.5-41.7,4.8-62.5,7
		c-16.3,1.7-32.6,2.9-48.9,4.6c-4.8,0.5-9.7,1.6-14.1,3.5c-14.1,5.8-28.7,9.6-43.9,9.9c-7.8,0.1-15.8-0.6-23.3-2.5
		c-22.2-5.6-34.2-26.3-27.9-48.5c2.3-8.5,6.3-16.5,10-24.5c4.3-9.2,9.1-18.1,14.2-28c-3.1-2.6-5.9-5.3-9.1-7.3
		c-13.1-8.5-24-19.3-33.6-31.5c-9.4-12-20.5-21.9-33.2-30.4c-11.1-7.5-21.3-16.3-31.7-24.9c-5.5-4.5-11.4-5.5-18.3-5.2
		c-12.4,0.4-25,0.8-37.3-0.2c-29.5-2.3-44.4-27-33.7-54.8c5.4-13.9,14.7-25.1,27.1-32.8c30.9-19.2,64.2-32.7,100.1-39.2
		c1.2-0.2,2.3-0.8,4.2-1.4c-1.1-3.1-1.8-5.9-2.9-8.5c-8.3-20.4-12.3-41.4-10.6-63.5c0.8-10.5-0.2-21.2,2-31.3
		c7-32.1,22.2-59.3,49.6-78.8c14.7-10.5,29.3-21,46.3-27.6c12-4.7,24.3-7.7,37.4-7c8.5,0.4,17,0.1,25.6,0.2c3.7,0,6.7-0.8,9.7-3.6
		c27.7-25.4,61.3-40.1,96.3-51.7c15.4-5.1,26.1,3.5,25.5,19.7c-0.2,6.1-1.9,12.3-3.6,18.3c-6,19.8-12.3,39.5-18.5,59.1
		c-3.1,9.9-2.6,9.6,4.8,16.7c18.4,17.7,36.4,35.9,54.3,54.1c3.9,3.9,6.5,9,9.8,13.5C1269.6,880.8,1272.3,884.4,1274.7,887.6
		L1274.7,887.6z M1369.6,995.5c-8,1.4-14.7,2.4-21.4,3.6c-7,1.3-14,2.7-21.2,4.1c-1.1,5.7-2.6,10.8-3,16
		c-1.3,17.5-10.5,31.1-22.7,42.2c-26.4,23.9-57.7,38.8-92.5,45.3c-24.1,4.5-48.4,10-72.8,0.8c-1.5-0.6-3.3-0.4-4.8-0.9
		c-8.7-2.7-17.8-4.5-26.1-8.3c-22.3-10.2-45.6-18.6-64.8-34.7c-0.8-0.6-1.7-1-2.6-1.4c-17.1-7.8-32.2-18.6-47.3-29.7
		c-12.6-9.3-24.5-19.2-32-32.8c-6.1-11.3-14.5-12.6-25.2-10.5c-2.6,0.5-5.2,0.8-7.6,1.7c-20.7,8.1-41.7,15.8-61.9,24.9
		c-9.4,4.2-17.8,11.1-26.1,17.3c-7.1,5.3-11.3,12.9-11.7,21.9c-0.6,17.6,6,21.7,18.4,21.9c13.4,0.3,26.9,0.3,40.3-0.2
		c8.6-0.3,16.1,1.7,22.9,7c11.2,9,22.1,18.7,34.1,26.6c15.4,10.1,27.6,22.9,39.5,36.6c7.2,8.3,15.9,15.4,24.2,22.9
		c3.4,3.1,7.4,5.4,11,8.3c11.4,9.2,12.7,15,6.3,28.1c-4.8,9.7-10.1,19.2-14.8,28.9c-2.7,5.6-5.3,11.4-6.9,17.3
		c-3.5,13.2,2.4,22.9,15.4,25.8c5.7,1.3,11.7,1.7,17.5,1.5c12.9-0.4,25.1-4,37.2-8.7c6-2.3,12.5-3.8,18.9-4.5
		c22.1-2.4,44.4-3.4,66.4-7.1c14.8-2.5,30-2.9,45-4.7c16.9-2,33.9-3.7,50.6-6.8c27.1-4.9,54-10.6,81-16.2c14.5-3,28.8-6.5,43.2-9.4
		c10.6-2.1,21.2-4.7,31.9-5.3c28.5-1.6,57-2,85.5-3.3c9.5-0.4,18.9-1.6,28.3-2.9c6.7-0.9,12.8-4.3,16.5-9.9
		c4.1-6.2,6.9-13.4,9.7-20.3c0.7-1.7,0-5-1.3-6.2c-8.2-7.9-15.1-17.3-26.9-20.8c-21.2-6.3-42.5-11.4-64.8-7.3
		c-1.6,0.3-3.3,0.4-4.9,0.4c-10.2,0-15.7-5.5-13.8-15.6c3.8-20.6,1.8-41.2,1.4-61.8c-0.2-11.3,2.1-15.1,13.2-18.5
		c8.8-2.7,17.6-5.1,26.4-7.7c15.6-4.7,27.2-15.5,38.8-26.1c1.1-1,1.4-2.8,2-4c-6.3-7-8.3-8.5-17.7-10.2c-16.1-3-32.3-5.8-48.5-8.6
		c-2.1-0.4-4.3,0-6.7,0c-0.5,2.6-1.2,4.4-1.3,6.4c-1.2,16.7-7,31.8-14.4,46.6c-4.8,9.8-11.7,17.3-20.5,23.3
		c-8.4,5.6-15.9,5.7-23.5-1c-13.3-11.8-22.3-25.7-19.3-44.8C1367.7,1015.8,1368.3,1006.6,1369.6,995.5L1369.6,995.5z M1201.3,715.3
		c-0.7-0.6-1.4-1.1-2.1-1.7c-9.7,3.7-20.1,6.3-29.1,11.3c-19.7,11-38.7,23.3-58,35c-2.8,1.7-5.7,3.7-8.8,4.1
		c-13.3,1.7-26.7,3.4-40.1,4.1c-10.3,0.5-20.1,2.5-29.6,6.3c-22.1,8.7-40.4,23.1-57.5,39c-6.3,5.9-11,13.9-15.4,21.4
		c-16.6,28.1-16.4,58.9-12.6,89.8c2.6,21.1,12,40.2,22.2,58.6c7.2,12.9,17.1,23.7,29.4,32.6c15.7,11.4,31.4,22.5,48.9,30.9
		c6.1,3,11.4,7.8,17.2,11.4c6.1,3.7,12.4,7.3,18.9,10.5c9.4,4.6,19.2,8.5,28.7,13c15.7,7.3,32.8,8.7,49.5,12.1
		c3.1,0.6,6.5-0.2,9.8-0.6c4.5-0.5,9.1-1.3,13.6-1.8c35.9-4.4,68.7-15.9,97.2-39.2c10.1-8.2,16.8-17.6,19-29.9
		c2.4-13.9,4.6-27.9,4.8-42c0.2-12.8,2.5-24.8,7.1-36.4c5.1-12.8,11.1-25.2,16.6-37.8c1.8-4.1,3.3-8.3,5.6-13.8
		c-6.7,0.7-11.9,1.1-17,1.8c-15.2,2.4-30.5,4.7-45.6,7.6c-7.3,1.4-12.6-0.6-17.4-6.1c-15-16.9-30.1-33.8-45.5-50.4
		c-6.2-6.7-13.1-12.8-19.7-19.1c-2.8-2.7-5.9-5.2-8.6-8.1c-7.2-7.8-7.9-17.1-4.9-26.7c6.8-21.2,13.9-42.3,20.8-63.5
		C1199.9,723.6,1200.5,719.4,1201.3,715.3L1201.3,715.3z M1499.5,850.4c0.3,0.3,0.6,0.7,0.9,1c11.3-10,22.7-19.8,33.7-30.1
		c3.6-3.3,9.7-7.3,6.7-12.8c-2.9-5.4-9.8-4.4-15.3-3.6c-12.2,1.7-23.2,6.4-33.4,13.3c-28.7,19.5-50.4,45.6-69.8,73.8
		c-5.8,8.4-10.1,17.3-14.3,26.7c-15.6,34.8-19.7,71.9-22.7,109.1c-0.6,7.2,1.5,15,3.8,22c2.7,8.1,9,9.4,15.4,3.9
		c3.1-2.7,6-6.2,7.6-10c9.3-21.5,14.9-43.9,15-67.6c0-7.5,0.6-15.3,2.9-22.3c5.1-15.5,10.8-30.9,17.3-45.9c6-13.9,15.1-26,26.8-35.9
		C1482.5,864.8,1491,857.6,1499.5,850.4L1499.5,850.4z"/>
	<path style="clip-path:url(#SVGID_00000028290197559514781330000016672397341069052345_);" d="M1159.8,1015.1
		c-8.6-10.6-11.2-22.1-9.4-34.7c1.5-10.5,5.3-20.3,11.2-29.1c11.3-16.8,35.3-24.4,54.1-16.9c4.3,1.7,8.6,5.1,11.2,8.9
		c5.4,7.8,9.7,16.3,14.3,24.5c1.3,2.3,2.1,4.8,2.9,7.3c8.7,27.4-5,48.6-33.6,51.8c-8.4,0.9-17,1.2-25.5,1.1
		C1174.3,1028.1,1165.2,1024.2,1159.8,1015.1L1159.8,1015.1z M1220.4,963.6c-0.2,0.1-0.5,0.2-0.7,0.2c-2.3-2.7-4.4-5.7-7-8.2
		c-6.8-6.4-16.1-8-23.4-4.1c-13,6.9-22.4,25.1-20.5,39.6c1.6,12,9.1,18.9,21,18.7c6.9-0.1,13.8-0.3,20.5-1.2
		c15.2-2,22.7-13.7,18-28.5C1226.4,974.5,1223.1,969.2,1220.4,963.6L1220.4,963.6z"/>
	<path style="clip-path:url(#SVGID_00000028290197559514781330000016672397341069052345_);" d="M1047.2,905.6
		c-7-8.8-10.9-18.1-13-28.1c-6-28.3,18.2-57.4,47.3-56.8c9.4,0.2,17,3.8,22.4,11.9c2.1,3.3,4.7,6.3,7.4,9.1
		c13.4,14.1,17.6,37.4,9.3,55c-1.4,2.9-3.3,5.8-5.8,7.8c-12.2,10.3-26.3,15.7-42.3,15.7C1061.1,920,1052.7,914.5,1047.2,905.6
		L1047.2,905.6z M1063.8,845.1c-12.5,10-15.3,19.9-9.6,35.9c7,19.9,14.9,24.2,35,18.7c11.4-3.1,18.3-12,17.9-23.9
		c-0.3-11.9-4.5-22.4-11.9-31.6c-5.4-6.7-11.2-8.3-19.2-5.3C1071.7,840.5,1067.8,843,1063.8,845.1L1063.8,845.1z"/>
	<path style="clip-path:url(#SVGID_00000028290197559514781330000016672397341069052345_);" d="M1093.5,971.7
		c-1.8-5-4.1-9.8-5.1-14.8c-2.1-10.1,3.2-15.2,13.1-13.3c8.8,1.7,15.6,6.8,21,13.5c6.1,7.6,4.2,14.8-4.2,19.5
		c-10.6,5.9-17.3,14.3-17.8,26.9c-0.1,2.6-0.8,5.2-1.7,7.6c-1.8,5.1-5.4,7.6-9.4,6.8c-4-0.8-6.8-4.6-6.3-9.7c0.3-3.2,1.7-6.3,3-10.5
		c-4.8,0.1-7.3,0.1-9.8,0.1c-3,0-5.9,0.5-8.8,0.1c-5.3-0.7-8.3-3.7-8.4-8.1c-0.1-4.8,2.3-8.5,7-9.5c5.1-1.1,10.4-2,15.5-1.6
		C1087.9,979.4,1091.7,977.6,1093.5,971.7z"/>
	<path style="clip-path:url(#SVGID_00000028290197559514781330000016672397341069052345_);" d="M1198.5,973c1.5-0.5,3.9-1.8,6.4-2.1
		c3.8-0.4,6.3,1.9,6.6,5.7c0.6,7.4-5.3,16.7-12.3,19.6c-4.3,1.7-8.3,2.1-11.7-1.8c-2.7-3.2-2.3-7.4,1.2-11.6
		c1.2-1.5,2.8-2.8,4.2-4.2C1194.5,977.1,1196.1,975.5,1198.5,973L1198.5,973z"/>
	<path style="clip-path:url(#SVGID_00000028290197559514781330000016672397341069052345_);" d="M1073.5,863.6
		c1.3-0.3,4.7-1.9,8.1-1.9c6,0,10,5.2,7.9,10.7c-1.9,5.1-4.7,10.2-8.3,14.2c-5.7,6.3-13.3,3.7-15.2-4.5
		C1064,873.4,1065.2,869.5,1073.5,863.6L1073.5,863.6z"/>
	<path style="clip-path:url(#SVGID_00000028290197559514781330000016672397341069052345_);" d="M114,2223.6
		c5.7-13.3,10.6-25.8,16.2-37.9c3.6-7.7,7.8-15.2,12.3-22.4c6.6-10.7,16.1-11.4,23.8-1.5c5.4,7,9.6,14.8,14.1,22.5
		c7.3,12.4,14.2,25.1,21.6,37.5c3.6,5.9,8,10.9,15.3,13c3.8,1.1,6.7,4.8,10.6,7.8c5.5-14.1,11-27.9,16.5-41.8
		c-7.1-8-14.1-15.8-21.1-23.6c-12.8-14-22.5-29.8-29-47.6c-10.2-27.8-19.5-55.9-22.1-85.5c-2.1-22.8-4.1-46,5.4-67.9
		c3.2-7.4,7.5-14.6,12.4-21c3-3.9,7.9-7.1,12.5-9.2c13-5.7,24.2-1.1,29.8,11.9c1.8,4.2,3.3,8.7,3.7,13.2c1.5,15.3,2.8,30.7,3.7,46
		c0.8,13.1,0.8,26.2,1.4,39.3c0.6,11,3.6,21.5,9,31c7.9,13.9,16.5,27.6,25.4,40.9c2.8,4.2,7.3,7.2,11.6,11.3
		c9.6-8.9,18.5-17,27.4-25.2c6.5-6,12.8-12.2,19.5-18c7.7-6.7,17-9.7,27.2-9.9c9.8-0.2,15.4,3.6,18.7,12.7c0.8,2.1,1.5,4.4,1.8,6.6
		c3,22,3.1,43.8-6,64.8c-2.3,5.4-4.2,10.9-6.5,17.1c15.4,11.6,30.4,23,45.5,34.4c0.9-0.8,1.9-1.3,2.3-2.1
		c10.5-18.9,27.1-31.7,43.7-44.7c15.2-12,33.1-13.6,51.1-14.3c4.1-0.2,9.6,2.1,12.1,5.2c10.6,13,20.5,26.9,19.1,45
		c-0.5,6.1-1.7,12.6-4.4,17.9c-5,9.9-10.8,19.5-17.1,28.7c-16.7,24.3-33.9,48.3-50.7,72.6c-3.5,5.1-6.1,10.8-8.7,16.5
		c-9.1,19.3-17.9,38.6-27,57.9c-10.1,21.4-19.8,42.9-30.6,63.9c-7.9,15.4-16.9,30.3-25.7,45.3c-10.6,18.1-21.3,36.1-32.2,54.1
		c-8.5,14-17.4,27.8-25.9,41.8c-2.5,4.1-4.5,8.7-5.8,13.3c-3.9,14.8-9.6,28.7-18.6,41c-4.6,6.3-10,12.3-16.1,17.1
		c-17.9,14.3-41.6,11.4-55.5-7c-5.3-7-9.4-15-13.5-22.8c-4.7-8.9-8.9-18.2-13.8-28.2c-3.9,0.9-7.8,1.5-11.3,2.8
		c-14.7,5.3-29.9,7.5-45.4,7.8c-15.2,0.3-29.8,3.1-44.3,8.1c-12.6,4.4-25.9,7.2-38.9,10.2c-6.9,1.6-11.3,5.8-15.2,11.4
		c-7.2,10.1-14.4,20.4-22.7,29.7c-19.6,22.1-48.3,19.2-64.1-6.2c-7.9-12.7-11.1-26.8-9.8-41.4c3.3-36.2,12.7-70.9,29.2-103.5
		c0.5-1.1,0.8-2.3,1.5-4.2c-3.1-1.1-5.8-2.1-8.6-2.9c-21.3-5.6-40.4-15.2-57-29.8c-7.9-6.9-17-12.7-23.7-20.5
		c-21.3-24.9-33.9-53.4-32.9-87.2c0.5-18.1,1-36,6-53.6c3.5-12.4,8.5-24,17-34.1c5.5-6.5,10.4-13.6,15.6-20.3c2.3-3,3.4-5.9,3-9.9
		c-3.5-37.4,5-73.1,17-108c5.3-15.4,18.6-18.7,31.1-8.5c4.8,3.9,8.7,8.9,12.3,13.9c12.2,16.7,24,33.6,36,50.5
		c6,8.5,6.1,7.8,16.2,6.3c25.2-4,50.6-7.4,75.9-10.7c5.5-0.7,11.1,0.2,16.7,0.3C105.4,2223.7,110,2223.6,114,2223.6L114,2223.6z
		 M257.3,2213.1c-3.7,7.2-7,13.2-10,19.2c-3.2,6.4-6.3,12.8-9.5,19.4c3.9,4.3,7,8.6,10.9,12c13.2,11.6,18.5,27.1,19.9,43.6
		c3.1,35.4-3.9,69.4-19.8,101.1c-11,21.9-21.2,44.7-43.3,58.5c-1.4,0.8-2.3,2.4-3.6,3.3c-7.4,5.4-14.4,11.5-22.3,15.8
		c-21.6,11.6-42.4,25.1-66.8,30.7c-0.9,0.2-1.8,0.7-2.7,1.2c-16.5,9-34.3,14.5-52.3,19.8c-15,4.5-30.1,8-45.5,5.7
		c-12.7-1.9-18.8,3.9-23.6,13.8c-1.1,2.3-2.5,4.7-3.2,7.2c-6,21.4-12.6,42.8-17.5,64.4c-2.3,10.1-1.9,20.9-2,31.3
		c0,8.9,3.5,16.9,10.5,22.5c13.6,11.1,20.9,8.3,28.6-1.5c8.3-10.5,16.5-21.2,24.2-32.2c5-7,11.1-11.9,19.5-14
		c14-3.5,28.2-6.3,41.7-11.1c17.3-6.2,34.9-8.2,53-9.4c11-0.8,21.9-3.4,32.8-5.5c4.5-0.9,8.8-2.7,13.3-3.8
		c14.2-3.6,19.7-1.1,26.2,12c4.8,9.7,9.2,19.6,14.1,29.2c2.8,5.5,5.8,11.1,9.6,16c8.4,10.7,19.7,12,29.9,3.3
		c4.5-3.8,8.4-8.3,11.8-13.1c7.5-10.5,12-22.5,15.5-34.9c1.8-6.2,4.5-12.3,7.9-17.8c11.4-19.1,24.1-37.4,34.4-57.3
		c7-13.3,15.8-25.7,23.4-38.7c8.6-14.7,17.5-29.3,25.2-44.5c12.5-24.5,24.2-49.5,36-74.4c6.4-13.3,12.2-26.9,18.6-40.1
		c4.7-9.7,9-19.8,15-28.6c15.9-23.7,32.8-46.7,49-70.2c5.4-7.8,10.1-16.1,14.8-24.4c3.3-5.9,4.3-12.9,2.1-19.1
		c-2.5-7-6.5-13.6-10.4-20c-0.9-1.6-4-3-5.8-2.7c-11.2,1.7-22.9,1.6-32.8,8.9c-17.8,13.1-34.7,27-45,47.3c-0.7,1.4-1.7,2.8-2.7,4.2
		c-6.1,8.1-13.8,9.2-20.8,1.6c-14.1-15.5-31.7-26.4-48.4-38.5c-9.2-6.7-10.8-10.8-6.8-21.7c3.2-8.6,6.6-17.1,9.8-25.7
		c5.7-15.3,4-31,2.7-46.7c-0.1-1.4-1.4-2.8-2-4c-9.4,0.7-11.7,1.5-18.8,7.9c-12.1,11-24.1,22.2-36.1,33.4c-1.6,1.4-2.7,3.4-4,5.3
		c1.7,2,2.8,3.6,4.3,4.9c12.6,11,21.1,24.8,28.5,39.7c4.9,9.8,6.8,19.8,6.2,30.4c-0.6,10-5,16.1-14.9,18.1
		c-17.4,3.6-33.9,2.3-47.4-11.6C272.3,2226.9,265.4,2220.8,257.3,2213.1L257.3,2213.1z M-67.7,2178.1c-0.9,0.2-1.7,0.5-2.7,0.7
		c-2.9,10-7.1,19.8-8.6,30c-3.1,22.3-4.8,44.9-7.1,67.4c-0.3,3.2-0.5,6.8-2.1,9.5c-6.7,11.7-13.4,23.3-20.9,34.4
		c-5.8,8.6-10.1,17.6-12.9,27.4c-6.4,22.9-6,46.2-3.6,69.4c0.9,8.6,4.4,17.1,7.8,25.2c12.4,30.2,37.1,48.6,64,64.3
		c18.4,10.7,39.3,14.8,60.1,17.7c14.6,2.1,29.2,0.7,43.7-3.8c18.6-5.7,36.9-11.5,54.2-20.4c6.1-3.1,13-4.4,19.5-6.9
		c6.7-2.6,13.3-5.5,19.7-8.7c9.3-4.8,18.4-10.1,27.6-15c15.3-8.1,26.7-20.9,39.5-32.1c2.4-2.1,3.7-5.3,5.4-8.2c2.3-3.9,4.5-8,6.8-12
		c18.1-31.3,28.8-64.4,27.4-101.1c-0.5-13-3.9-24-12.4-33.2c-9.6-10.3-19.5-20.5-30.5-29.2c-10-7.9-18.3-16.9-24.7-27.7
		c-7.1-11.8-13.4-24.1-20.1-36.1c-2.2-3.9-4.6-7.7-7.6-12.8c-3.5,5.8-6.4,10.1-8.8,14.7c-7.3,13.6-14.7,27.1-21.5,40.9
		c-3.3,6.7-8.1,9.7-15.4,10.3c-22.6,1.7-45.1,3.6-67.6,5.8c-9.1,0.9-18.1,2.7-27.2,4.2c-3.9,0.6-7.7,1.6-11.6,2
		c-10.6,1-18.4-4-24.2-12.2c-12.8-18.2-25.3-36.7-38.1-54.9C-62,2184.3-65,2181.3-67.7,2178.1L-67.7,2178.1z M220,2021.9
		c0.5,0,0.9-0.1,1.3-0.1c-1.1-15-2-30.1-3.6-45c-0.5-4.8,0.1-12.1-6.1-13.1c-6.1-0.9-9.5,5.1-12.1,10c-6,10.8-8.9,22.3-9.5,34.7
		c-1.7,34.7,5.9,67.7,16.7,100.2c3.2,9.6,7.7,18.5,12.6,27.5c18.3,33.5,45.4,59.1,73.3,84c5.4,4.8,12.8,7.8,19.8,10.2
		c8,2.7,12.9-1.4,12.4-9.9c-0.3-4.1-1.4-8.5-3.4-12.1c-11.6-20.4-26-38.4-44.9-52.7c-5.9-4.5-11.8-9.7-16-15.8
		c-9.3-13.4-18.1-27.3-26.2-41.5c-7.5-13.2-11.6-27.8-12.4-43.1C221.2,2044.1,220.6,2033,220,2021.9L220,2021.9z"/>
	<path style="clip-path:url(#SVGID_00000028290197559514781330000016672397341069052345_);" d="M146.3,2392.2
		c-13.6,0.4-24.4-4.4-33.3-13.5c-7.5-7.6-13-16.5-16.4-26.5c-6.5-19.2,1.8-42.9,19.2-53.3c4-2.4,9.2-3.8,13.9-3.6
		c9.4,0.4,18.9,2,28.2,3.4c2.6,0.4,5.1,1.3,7.6,2.1c27.1,9.6,35.8,33.3,21,58.1c-4.4,7.3-9.3,14.2-14.5,21
		C165.4,2388.5,156.8,2393.4,146.3,2392.2L146.3,2392.2z M141.9,2312.9c-0.1,0.2-0.1,0.5-0.2,0.7c-3.6,0.2-7.2,0.1-10.8,0.7
		c-9.2,1.5-16.1,8-17.4,16.2c-2.3,14.5,6.5,33.1,19.2,40.3c10.5,6,20.5,4.2,27.6-5.4c4.1-5.5,8.1-11.1,11.5-17.1
		c7.6-13.3,2.8-26.4-11.8-31.5C154.2,2314.6,147.9,2314.1,141.9,2312.9z"/>
	<path style="clip-path:url(#SVGID_00000028290197559514781330000016672397341069052345_);" d="M-9,2415.8
		c-11.2,0.3-21-2.3-30.3-6.6c-26.2-12.3-34.8-49.1-16.7-72.1c5.8-7.4,13.3-11.3,23-10.7c3.9,0.3,7.8,0,11.7-0.4
		c19.3-2.2,40.4,8.6,49.5,25.7c1.5,2.8,2.6,6.1,2.7,9.3c0.8,15.9-3.3,30.4-13.1,43.2C10.9,2413.4,1.4,2416.8-9,2415.8L-9,2415.8z
		 M-47.2,2366.1c0.4,16.1,6.7,24.2,22.8,29.3c20.1,6.4,28.2,2.7,36.1-16.6c4.5-11,1.4-21.8-8.3-28.7c-9.7-6.9-20.6-9.9-32.4-9.6
		c-8.6,0.3-13.4,3.9-15.8,12.1C-46.1,2357-46.5,2361.6-47.2,2366.1L-47.2,2366.1z"/>
	<path style="clip-path:url(#SVGID_00000028290197559514781330000016672397341069052345_);" d="M71.7,2418.9
		c-5.1-1.6-10.3-2.7-14.9-4.8c-9.3-4.4-10.2-11.7-2.7-18.5c6.7-6,14.8-8.4,23.5-8.6c9.7-0.3,14.4,5.6,13,15.2
		c-1.7,12,1,22.4,10.7,30.4c2,1.7,3.6,3.8,5.1,5.9c3,4.5,2.8,8.9-0.2,11.6c-3,2.7-7.8,2.7-11.5-0.9c-2.3-2.2-3.9-5.2-6.5-8.7
		c-2.9,3.9-4.3,5.9-5.8,7.9c-1.7,2.4-3.2,5-5.3,7.1c-3.7,3.8-8,4.4-11.5,1.8c-3.9-2.9-5.4-7-3.4-11.3c2.2-4.7,4.7-9.5,8.1-13.3
		C74.4,2428,75.3,2423.8,71.7,2418.9L71.7,2418.9z"/>
	<path style="clip-path:url(#SVGID_00000028290197559514781330000016672397341069052345_);" d="M136.1,2336c0.5-1.5,0.9-4.2,2.2-6.4
		c2-3.3,5.3-3.9,8.5-1.8c6.3,3.9,10.1,14.4,8.2,21.6c-1.2,4.5-3.4,7.9-8.5,8.2c-4.2,0.2-7.3-2.7-8.6-8c-0.5-1.9-0.5-3.9-0.8-5.8
		C136.9,2341.6,136.6,2339.3,136.1,2336L136.1,2336z"/>
	<path style="clip-path:url(#SVGID_00000028290197559514781330000016672397341069052345_);" d="M-26.6,2369.5
		c0.5-1.2,1.3-4.9,3.3-7.6c3.6-4.8,10.1-4.8,13.3,0.2c2.9,4.6,5.3,9.9,6.3,15.2c1.5,8.3-5.1,12.8-12.8,9.4
		C-24.6,2383.1-26.9,2379.8-26.6,2369.5L-26.6,2369.5z"/>
	<path style="clip-path:url(#SVGID_00000028290197559514781330000016672397341069052345_);" d="M142.3,1333.1
		c0.8,4.7,1.6,9.4,2.4,14.4c3.2,0,5.8,0,8.3,0c3.6,0.1,7.2,0,10.8,0.4c4.7,0.5,8.1,2.9,8.6,7.9c0.5,4.3-3,8.2-8.4,9.3
		c-2.5,0.5-5.2,0.4-7.8,0.4c-2.9,0.1-5.8,0-9.2,0c-2,7.7-0.4,14.9,0.7,23.1c4-0.7,7.4-1.6,10.9-1.8c6.2-0.4,12.4-1.1,18.5-0.4
		c4.8,0.5,7.6,4.9,7.3,9.1c-0.4,4.5-3.1,7.3-7.4,8.1c-10.6,2.1-21.2,4.3-31.9,5.8c-10,1.4-16.1-3.8-16.8-14.5
		c-0.8-12.7-0.7-25.5-1.2-38.3c-0.2-6.9-0.3-13.8-1.4-20.6c-1.1-6.4,1.4-10.7,5.8-14.6c11.7-10.2,25.8-12.2,40.5-11.8
		c5,0.1,8.3,3.9,8.5,8c0.2,4.6-2.3,7.7-6.4,8.8c-4.4,1.1-9,1.4-13.6,1.7C154.2,1328.5,148,1328.7,142.3,1333.1L142.3,1333.1z"/>
	<path style="clip-path:url(#SVGID_00000028290197559514781330000016672397341069052345_);" d="M144.1,972.8
		c8.3-14.3,8.3-28.7,5.3-43.4c-0.5-2.2-1.5-4.3-1.9-6.6c-0.7-4.3,0.6-7.8,4.6-9.9c4.1-2.1,7.8-1,10.7,2.1c1.9,2.1,3.7,4.8,4.4,7.5
		c5,19.3,4.6,38.4-4.5,56.5c-7.4,14.7-17.2,17.3-31.4,8.9C111.4,976,96.9,960.2,95,936.1c-0.5-7,0.5-14.3,1.7-21.3
		c0.8-4.4,3.9-7.6,9.1-7.3c4.1,0.3,6.3,3.3,6.7,9.4c0.2,2.3,0,4.6-0.1,6.9C111.8,946.6,123,962,144.1,972.8L144.1,972.8z"/>
	<path style="clip-path:url(#SVGID_00000028290197559514781330000016672397341069052345_);" d="M146.9,765.3c-3.2-2-5.5-3.1-7.4-4.6
		c-5.4-4.3-10.8-3.9-16.4-0.8c-12,6.6-19.8,22.4-17.2,35.9c0.6,3,2.5,6.1,4.7,8.3c9.2,9.2,22.8,9.2,32.3,0.3
		c2.6-2.5,5.1-5.2,7.9-7.4c3.7-3,7.8-3.4,11.8-0.5c3.6,2.7,4.8,8.3,1.5,12.4c-8.6,10.8-17.4,22-33.2,21.6
		c-17.3-0.5-32.1-6.4-41-22.5c-1.4-2.5-2.6-5.5-2.9-8.3c-1.7-19.2,3.3-43.9,27.8-56.2c1.2-0.6,2.4-1.1,3.6-1.6
		C135.7,735.4,148,744.6,146.9,765.3L146.9,765.3z"/>
	<path style="clip-path:url(#SVGID_00000028290197559514781330000016672397341069052345_);" d="M145,1230.1
		c-1.2-12.5-2.4-23.9-3.5-35.5c-3.7-0.9-7.2-1.5-10.6-2.7c-5.6-1.8-8-5.3-7.5-10c0.6-4.7,4-7,10-7.3c5.1-0.3,10.3-1.2,15.4-1.9
		c4.5-0.6,9-1.6,13.6-1.9c4.6-0.3,8.4,1.5,9.9,6.3c1.3,4.3-0.9,8.3-6.1,11c-1.7,0.9-3.6,1.4-6.4,2.3c-0.2,10.9,0.6,21.7,4,32.6
		c4-0.2,7.3-0.7,10.5-0.5c6.2,0.3,10.3,4.2,10.6,9.5c0.3,5.6-3.2,8.6-9.8,9.9c-9.6,1.8-19.1,4.4-28.7,6.3c-3.7,0.7-7.8,0.9-11.5,0.3
		c-3.8-0.6-6.4-3.6-6.3-7.7c0-3.8,2.6-5.8,6-6.9C138,1232.8,141.3,1231.4,145,1230.1L145,1230.1z"/>
	<path style="clip-path:url(#SVGID_00000028290197559514781330000016672397341069052345_);" d="M134.8,1073.9
		c-2.8,0-5.4,0.7-7.3-0.2c-2.7-1.2-5.9-3.1-7.3-5.5c-2-3.6,0.1-7.4,3.6-9.1c6.1-3,12.4-6.4,19-7.5c8-1.4,16.3-0.9,24.5-0.6
		c6.4,0.2,9.9,3.8,10.1,8.6c0.2,5.2-3.6,9-10.3,9.5c-4.2,0.4-8.4,0.1-13.6,0.1c0,3.2-0.3,5.7,0.1,8.1c1.4,8.7,3,17.4,4.5,26.1
		c0.3,1.9,0.9,3.9,1,5.8c0.3,5.6-2.3,9.5-6.8,10.6c-4.5,1.1-8.6-1.3-10.6-6.5c-1.2-3-2-6.3-2.5-9.5
		C137.7,1094.1,136.3,1084.4,134.8,1073.9L134.8,1073.9z"/>
	<path style="clip-path:url(#SVGID_00000028290197559514781330000016672397341069052345_);" d="M489,618.5
		c0.3-15.8,7.2-27.5,14.7-39.1c3.8-5.8,8.7-8.5,15.6-8.8c9.5-0.4,17.8,1.6,24.5,8.9c4.2,4.6,9.4,8.4,13.4,13.1
		c11.1,13.2,13.9,29.5,12.4,45.6c-2.2,24.1-4.3,48.4-11,72c-3.3,11.7-10.6,20.9-17.3,30.4c-5.2,7.3-18.3,9.9-27.1,6.3
		c-8.3-3.5-16.4-7.4-24.2-11.9c-13.7-8-27-16.5-40.4-25c-13.9-9-24.2-21.8-31.3-36.3c-8.3-16.8-8.7-34.8-0.6-52.3
		c4.3-9.2,11.7-14.2,22-14.5c6.8-0.2,13.6-0.5,20.5-0.5c7.9,0,15.1,2.4,21.4,7C483.6,614.7,485.6,616.1,489,618.5L489,618.5z
		 M492.7,653.1c-1.7-10.6-7.1-17.7-14-23.8c-5.2-4.7-11.2-7.8-18.5-7.6c-6,0.2-12,0.5-18,0.7c-6,0.1-9.6,3.3-11.5,8.8
		c-3.9,11.7-3.7,23.6,1.4,34.4c5.4,11.3,12.9,21.9,23.6,29c16.6,11,33.7,21.3,50.7,31.7c3.7,2.3,8,3.6,12,5.2
		c4.5,1.7,9.4,1.4,11.9-2.7c4.8-7.9,11-14.8,13.5-24.2c5.9-22,7.9-44.7,10.1-67.2c2-20.1-6-36.8-23.3-48.4c-6.3-4.2-11.3-3.2-15.8,3
		c-9.8,13.2-11.9,27.9-8.9,43.6c1.2,6.1,2.9,12.2,4.1,18.3c1.1,5.1-1.3,9.2-5.6,10.4c-4,1.1-7.8-0.8-9.8-5.3
		C493.6,656.8,493.1,654.4,492.7,653.1L492.7,653.1z"/>
	<path style="clip-path:url(#SVGID_00000028290197559514781330000016672397341069052345_);" d="M1509.7,1771.4
		c0.2-13.1,6-22.7,12.2-32.3c3.1-4.8,7.1-7,12.9-7.3c7.9-0.4,14.7,1.3,20.2,7.3c3.5,3.8,7.8,6.9,11.1,10.8
		c9.2,10.9,11.4,24.3,10.2,37.6c-1.8,19.9-3.6,39.9-9,59.4c-2.7,9.7-8.8,17.2-14.3,25.1c-4.3,6.1-15.1,8.2-22.3,5.1
		c-6.8-2.9-13.6-6.1-20-9.8c-11.3-6.6-22.3-13.6-33.3-20.7c-11.5-7.4-19.9-18-25.8-29.9c-6.8-13.9-7.2-28.8-0.5-43.2
		c3.5-7.6,9.6-11.7,18.1-12c5.6-0.2,11.3-0.4,16.9-0.5c6.5,0,12.4,2,17.7,5.8C1505.3,1768.2,1506.9,1769.3,1509.7,1771.4
		L1509.7,1771.4z M1512.7,1799.9c-1.4-8.8-5.9-14.6-11.5-19.7c-4.3-3.9-9.3-6.4-15.3-6.3c-5,0.2-9.9,0.4-14.9,0.5
		c-5,0.1-7.9,2.7-9.5,7.2c-3.3,9.6-3.1,19.5,1.2,28.4c4.5,9.3,10.6,18,19.5,23.9c13.7,9.1,27.8,17.6,41.8,26.2c3,1.9,6.6,3,9.9,4.3
		c3.7,1.4,7.8,1.1,9.8-2.2c3.9-6.5,9.1-12.2,11.2-19.9c4.8-18.2,6.5-36.9,8.3-55.4c1.7-16.6-5-30.4-19.2-40
		c-5.1-3.5-9.3-2.6-13.1,2.4c-8.1,10.9-9.8,23-7.3,36c1,5.1,2.3,10.1,3.4,15.1c0.9,4.2-1.1,7.6-4.6,8.6c-3.3,0.9-6.4-0.7-8.1-4.4
		C1513.5,1803,1513,1801,1512.7,1799.9L1512.7,1799.9z"/>
	<path style="clip-path:url(#SVGID_00000028290197559514781330000016672397341069052345_);" d="M1796.1-56.7
		c6.4-4.6,13.6-7.1,21.4-7c6.8,0,13.6,0.3,20.5,0.5c10.3,0.3,17.7,5.3,22,14.5c8.1,17.5,7.6,35.5-0.6,52.3
		c-7.1,14.5-17.3,27.3-31.3,36.3c-13.3,8.6-26.7,17-40.4,25c-7.7,4.5-15.9,8.4-24.2,11.9c-8.8,3.7-21.9,1.1-27.1-6.3
		c-6.7-9.5-14.1-18.7-17.3-30.4c-6.6-23.6-8.8-47.9-11-72c-1.5-16.1,1.3-32.4,12.4-45.6c4-4.8,9.2-8.6,13.4-13.1
		c6.7-7.3,15-9.3,24.5-8.9c6.9,0.3,11.8,3,15.6,8.8c7.5,11.6,14.4,23.2,14.7,39.1C1792.1-53.9,1794.1-55.2,1796.1-56.7L1796.1-56.7z
		 M1783.2-10.9c-2,4.5-5.8,6.5-9.8,5.3c-4.3-1.2-6.6-5.3-5.6-10.4c1.3-6.1,3-12.2,4.1-18.3c3-15.7,1-30.4-8.9-43.6
		c-4.5-6.1-9.6-7.2-15.8-3c-17.3,11.6-25.3,28.2-23.3,48.4c2.2,22.5,4.2,45.1,10.1,67.2c2.5,9.4,8.8,16.3,13.5,24.2
		c2.4,4,7.4,4.4,11.9,2.7c4.1-1.6,8.3-3,12-5.2c17-10.4,34.1-20.7,50.7-31.7c10.7-7.1,18.2-17.7,23.6-29c5.2-10.8,5.4-22.7,1.4-34.4
		c-1.9-5.5-5.5-8.6-11.5-8.8c-6-0.1-12-0.5-18-0.7c-7.3-0.2-13.3,2.9-18.5,7.6c-6.8,6.1-12.3,13.2-14,23.8
		C1784.7-15.6,1784.1-13.2,1783.2-10.9L1783.2-10.9z"/>
	<path style="clip-path:url(#SVGID_00000028290197559514781330000016672397341069052345_);" d="M1796.1,1992
		c6.4-4.6,13.6-7.1,21.4-7c6.8,0,13.6,0.3,20.5,0.5c10.3,0.3,17.7,5.3,22,14.5c8.1,17.5,7.6,35.5-0.6,52.3
		c-7.1,14.5-17.3,27.3-31.3,36.3c-13.3,8.6-26.7,17-40.4,25c-7.7,4.5-15.9,8.4-24.2,11.9c-8.8,3.7-21.9,1.1-27.1-6.3
		c-6.7-9.5-14.1-18.7-17.3-30.4c-6.6-23.6-8.8-47.9-11-72c-1.5-16.1,1.3-32.4,12.4-45.6c4-4.8,9.2-8.6,13.4-13.1
		c6.7-7.3,15-9.3,24.5-8.9c6.9,0.3,11.8,3,15.6,8.8c7.5,11.6,14.4,23.2,14.7,39.1C1792.1,1994.8,1794.1,1993.4,1796.1,1992
		L1796.1,1992z M1783.2,2037.7c-2,4.5-5.8,6.5-9.8,5.3c-4.3-1.2-6.6-5.3-5.6-10.4c1.3-6.1,3-12.2,4.1-18.3c3-15.7,1-30.4-8.9-43.6
		c-4.5-6.1-9.6-7.2-15.8-3c-17.3,11.6-25.3,28.2-23.3,48.4c2.2,22.5,4.2,45.1,10.1,67.2c2.5,9.4,8.8,16.3,13.5,24.2
		c2.4,4,7.4,4.4,11.9,2.7c4.1-1.6,8.3-3,12-5.2c17-10.4,34.1-20.7,50.7-31.7c10.7-7.1,18.2-17.7,23.6-29c5.2-10.8,5.4-22.7,1.4-34.4
		c-1.9-5.5-5.5-8.6-11.5-8.8c-6-0.1-12-0.5-18-0.7c-7.3-0.2-13.3,2.9-18.5,7.6c-6.8,6.1-12.3,13.2-14,23.8
		C1784.7,2033.1,1784.1,2035.5,1783.2,2037.7L1783.2,2037.7z"/>
	<path style="clip-path:url(#SVGID_00000028290197559514781330000016672397341069052345_);" d="M744.1,1239.3
		c0.3-15.8,7.2-27.5,14.7-39.1c3.8-5.8,8.7-8.5,15.6-8.8c9.5-0.4,17.8,1.6,24.5,8.9c4.2,4.6,9.4,8.4,13.4,13.1
		c11.1,13.2,13.9,29.5,12.4,45.6c-2.2,24.1-4.3,48.4-11,72c-3.3,11.7-10.6,20.9-17.3,30.4c-5.2,7.3-18.3,9.9-27.1,6.3
		c-8.3-3.5-16.4-7.4-24.2-11.9c-13.7-8-27-16.5-40.4-25c-13.9-9-24.2-21.8-31.3-36.3c-8.3-16.8-8.7-34.8-0.6-52.3
		c4.3-9.2,11.7-14.2,22-14.5c6.8-0.2,13.6-0.5,20.5-0.5c7.9,0,15.1,2.4,21.4,7C738.6,1235.4,740.6,1236.8,744.1,1239.3L744.1,1239.3
		z M747.7,1273.9c-1.7-10.6-7.1-17.7-14-23.8c-5.2-4.7-11.2-7.8-18.5-7.6c-6,0.2-12,0.5-18,0.7c-6,0.1-9.6,3.3-11.5,8.8
		c-3.9,11.7-3.7,23.6,1.4,34.4c5.4,11.3,12.9,21.9,23.6,29c16.6,11,33.7,21.3,50.7,31.7c3.7,2.3,8,3.6,12,5.2
		c4.5,1.7,9.4,1.4,11.9-2.7c4.8-7.9,11-14.8,13.5-24.2c5.9-22,7.9-44.7,10.1-67.2c2-20.1-6-36.8-23.3-48.4c-6.3-4.2-11.3-3.2-15.8,3
		c-9.8,13.2-11.9,27.9-8.9,43.6c1.2,6.1,2.9,12.2,4.1,18.3c1.1,5.1-1.3,9.2-5.6,10.4c-4,1.1-7.8-0.8-9.8-5.3
		C748.7,1277.5,748.1,1275.1,747.7,1273.9L747.7,1273.9z"/>
	<path style="clip-path:url(#SVGID_00000028290197559514781330000016672397341069052345_);" d="M591.2,408.5
		c3.2-7.4,5.3-13.3,8.2-18.7c2.2-4.2,4.9-8.3,8.3-11.5c5.8-5.5,14.2-6.3,20.3-1.6c8.8,6.7,16.2,15.6,13.4,27.1
		c-4.7,19.2-10.6,38.2-17.4,56.7c-3.6,10-11.1,12.5-21.6,10.3c-12.1-2.5-23.2-7.3-31.3-17.2c-7.9-9.7-15.8-19.3-22.7-29.6
		c-4.7-7-6.7-15.5-5-24.3c2.3-11.4,8.9-15.6,20-12.3c8.9,2.7,17,7,22.7,14.8C587.3,404,588.7,405.5,591.2,408.5L591.2,408.5z"/>
	<path style="clip-path:url(#SVGID_00000028290197559514781330000016672397341069052345_);" d="M810.6,560.5c-1.8-6-3-10.5-4.6-14.8
		c-2.7-7.5-7.3-13-16-13.6c-8.6-0.5-16,4.2-19.8,12.7c-0.6,1.3-1.3,2.6-1.4,3.9c-1.8,23.2-3.7,46.4-5.2,69.6
		c-0.2,3.6,0.9,7.4,2.2,10.9c3.4,9.5,11.2,13.9,21.1,11.2c4.8-1.3,9.7-3.6,13.9-6.3c20.2-12.9,34.9-30.9,44.9-52.5
		c2.8-6,3.8-13.7,3.1-20.3c-1.5-13.8-14.3-19-26-11.3C818.8,552.7,815.6,556.1,810.6,560.5L810.6,560.5z"/>
	<path style="clip-path:url(#SVGID_00000028290197559514781330000016672397341069052345_);" d="M2050.1,1094.1
		c-1.8-6-3-10.5-4.6-14.8c-2.7-7.5-7.3-13-16-13.6c-8.6-0.5-16,4.2-19.8,12.7c-0.6,1.3-1.3,2.6-1.4,3.9c-1.8,23.2-3.7,46.4-5.2,69.6
		c-0.2,3.6,0.9,7.4,2.2,10.9c3.4,9.5,11.2,13.9,21.1,11.2c4.8-1.3,9.7-3.6,13.9-6.3c20.2-12.9,34.9-30.9,44.9-52.5
		c2.8-6,3.8-13.7,3.1-20.3c-1.5-13.8-14.3-19-26-11.3C2058.2,1086.4,2055.1,1089.8,2050.1,1094.1L2050.1,1094.1z"/>
	<path style="clip-path:url(#SVGID_00000028290197559514781330000016672397341069052345_);" d="M1.4,1094.1c-1.8-6-3-10.5-4.6-14.8
		c-2.7-7.5-7.3-13-16-13.6c-8.6-0.5-16,4.2-19.8,12.7c-0.6,1.3-1.3,2.6-1.4,3.9c-1.8,23.2-3.7,46.4-5.2,69.6
		c-0.2,3.6,0.9,7.4,2.2,10.9c3.4,9.5,11.2,13.9,21.1,11.2c4.8-1.3,9.7-3.6,13.9-6.3c20.2-12.9,34.9-30.9,44.9-52.5
		c2.8-6,3.8-13.7,3.1-20.3c-1.5-13.8-14.3-19-26-11.3C9.6,1086.4,6.4,1089.8,1.4,1094.1L1.4,1094.1z"/>
	<path style="clip-path:url(#SVGID_00000028290197559514781330000016672397341069052345_);" d="M1769.7,1199.6
		c1.8-6,3-10.5,4.6-14.8c2.7-7.5,7.3-13,16-13.6c8.6-0.5,16,4.2,19.8,12.7c0.6,1.3,1.3,2.6,1.4,3.9c1.8,23.2,3.7,46.4,5.2,69.6
		c0.2,3.6-0.9,7.4-2.2,10.9c-3.4,9.5-11.2,13.9-21.1,11.2c-4.8-1.3-9.7-3.6-13.9-6.3c-20.2-12.9-34.9-30.9-44.9-52.5
		c-2.8-6-3.8-13.7-3.1-20.3c1.5-13.8,14.3-19,26-11.3C1761.5,1191.9,1764.7,1195.3,1769.7,1199.6L1769.7,1199.6z"/>
	<path style="clip-path:url(#SVGID_00000028290197559514781330000016672397341069052345_);" d="M620.4-26.5c1.8-6,3-10.5,4.6-14.8
		c2.7-7.5,7.3-13,16-13.6c8.6-0.5,16,4.2,19.8,12.7c0.6,1.3,1.3,2.6,1.4,3.9c1.8,23.2,3.7,46.4,5.2,69.6c0.2,3.6-0.9,7.4-2.2,10.9
		c-3.4,9.5-11.2,13.9-21.1,11.2c-4.8-1.3-9.7-3.6-13.9-6.3c-20.2-12.9-34.9-30.9-44.9-52.5c-2.8-6-3.8-13.7-3.1-20.3
		c1.5-13.8,14.3-19,26-11.3C612.2-34.3,615.4-30.8,620.4-26.5L620.4-26.5z"/>
	<path style="clip-path:url(#SVGID_00000028290197559514781330000016672397341069052345_);" d="M620.4,2022.2c1.8-6,3-10.5,4.6-14.8
		c2.7-7.5,7.3-13,16-13.6c8.6-0.5,16,4.2,19.8,12.7c0.6,1.3,1.3,2.6,1.4,3.9c1.8,23.2,3.7,46.4,5.2,69.6c0.2,3.6-0.9,7.4-2.2,10.9
		c-3.4,9.5-11.2,13.9-21.1,11.2c-4.8-1.3-9.7-3.6-13.9-6.3c-20.2-12.9-34.9-30.9-44.9-52.5c-2.8-6-3.8-13.7-3.1-20.3
		c1.5-13.8,14.3-19,26-11.3C612.2,2014.4,615.4,2017.9,620.4,2022.2L620.4,2022.2z"/>
	<path style="clip-path:url(#SVGID_00000028290197559514781330000016672397341069052345_);" d="M846.4,1583.5
		c2.3-7.4,3.7-12.9,5.7-18.3c3.3-9.2,8.9-16.1,19.7-16.7c10.6-0.7,19.7,5.1,24.5,15.7c0.7,1.6,1.6,3.2,1.7,4.8
		c2.3,28.6,4.6,57.2,6.5,85.8c0.3,4.4-1.1,9.2-2.7,13.5c-4.2,11.7-13.8,17.1-25.9,13.8c-6-1.6-11.9-4.4-17.1-7.8
		c-24.9-16-43-38.1-55.3-64.7c-3.4-7.4-4.7-16.8-3.8-25c1.9-17,17.6-23.4,32-13.9C836.4,1573.9,840.3,1578.2,846.4,1583.5
		L846.4,1583.5z"/>
	<path style="clip-path:url(#SVGID_00000028290197559514781330000016672397341069052345_);" d="M965.4,134.4c2.5-9,4.4-17,7-24.7
		c3.4-9.9,6.9-19.8,11.4-29.2c8.3-17.3,23.9-20.4,37.3-6.2c11.9,12.6,22,26.8,32.1,40.9c5.7,8,10.3,16.8,14.3,25.7
		c2.5,5.5,4.4,11.9,4.2,17.9c-0.4,12.3-11.8,21.7-26.3,21.2c-11.4-0.4-22.8-2.2-33.9-4.9c-11.9-2.9-23.6-4.9-36.7-4.8
		c-3.5,8.8-6.9,17.6-10.3,26.4c-5.4,13.7-10.9,27.4-16.2,41.2c-4.6,11.9-12.5,21.6-21.2,30.5c-6.5,6.6-13.6,13-21.5,17.7
		c-8,4.8-17.2,7.9-26.2,10.8c-5.8,1.9-12.2,2.6-18.4,2.8c-38.6,1.2-73.7-10.3-106.2-30.4c-8.8-5.4-10.7-11.3-6.7-20.9
		c2.4-5.7,5.5-11.1,8.3-16.8c4.8-10,9.9-20,14.3-30.2c6.4-14.6,14.9-27.6,26.2-38.9c9.2-9.2,19.5-16.5,32.1-20.2
		c11.3-3.4,22.6-7,33.9-10.1c14.3-4,28.9-5.3,43.8-4.3C926,129.1,945.5,128.2,965.4,134.4L965.4,134.4z M767.1,254.1
		c3.9,2.3,7.7,4.9,11.7,6.9c23.7,11.9,48.5,19.4,75.4,19.6c17.8,0.1,33.9-4.2,47.8-15.1c19.3-15.2,16.3-10.4,9.1-31.1
		c-9.5-27.4-24.7-50.7-52-63.8c-2.3-1.1-4.5-2.7-6.7-4.1c-14.5-9.2-26.5-7.3-38.6,5c-21.8,22-33.6,49.8-45.9,77.3
		C767.3,250.1,767.4,251.9,767.1,254.1L767.1,254.1z M865.2,152c15.8,9.9,31.2,17.6,40.5,31.9c9.1,14.1,16.8,29,25.1,43.5
		c0.3-0.2,0.7-0.3,0.8-0.5c8.3-20.6,16.9-41.1,24.8-61.9c2.6-6.7-0.2-11.4-7.1-13.7c-6.5-2.1-13.3-4-20-4.5
		c-11.1-0.8-22.2-0.5-33.3-0.5C886.2,146.4,876.6,147.5,865.2,152L865.2,152z M982.1,149.4c15.4,3.5,30,7.1,44.7,10
		c6.4,1.3,13,1.5,19.5,1.3c5.8-0.2,7.3-3.3,5.6-8.7c-0.5-1.5-1.3-3-2-4.5c-10.1-20.3-22.7-39-37.9-55.9c-2.3-2.5-5.1-4.4-7.8-6.6
		C995.1,97.3,985.1,127.1,982.1,149.4L982.1,149.4z"/>
	<path style="clip-path:url(#SVGID_00000028290197559514781330000016672397341069052345_);" d="M849.3,218.9
		c0.4,2.7,1.2,5.6,1.1,8.5c-0.2,5.8-4.1,9.7-9.8,10.4c-8,1-18.8-8.3-19-16.3c-0.2-5.7,2.7-10,8-12.2c5.9-2.5,12.2-1.2,16,3.5
		C847.1,214.5,848,216.6,849.3,218.9L849.3,218.9z"/>
	<path style="clip-path:url(#SVGID_00000028290197559514781330000016672397341069052345_);" d="M1870.9,955.8
		c8.9-2.7,16.7-5.4,24.6-7.3c10.2-2.4,20.5-4.7,30.8-5.9c19.1-2.2,30,9.3,25.1,28.2c-4.3,16.7-10.9,32.9-17.5,49
		c-3.7,9.1-8.8,17.6-14.1,25.8c-3.3,5.1-7.7,10.1-12.8,13.1c-10.6,6.2-24.6,1.6-32-10.9c-5.8-9.8-10.4-20.5-13.9-31.3
		c-3.9-11.6-8.4-22.6-15.5-33.7c-9.3,1.8-18.6,3.6-27.9,5.4c-14.5,2.8-29,5.5-43.5,8.3c-12.5,2.4-24.9,1-37.1-1.6
		c-9.1-1.9-18.3-4.5-26.4-8.7c-8.3-4.2-15.9-10.4-23.1-16.4c-4.7-3.9-8.7-8.9-12.2-14c-21.7-32-30.7-67.8-31.1-106
		c-0.1-10.3,3.8-15.1,14.1-16.8c6.1-1,12.4-1.3,18.6-2c11.1-1.3,22.2-2.3,33.2-4c15.8-2.4,31.4-2.1,46.9,1.4
		c12.7,2.9,24.4,7.7,34.2,16.4c8.9,7.8,17.9,15.3,26.7,23.2c11,10,19.9,21.6,27,34.8C1854.2,919.8,1865.4,935.7,1870.9,955.8
		L1870.9,955.8z M1663.8,852.1c0.1,4.5,0,9.1,0.4,13.6c2.6,26.4,9.5,51.4,23.7,74.2c9.4,15.1,21.7,26.4,38.3,32.3
		c23.1,8.2,17.5,8.2,31.1-8.9c18.1-22.7,29.7-47.9,26.2-78c-0.3-2.6-0.1-5.2-0.1-7.9c0.1-17.2-8-26.3-24.8-30
		c-30.2-6.7-60.1-1.8-89.9,2.5C1667.3,850.2,1665.9,851.2,1663.8,852.1L1663.8,852.1z M1802.5,880.5c0.1,18.7,1.8,35.8-5.4,51.3
		c-7,15.2-15.5,29.7-23.4,44.5c0.3,0.1,0.6,0.4,0.9,0.4c21.9-4,43.8-7.7,65.6-12.1c7-1.4,9.6-6.3,7.8-13.3
		c-1.7-6.6-3.6-13.3-6.8-19.3c-5.2-9.8-11.4-19.1-17.4-28.5C1818.5,895.3,1812.4,887.7,1802.5,880.5L1802.5,880.5z M1867.1,977.9
		c5.3,14.9,10,29.2,15.4,43.1c2.3,6.1,5.7,11.8,9.3,17.2c3.2,4.8,6.7,4.5,10.4,0.1c1.1-1.2,1.8-2.7,2.7-4.1
		c11.8-19.4,20.9-40,27-61.9c0.9-3.2,1-6.7,1.4-10.1C1918,961.1,1887.5,968.6,1867.1,977.9L1867.1,977.9z"/>
	<path style="clip-path:url(#SVGID_00000028290197559514781330000016672397341069052345_);" d="M1737.5,902.8
		c-2.1,1.8-4.1,4-6.5,5.5c-4.9,3-10.4,1.7-14-2.7c-5.1-6.2-3.1-20.3,3.6-24.8c4.7-3.2,9.9-3.1,14.6,0.3c5.2,3.7,7.6,9.7,5.6,15.4
		C1740,898.6,1738.7,900.6,1737.5,902.8L1737.5,902.8z"/>
	<path style="clip-path:url(#SVGID_00000028290197559514781330000016672397341069052345_);" d="M572,1715.6
		c14.9-1,29.5,0.3,43.8,4.3c11.4,3.2,22.6,6.8,33.9,10.1c12.6,3.8,22.9,11.1,32.1,20.2c11.3,11.3,19.8,24.3,26.2,38.9
		c4.5,10.2,9.5,20.1,14.3,30.2c2.7,5.6,5.8,11,8.3,16.8c4,9.6,2.1,15.4-6.7,20.9c-32.6,20.1-67.6,31.6-106.2,30.4
		c-6.2-0.2-12.5-1-18.4-2.8c-9-2.9-18.2-6-26.2-10.8c-7.9-4.7-15-11.1-21.5-17.7c-8.7-8.9-16.6-18.6-21.2-30.5
		c-5.3-13.8-10.8-27.5-16.2-41.2c-3.5-8.8-6.9-17.6-10.3-26.4c-13.1-0.1-24.9,1.9-36.7,4.8c-11.1,2.7-22.5,4.5-33.9,4.9
		c-14.5,0.5-25.9-8.9-26.3-21.2c-0.2-5.9,1.7-12.3,4.2-17.9c4-8.9,8.6-17.8,14.3-25.7c10.1-14.1,20.2-28.4,32.1-40.9
		c13.4-14.2,28.9-11.1,37.3,6.2c4.5,9.4,8,19.4,11.4,29.2c2.7,7.7,4.5,15.7,7,24.7C533.2,1716,552.7,1716.9,572,1715.6L572,1715.6z
		 M710.8,1836.4c-12.3-27.6-24.1-55.3-45.9-77.3c-12.1-12.2-24.1-14.2-38.6-5c-2.2,1.4-4.3,3-6.7,4.1c-27.3,13.2-42.4,36.4-52,63.8
		c-7.2,20.7-10.2,15.9,9.1,31.1c13.9,10.9,30,15.2,47.8,15.1c26.9-0.2,51.7-7.7,75.4-19.6c4-2,7.8-4.6,11.7-6.9
		C711.3,1839.5,711.5,1837.8,710.8,1836.4L710.8,1836.4z M582.7,1734.1c-11.1,0-22.3-0.3-33.3,0.5c-6.7,0.5-13.5,2.4-20,4.5
		c-6.9,2.2-9.6,7-7.1,13.7c7.9,20.8,16.5,41.3,24.8,61.9c0.1,0.2,0.5,0.4,0.8,0.5c8.3-14.5,16-29.5,25.1-43.5
		c9.3-14.3,24.7-22,40.5-31.9C602.3,1735.3,592.6,1734.1,582.7,1734.1L582.7,1734.1z M474.7,1672.8c-2.7,2.2-5.5,4.1-7.8,6.6
		c-15.2,16.8-27.8,35.6-37.9,55.9c-0.7,1.5-1.6,2.9-2,4.5c-1.7,5.5-0.1,8.5,5.6,8.7c6.5,0.2,13.2-0.1,19.5-1.3
		c14.7-2.9,29.2-6.5,44.7-10C493.7,1714.9,483.7,1685.1,474.7,1672.8L474.7,1672.8z"/>
	<path style="clip-path:url(#SVGID_00000028290197559514781330000016672397341069052345_);" d="M629.4,1806.6
		c-0.4,2.7-1.2,5.6-1.1,8.5c0.2,5.8,4.1,9.7,9.8,10.4c8,1,18.8-8.3,19-16.3c0.2-5.7-2.7-10-8-12.2c-5.9-2.5-12.2-1.2-16,3.5
		C631.6,1802.2,630.7,1804.4,629.4,1806.6L629.4,1806.6z"/>
	<path style="clip-path:url(#SVGID_00000028290197559514781330000016672397341069052345_);" d="M455.2,980.1
		c-7,1.4-9.6,4.8-11.2,11.4c-5.4,21.3-15.5,40.3-29.9,56.9c-5.8,6.7-11.3,13.6-16.7,20.4c-3.1,3.9-6.7,6.5-11.8,4.9
		c-5.2-1.6-7.3-5.8-6.8-10.7c0.8-8.1,1.8-16.2,3.6-24.2c3.2-14,4.1-28.3-0.9-41.7c-6.7-17.9-15.7-34.5-34.2-43.9
		c-9.1-4.7-8.1-15.3,1.1-20.2c6.3-3.4,13.3-3.8,20.1-2.2c26.4,6,50.6,17.5,74.4,30c1.6,0.8,3.8,1.7,5.4,1.4
		c13.3-3.5,26.5-7.3,39.7-11c0.2-0.1,0.2-1,0.5-2.1c-6-2.2-12.3-4-18.1-6.8c-6.1-3-12-6.7-17.5-10.8c-3.8-2.8-4.3-7.2-1.8-11.5
		c2.2-3.7,6.5-5.1,11.2-3.6c1.2,0.4,2.5,0.9,3.5,1.7c9.1,7,20,9.7,30.5,13.2c5.3,1.7,10.6,3.8,15.3,6.6c3.8,2.3,7,2.6,11.1,1.4
		c8.9-2.4,17.8-4.4,26.7-6.6c2.3-0.6,4.6-1.5,7.5-2.4c-1.5-1.4-2-2.3-2.9-2.7c-13.5-6.6-26.9-13.3-40.6-19.6c-4-1.8-6.9-3.9-7-8.4
		c-0.2-4.3,2-7.6,5.7-9.7c5.6-3.1,10.5-1.6,15.5,1.9c5.4,3.7,10.9,7.3,16.8,10c13.4,6.2,27.2,11.4,36.5,23.8c4.6-1,8.6-1.8,13.2-2.8
		c-0.5-2.3-0.6-3.9-1.1-5.3c-3.7-9.8-8-19.4-11.1-29.4c-3.1-10.1-6.2-19.8-12.4-28.7c-7.5-10.8-2.3-19.7,9.4-21.4
		c18.6-2.7,36.9-9,56.2-4.6c2.8,0.6,5.9,0.4,8.8,0.2c16.3-1.3,32.2,1.5,47.5,6.6c15.8,5.2,30.6,12.5,36,30.4
		c2,6.9,3.8,13.9,5.4,20.9c2,8.7,0.6,16.9-3.7,24.7c-10.8,19.3-23.6,37-39.7,52.3c-9.8,9.2-19,19.2-29.2,27.8
		c-8.5,7.1-17.7,13.5-27.3,18.9c-8.3,4.6-15.1,0.5-16.1-8.9c-1.5-13.3-3.6-26.8-3.1-40.1c0.4-12.6-5.4-21-13.1-29.5
		c-5.1,1.5-9.6,3.6-14.4,4.3c-8.3,1.2-11,6.5-13,13.8c-2.2,8.2-5.4,16.1-8.8,23.9c-1.4,3.1-4.3,5.9-7.1,7.9c-1.7,1.2-5.5,1.6-7,0.5
		c-1.6-1.1-2.7-4.6-2.3-6.7c0.7-4.2,2.7-8,3.9-12.1c1.7-5.8,4.4-11.4,2.8-18.9c-11.3,3.3-21.9,6.4-32.6,9.4
		c-3.9,1.1-5.8,3.9-7.1,7.5c-2.3,6.1-4.6,12.3-7.4,18.2c-2.4,5-5.2,9.9-8.2,14.5c-1.9,2.9-5.4,4.7-8.5,2.5c-2-1.4-3.6-4.7-3.7-7.2
		c-0.1-3.5,1.3-7,2.3-10.5c1.2-3.9,2.7-7.8,4.7-13.4C479.4,974,467.4,977.6,455.2,980.1L455.2,980.1z M645.7,983.9
		c13.7-13.6,27.3-27.3,40.7-41.3c9.8-10.2,17.6-21.8,22.6-35.3c4-10.7,3.4-20.7-2-30.2c-2.1-3.7-6.1-7.2-9.9-8.7
		c-20.1-8.2-40.7-14.4-63-12.6c-10.4,0.8-20.9-0.2-31.4-0.4c-3.5-0.1-7-0.1-11.3-0.2c3.4,10.8,6.1,20.8,9.6,30.4
		c4,11.1,8.3,22.1,13,32.9c2.8,6.2,6.4,12.2,10.4,17.8c5.6,7.8,8.4,16.1,8,25.7c-0.3,7.5,0.3,15.1,0.7,22.6c0.1,2.1,1.1,4.2,2.1,7.6
		C639.2,989,642.8,986.8,645.7,983.9z M399.2,990.3c3.9,11.7,4.1,24.7,6.2,39.3c11-18.3,22.1-34.7,20.8-57.1
		c-15.6-3.3-27.7-14.5-45.7-18.2C387.7,967.7,395.3,978.4,399.2,990.3L399.2,990.3z"/>
	<path style="clip-path:url(#SVGID_00000028290197559514781330000016672397341069052345_);" d="M642.8,893.9
		c3.5,6.7,9.5,9.5,15.1,6.7c6.2-3.1,8.7-12.8,5-19.7c-3.6-6.8-11.6-10.1-17.1-7C639.9,877.1,638.6,885.7,642.8,893.9L642.8,893.9z"
		/>
	<path style="clip-path:url(#SVGID_00000028290197559514781330000016672397341069052345_);" d="M1345.9,1518.3
		c2,5.7,3.5,9.5,4.7,13.4c1,3.4,2.4,7,2.3,10.5c-0.1,2.5-1.7,5.8-3.7,7.2c-3.1,2.3-6.5,0.5-8.5-2.5c-3-4.6-5.9-9.5-8.2-14.5
		c-2.8-5.9-5.1-12-7.4-18.2c-1.3-3.6-3.2-6.4-7.1-7.5c-10.7-3.1-21.3-6.2-32.6-9.4c-1.6,7.5,1,13.1,2.8,18.9c1.2,4.1,3.2,8,3.9,12.1
		c0.4,2.2-0.7,5.6-2.3,6.7c-1.6,1.1-5.3,0.7-7-0.5c-2.9-2-5.8-4.8-7.1-7.9c-3.4-7.7-6.6-15.7-8.8-23.9c-2-7.3-4.6-12.6-13-13.8
		c-4.8-0.7-9.4-2.7-14.4-4.3c-7.7,8.6-13.5,17-13.1,29.5c0.4,13.3-1.7,26.8-3.1,40.1c-1.1,9.4-7.8,13.6-16.1,8.9
		c-9.7-5.3-18.9-11.8-27.3-18.9c-10.3-8.6-19.5-18.5-29.2-27.8c-16.1-15.3-28.9-33-39.7-52.3c-4.3-7.8-5.8-16-3.7-24.7
		c1.7-7,3.4-14,5.4-20.9c5.3-17.9,20.2-25.2,36-30.4c15.3-5.1,31.2-7.9,47.5-6.6c2.9,0.2,6,0.5,8.8-0.2c19.2-4.4,37.5,2,56.2,4.6
		c11.7,1.7,16.9,10.6,9.4,21.4c-6.2,8.8-9.3,18.6-12.4,28.7c-3.1,10-7.4,19.6-11.1,29.4c-0.5,1.4-0.7,3-1.1,5.3
		c4.5,1,8.6,1.8,13.2,2.8c9.3-12.4,23.1-17.6,36.5-23.8c5.9-2.7,11.4-6.3,16.8-10c5-3.5,10-5,15.5-1.9c3.7,2.1,5.9,5.3,5.7,9.7
		c-0.2,4.5-3.1,6.6-7,8.4c-13.6,6.3-27.1,13-40.6,19.6c-0.8,0.4-1.4,1.3-2.9,2.7c2.9,0.9,5.2,1.8,7.5,2.4c8.9,2.2,17.9,4.2,26.7,6.6
		c4.1,1.1,7.3,0.8,11.1-1.4c4.7-2.9,10-4.9,15.3-6.6c10.6-3.5,21.5-6.2,30.5-13.2c1-0.8,2.3-1.3,3.5-1.7c4.7-1.5,9-0.1,11.2,3.6
		c2.5,4.3,2,8.7-1.8,11.5c-5.5,4.1-11.3,7.8-17.5,10.8c-5.8,2.9-12.1,4.6-18.1,6.8c0.2,1,0.2,2,0.5,2.1c13.2,3.8,26.4,7.5,39.7,11
		c1.6,0.4,3.8-0.5,5.4-1.4c23.8-12.6,47.9-24,74.4-30c6.9-1.6,13.8-1.2,20.1,2.2c9.2,4.9,10.2,15.6,1.1,20.2
		c-18.5,9.4-27.5,26-34.2,43.9c-5,13.4-4.1,27.6-0.9,41.7c1.8,7.9,2.8,16.1,3.6,24.2c0.5,5-1.6,9.1-6.8,10.7
		c-5.1,1.6-8.7-1-11.8-4.9c-5.5-6.9-11-13.8-16.7-20.4c-14.5-16.7-24.6-35.6-29.9-56.9c-1.6-6.5-4.3-10-11.2-11.4
		C1372.4,1525.8,1360.5,1522.2,1345.9,1518.3L1345.9,1518.3z M1204.6,1540.1c1-3.4,2-5.5,2.1-7.6c0.5-7.5,1-15.1,0.7-22.6
		c-0.4-9.6,2.5-17.9,8-25.7c4-5.6,7.6-11.5,10.4-17.8c4.8-10.8,9.1-21.8,13-32.9c3.5-9.7,6.2-19.6,9.6-30.4
		c-4.3,0.1-7.8,0.1-11.3,0.2c-10.5,0.2-21,1.2-31.4,0.4c-22.3-1.7-42.9,4.5-63,12.6c-3.9,1.6-7.9,5.1-9.9,8.7
		c-5.4,9.5-6,19.6-2,30.2c5,13.5,12.8,25.1,22.6,35.3c13.4,14,27,27.7,40.7,41.3C1197,1534.8,1200.6,1537,1204.6,1540.1
		L1204.6,1540.1z M1459.3,1502.3c-18.1,3.7-30.2,14.9-45.7,18.2c-1.3,22.4,9.8,38.8,20.8,57.1c2.1-14.5,2.3-27.5,6.2-39.3
		C1444.5,1526.4,1452.1,1515.7,1459.3,1502.3L1459.3,1502.3z"/>
	<path style="clip-path:url(#SVGID_00000028290197559514781330000016672397341069052345_);" d="M1196.9,1442
		c-3.5,6.7-9.5,9.5-15.1,6.7c-6.2-3.1-8.7-12.8-5-19.7c3.6-6.8,11.6-10.1,17.1-7C1199.9,1425.1,1201.2,1433.7,1196.9,1442
		L1196.9,1442z"/>
	<path style="clip-path:url(#SVGID_00000028290197559514781330000016672397341069052345_);" d="M1029,429.5c-4,5-2.9,9.7-2.6,14.2
		c1.6,21.7,6.1,42.7,14.1,63c6.6,16.7,12,34,17.5,51.1c2.6,8.1,4.3,16.6,2,25.2c-0.4,1.5-1.1,3-1.5,4.3c-4.7,1.7-7.4-0.9-9.4-3.9
		c-2-3-3.5-6.3-4.7-9.7c-8.3-23.1-15.9-46.5-24.9-69.4c-8.2-20.8-10.3-42.6-12.4-64.4c-0.3-3.5,0.2-7.2,0.8-10.8
		c2.8-15.2,15.9-22.5,30.3-17c2.4,0.9,4.7,2,7.8,3.3c0.8-2.5,1.5-4.5,2.1-6.6c1.9-6.3,3.3-12.7,5.8-18.8
		c7.2-18.1,26.4-23.9,42.9-13.4c1.1,0.7,2.2,1.4,3.6,2.3c6-6.3,10.2-15.1,20.7-14.8c9.2,0.3,17.3,3.5,23.7,9.8
		c1,0.1,1.8,0.4,2.2,0.2c18.1-10.8,34.8-1,44.1,14.5c4.8,8,8,17.3,10.1,26.5c10.1,43.8,9.1,87.8,0.3,131.8
		c-1.4,6.7-2.9,13.4-4.6,20.1c-0.5,2.2-1.5,4.4-2.8,6.2c-2.7,3.8-6.4,5.8-11.1,4.2c-4.8-1.7-6.2-5.6-5.5-10.3
		c0.8-5.2,1.5-10.4,2.8-15.5c11.4-43.3,11.8-86.8,2.8-130.5c-1.3-6.4-3.4-12.7-6-18.6c-1.7-3.8-4.5-7.3-7.6-10.1
		c-6.1-5.5-9.2-4.5-11.8,3.1c-0.3,0.9-0.6,1.9-0.9,2.8c-1.4,4-4.1,6.8-8.4,7.3c-4.4,0.5-7.4-1.9-9.6-5.5c-2.4-3.9-4.5-8-7.4-11.6
		c-5.7-7.1-10.9-6.3-14.5,2.2c-1.1,2.7-1.5,5.7-1.9,8.6c-0.3,2.3-0.2,4.6-0.4,6.9c-0.8,6.7-4.1,10.6-9.2,11.1
		c-4.7,0.4-8.1-2.2-10.8-8.3c-2-4.5-3.8-9.2-6.5-13.2c-5.1-7.6-13-6.7-16.5,1.7c-5.1,12.3-7.3,25.1-4.9,38.5
		c1.7,9.4,0.7,13.3-4.1,15.6c-5.2,2.5-9.7,0.2-15.3-7.2c-3-3.9-6.2-7.6-9.8-10.8C1035.1,431.6,1031.9,430.8,1029,429.5L1029,429.5z"
		/>
	<path style="clip-path:url(#SVGID_00000028290197559514781330000016672397341069052345_);" d="M1070.6,493.5
		c-2.7-23.9,11.3-39.6,30.2-52.2c25.1-16.7,55-1.5,63.9,19.1c2.6,5.9,4.3,12.4,5.5,18.8c5.5,29-3.8,47.9-33.8,62.2
		c-19.9,9.5-49.7,4-63.3-21.9C1068.8,511.3,1069.5,503,1070.6,493.5z M1153.6,492c-2-7.9-3.1-16.1-6.2-23.6
		c-5.5-13.4-22.5-19.1-34.8-12.1c-9.2,5.3-18.6,11.8-21.6,22c-2.7,9-1.3,19.2-1.7,28.8c0,0.9,0.8,1.7,1.2,2.6
		c4.6,10.9,13,15.3,24.6,16C1134.3,527,1152.3,511.2,1153.6,492L1153.6,492z"/>
	<path style="clip-path:url(#SVGID_00000028290197559514781330000016672397341069052345_);" d="M492.9,1308.3
		c5.5,3.3,6.1,8.1,7.4,12.3c6.2,20.9,9.3,42.1,8.9,64c-0.3,18,0.7,36,1.6,54c0.5,8.5,1.8,17,7,24.2c0.9,1.3,2,2.4,3,3.5
		c5-0.1,6.7-3.4,7.5-7c0.8-3.5,1-7.1,1-10.7c-0.4-24.6-1.5-49.1-1.1-73.7c0.3-22.4-5.3-43.5-11-64.7c-0.9-3.4-2.7-6.7-4.5-9.8
		c-8-13.3-22.8-15.5-34.3-5.3c-1.9,1.7-3.7,3.6-6.1,5.9c-1.6-2.1-3-3.7-4.3-5.4c-4-5.2-7.6-10.7-12-15.5
		c-13.1-14.4-33.2-13.1-44.9,2.6c-0.8,1-1.6,2-2.6,3.4c-7.8-3.8-14.9-10.5-24.6-6.5c-8.5,3.5-14.9,9.3-18.7,17.5
		c-0.9,0.4-1.5,1-2,0.9c-20.8-3.7-32.9,11.3-36.1,29.1c-1.7,9.2-1.3,19-0.1,28.3c6,44.6,22.4,85.4,46.1,123.4
		c3.6,5.8,7.5,11.5,11.4,17.2c1.3,1.8,3,3.6,4.8,4.9c3.8,2.7,8,3.3,11.8,0.1c3.9-3.2,3.9-7.4,1.6-11.6c-2.5-4.6-5-9.2-8.1-13.5
		c-25.9-36.5-41.6-77.2-48.6-121.2c-1-6.4-1.3-13.1-0.9-19.6c0.2-4.1,1.7-8.4,3.6-12.1c3.8-7.3,7-7.4,12.1-1.2
		c0.6,0.8,1.2,1.6,1.8,2.3c2.7,3.3,6.2,4.9,10.5,3.8c4.3-1.1,6.3-4.4,7.1-8.6c0.9-4.5,1.4-9.1,2.8-13.4c2.8-8.7,8-9.8,14.3-3.1
		c2,2.1,3.4,4.8,4.8,7.3c1.1,2,1.7,4.2,2.8,6.3c3.2,6,7.6,8.5,12.5,7.1c4.6-1.3,6.7-4.9,7.2-11.6c0.3-4.9,0.3-9.9,1.4-14.6
		c2.1-8.9,9.8-10.9,16.1-4.2c9.2,9.7,15.7,20.9,18.1,34.3c1.7,9.4,4,12.7,9.3,13.2c5.7,0.5,9.2-3.3,11.8-12.1
		c1.4-4.7,3.1-9.3,5.4-13.6C488,1312.5,490.8,1310.6,492.9,1308.3L492.9,1308.3z"/>
	<path style="clip-path:url(#SVGID_00000028290197559514781330000016672397341069052345_);" d="M483.4,1408
		c-3.6,29-29.7,44.6-51.6,42.8c-33.1-2.8-48.5-17.3-53.5-46.3c-1.1-6.4-1.8-13-1.5-19.5c1.1-22.3,23.7-47.2,53.1-40.3
		c22.1,5.1,40.8,14.9,46.6,38.2C480.9,1391.3,484.5,1398.8,483.4,1408L483.4,1408z M446.1,1428.8c10.6-4.8,16.9-11.8,17.4-23.6
		c0-1,0.5-2.1,0.2-2.9c-3.7-8.9-6.1-18.9-11.7-26.4c-6.4-8.5-17.5-11.4-27.9-13c-13.9-2.2-27.8,9.1-28.3,23.6
		c-0.3,8,1.6,16.1,2.5,24.2C406.2,1428,428.7,1436.5,446.1,1428.8L446.1,1428.8z"/>
	<path style="clip-path:url(#SVGID_00000028290197559514781330000016672397341069052345_);" d="M1676.3,1492.7
		c-5.5,3.3-6.1,8.1-7.4,12.3c-6.2,20.9-9.3,42.1-8.9,64c0.3,18-0.7,36-1.6,54c-0.5,8.5-1.8,17-7,24.2c-0.9,1.3-2,2.4-3,3.5
		c-5-0.1-6.7-3.4-7.5-7c-0.8-3.5-1-7.1-1-10.7c0.4-24.6,1.5-49.1,1.1-73.7c-0.3-22.4,5.3-43.5,11-64.7c0.9-3.4,2.7-6.7,4.5-9.8
		c8-13.3,22.8-15.5,34.3-5.3c1.9,1.7,3.7,3.6,6.1,5.9c1.6-2.1,3-3.7,4.3-5.4c4-5.2,7.6-10.7,12-15.5c13.1-14.4,33.2-13.1,44.9,2.6
		c0.8,1,1.6,2,2.6,3.4c7.8-3.8,14.9-10.5,24.6-6.5c8.5,3.5,14.9,9.3,18.7,17.5c0.9,0.4,1.5,1,2,0.9c20.8-3.7,32.9,11.3,36.1,29.1
		c1.7,9.2,1.3,19,0.1,28.3c-6,44.6-22.4,85.4-46.1,123.4c-3.6,5.8-7.5,11.5-11.4,17.2c-1.3,1.8-3,3.6-4.8,4.9
		c-3.8,2.7-8,3.3-11.8,0.1c-3.9-3.2-3.9-7.4-1.6-11.6c2.5-4.6,5-9.2,8.1-13.5c25.9-36.5,41.6-77.2,48.6-121.2
		c1-6.4,1.3-13.1,0.9-19.6c-0.2-4.1-1.7-8.4-3.6-12.1c-3.8-7.3-7-7.4-12.1-1.2c-0.6,0.8-1.2,1.6-1.8,2.3c-2.7,3.3-6.2,4.9-10.5,3.8
		c-4.3-1.1-6.3-4.4-7.1-8.6c-0.9-4.5-1.4-9.1-2.8-13.4c-2.8-8.7-8-9.8-14.3-3.1c-2,2.1-3.4,4.8-4.8,7.3c-1.1,2-1.7,4.2-2.8,6.3
		c-3.2,6-7.6,8.5-12.5,7.1c-4.6-1.3-6.7-4.9-7.2-11.6c-0.3-4.9-0.3-9.9-1.4-14.6c-2.1-8.9-9.8-10.9-16.1-4.2
		c-9.2,9.7-15.7,20.9-18.1,34.3c-1.7,9.4-4,12.7-9.3,13.2c-5.7,0.5-9.2-3.3-11.8-12.1c-1.4-4.7-3.1-9.3-5.4-13.6
		C1681.2,1496.9,1678.5,1494.9,1676.3,1492.7L1676.3,1492.7z"/>
	<path style="clip-path:url(#SVGID_00000028290197559514781330000016672397341069052345_);" d="M1692.7,1567.1
		c5.8-23.4,24.5-33.1,46.6-38.2c29.4-6.8,52,18,53.1,40.3c0.3,6.5-0.3,13.1-1.5,19.5c-5.1,29.1-20.4,43.5-53.5,46.3
		c-22,1.9-48-13.7-51.6-42.8C1684.7,1583.2,1688.3,1575.7,1692.7,1567.1L1692.7,1567.1z M1770.9,1595c0.9-8.1,2.8-16.2,2.5-24.2
		c-0.5-14.5-14.4-25.8-28.3-23.6c-10.5,1.7-21.5,4.5-27.9,13c-5.6,7.5-8,17.5-11.7,26.4c-0.3,0.8,0.2,1.9,0.2,2.9
		c0.5,11.8,6.8,18.9,17.4,23.6C1740.5,1620.9,1763,1612.4,1770.9,1595L1770.9,1595z"/>
	<path style="clip-path:url(#SVGID_00000028290197559514781330000016672397341069052345_);" d="M1516.4,160.8
		c3.8,1.3,7.2,2.3,10.4,3.7c4.2,1.9,8.5,3.6,12.1,6.3c4.5,3.3,5.3,8.6,2.7,12.1c-3.2,4.1-7.2,3.9-11.5,1.9
		c-5.1-2.3-10.1-4.6-15.4-6.5c-3-1.1-6.2-1.6-9.4-2.4c-3.9,8.4-7.5,16.1-11.5,24.5c1.3,0.8,3.1,1.9,4.8,3.1
		c7,4.8,14.1,9.5,20.9,14.6c3.1,2.3,4.7,5.6,2.7,9.5c-1.6,3.3-6.1,4.5-10.4,2.2c-3.7-2-6.9-4.9-10.5-7.3
		c-5.1-3.5-10.1-6.8-16.5-11.1c-2.2,5.3-3.8,9.1-5.5,12.8c-1.6,3.5-3.5,7-5.3,10.5c6.4,6,12.8,11.6,18.9,17.5
		c2.3,2.3,4.6,4.9,5.7,7.9c0.7,2,0.1,5.6-1.3,7c-1.4,1.4-5,1.6-7,0.8c-2.6-1-4.7-3.4-6.8-5.4c-5.6-5.5-11.1-11-17.5-17.4
		c-2.4,3.7-4.3,7-6.6,10.1c-5.3,7.4-11,14.6-16.2,22.2c-3.9,5.6-7.8,11.4-10.5,17.5c-6.4,14.2-13.9,17.4-28,10.5
		c-7.6-3.7-15.1-8-22.6-11.9c-3.7-1.9-7.6-3.6-12-5.8c-1.4,3-2.5,5.2-3.6,7.5c-1.3,2.6-2.4,5.4-4.1,7.8c-3.3,4.6-7.4,6.1-10.8,4.2
		c-4.3-2.4-3.9-6.2-2.9-10.3c1.6-6,2.9-12.1,4.5-19.1c-6.7-4.6-13.3-9.1-20.4-14c-3,4.4-5.3,8-7.9,11.2c-2.1,2.7-4.9,4.8-8.5,3.2
		c-4.1-1.9-4.2-5.4-3-9.2c1.3-4,2.5-8.1,4.2-13.3c-5.8-4.2-11.8-8.6-18.2-13.3c-3.7,3.3-6.9,6.1-10.1,8.8c-2,1.7-3.9,3.9-6.3,4.6
		c-2.5,0.8-6.3,1-7.8-0.5c-1.5-1.4-2.2-5.9-1.1-7.7c3.1-5.3,7.3-10,11.7-15.7c-3.2-3-6.3-6.3-9.8-9.1c-10-8-20.1-15.8-30.1-23.7
		c-5.4-4.3-10.8-8.6-16-13.1c-13.9-12-14.7-27.2-9.2-43.1c4-11.5,6.7-23,7.3-35.3c2.2-45.9,11.9-90.3,28.7-133.1
		c4.8-12.2,13.5-14.2,22.6-4.8c4.7,4.9,8.6,10.8,12,16.7c13.1,23.1,26.1,46.3,38.8,69.6c3.2,5.9,7,8.1,13.9,8.4
		c27.3,1.2,53.4-4.9,79.7-10.6c5.7-1.2,7-4.9,8.2-9.5c5.5-21.3,11.1-42.5,16.9-63.7c1.5-5.7,3.4-11.3,5.7-16.7
		c1.2-3,3.1-5.8,5.2-8.3c8.1-9.6,17.8-9.2,25.3,1.3c6.5,9.1,12.3,18.6,18.5,27.9c4.2,6.2,7.8,12.8,15.1,16.4
		c2.7,1.3,4.2,4.9,6.2,7.5c7.3,9.6,14.5,19.4,22,28.9c3.8,4.7,7.5,9,6.9,15.6c-0.2,2,0.9,4.5,2.2,6.3c9.4,13,7,26.2,0,38.9
		c-5.5,10-12,19.5-18.3,29.2c-6.2,9.6-12.7,19-19.1,28.6c-0.8,1.3-1.3,2.9-2.2,4.9L1516.4,160.8z M1412.9,288.1
		c5.7-8.3,10.7-15.8,16-23.2c4.7-6.7,9.7-13.1,14.5-19.8c3.6-5.1,7.1-10.2,10.3-15.6c4-6.7,7.7-13.6,11.5-20.5
		c3-5.5,4.8-11.8,8.9-16.3c6.9-7.6,10.2-16.6,13.7-25.8c0.9-2.4,2-4.8,3.5-6.8c7.2-9.7,15-19,21.8-29c7.8-11.4,14.8-23.2,22-34.9
		c1.7-2.7,3.1-5.6,5.1-9.2c-13-6.4-26.3-8.5-39.3-10.9c-17.4-3.2-35.1-4.9-52.6-7c-3.5-0.4-7.2-0.3-10.6,0.5
		c-30,7.1-59.8,15-91.2,13.3c-4.4-0.2-9.1,1.1-13.2,2.7c-15.7,6.4-31.3,13.3-46.9,20c-1.5,0.6-2.8,1.7-4.2,2.4
		c-6.6,3.7-13,7.5-19.7,10.9c-10.7,5.5-22.2,10-22.2,25c0,1.8-1.4,3.7-1.9,5.6c-2.7,9.6-1.7,18.2,6.9,24.7c3.7,2.8,7.2,5.7,10.8,8.6
		c12.8,10.2,25.7,20.4,38.3,30.8c3.6,3,6.7,5.7,12.1,3.9c4.1-1.3,6.9,1.2,7,5.8c0.1,1.9,0,3.7,0,5.9c5.6,3.6,10.7,8.3,16.7,10.3
		c4.5,1.5,8.5,1.9,11,6.6c0.9,1.8,3.6,2.7,5.5,3.9c8,5,15.3,11.2,24.7,13.8C1383.1,276,1399.7,279.4,1412.9,288.1L1412.9,288.1z
		 M1316.1,71.8c-11.8-29.2-29-53.8-45.1-82.1c-15.1,39.7-22.3,78.8-29.5,119.1c21.3-10.6,39.8-23.1,61.3-29.6
		C1307.6,77.7,1311.8,74.3,1316.1,71.8z M1472.7-26.2c-0.8,0.1-1.5,0.2-2.3,0.4c-6.7,25.3-15.5,50-20,76.6c14.9,2,28.6,3.6,42.1,5.6
		c13.8,2,27.5,4.4,43.3,7c-4.1-7.6-6.4-14.8-11.1-19.7c-18.6-19.2-32.5-41.9-47.4-63.8C1475.8-22.2,1474.2-24.1,1472.7-26.2
		L1472.7-26.2z"/>
	<path style="clip-path:url(#SVGID_00000028290197559514781330000016672397341069052345_);" d="M1445.9,153.5
		c-0.4,6.1-2.1,9.8-6.8,11.2c-4.3,1.2-8.6-0.2-10-4.1c-2.8-7.5-5.5-15.4-6.4-23.3c-0.7-6.9,5.3-9.6,11.4-6c2.4,1.4,5.2,3.5,6.3,5.9
		C1442.9,143,1444.4,149,1445.9,153.5L1445.9,153.5z"/>
	<path style="clip-path:url(#SVGID_00000028290197559514781330000016672397341069052345_);" d="M1359.8,168.3
		c0.1,7.9-2.6,12-7.3,13.1c-4.8,1.1-8.9-1.3-10.9-7.4c-2-5.8-3.5-11.9-4.7-17.9c-0.8-4.1,0.1-8.1,4.4-9.8c4.1-1.6,6.8,1,8.9,4.1
		C1354.6,156.4,1360.1,161.8,1359.8,168.3z"/>
	<path style="clip-path:url(#SVGID_00000028290197559514781330000016672397341069052345_);" d="M1409.1,201.2
		c0.2,9.1-4.4,15.4-11.3,15.6c-7,0.2-14.1-6.1-14-12.3c0.2-7,7.9-14.1,15.2-14C1405.2,190.5,1408.9,194.5,1409.1,201.2L1409.1,201.2
		z"/>
	<path style="clip-path:url(#SVGID_00000028290197559514781330000016672397341069052345_);" d="M1516.4,2209.6
		c3.8,1.3,7.2,2.3,10.4,3.7c4.2,1.9,8.5,3.6,12.1,6.3c4.5,3.3,5.3,8.6,2.7,12.1c-3.2,4.1-7.2,3.9-11.5,1.9
		c-5.1-2.3-10.1-4.6-15.4-6.5c-3-1.1-6.2-1.6-9.4-2.4c-3.9,8.4-7.5,16.1-11.5,24.5c1.3,0.8,3.1,1.9,4.8,3.1
		c7,4.8,14.1,9.5,20.9,14.6c3.1,2.3,4.7,5.6,2.7,9.5c-1.6,3.3-6.1,4.5-10.4,2.2c-3.7-2-6.9-4.9-10.5-7.3
		c-5.1-3.5-10.1-6.8-16.5-11.1c-2.2,5.3-3.8,9.1-5.5,12.8c-1.6,3.5-3.5,7-5.3,10.5c6.4,6,12.8,11.6,18.9,17.5
		c2.3,2.3,4.6,4.9,5.7,7.9c0.7,2,0.1,5.6-1.3,7s-5,1.6-7,0.8c-2.6-1-4.7-3.4-6.8-5.4c-5.6-5.5-11.1-11-17.5-17.4
		c-2.4,3.7-4.3,7-6.6,10.1c-5.3,7.4-11,14.6-16.2,22.2c-3.9,5.6-7.8,11.4-10.5,17.5c-6.4,14.2-13.9,17.4-28,10.5
		c-7.6-3.7-15.1-8-22.6-11.9c-3.7-1.9-7.6-3.6-12-5.8c-1.4,3-2.5,5.2-3.6,7.5c-1.3,2.6-2.4,5.4-4.1,7.8c-3.3,4.6-7.4,6.1-10.8,4.2
		c-4.3-2.4-3.9-6.2-2.9-10.3c1.6-6,2.9-12.1,4.5-19.1c-6.7-4.6-13.3-9.1-20.4-14c-3,4.4-5.3,8-7.9,11.2c-2.1,2.7-4.9,4.8-8.5,3.2
		c-4.1-1.9-4.2-5.4-3-9.2c1.3-4,2.5-8.1,4.2-13.3c-5.8-4.2-11.8-8.6-18.2-13.3c-3.7,3.3-6.9,6.1-10.1,8.8c-2,1.7-3.9,3.9-6.3,4.6
		c-2.5,0.8-6.3,1-7.8-0.5c-1.5-1.4-2.2-5.9-1.1-7.7c3.1-5.3,7.3-10,11.7-15.7c-3.2-3-6.3-6.3-9.8-9.1c-10-8-20.1-15.8-30.1-23.7
		c-5.4-4.3-10.8-8.6-16-13.1c-13.9-12-14.7-27.2-9.2-43.1c4-11.5,6.7-23,7.3-35.3c2.2-45.9,11.9-90.3,28.7-133.1
		c4.8-12.2,13.5-14.2,22.6-4.8c4.7,4.9,8.6,10.8,12,16.7c13.1,23.1,26.1,46.3,38.8,69.6c3.2,5.9,7,8.1,13.9,8.4
		c27.3,1.2,53.4-4.9,79.7-10.6c5.7-1.2,7-4.9,8.2-9.5c5.5-21.3,11.1-42.5,16.9-63.7c1.5-5.7,3.4-11.3,5.7-16.7
		c1.2-3,3.1-5.8,5.2-8.3c8.1-9.6,17.8-9.2,25.3,1.3c6.5,9.1,12.3,18.6,18.5,27.9c4.2,6.2,7.8,12.8,15.1,16.4
		c2.7,1.3,4.2,4.9,6.2,7.5c7.3,9.6,14.5,19.4,22,28.9c3.8,4.7,7.5,9,6.9,15.6c-0.2,2,0.9,4.5,2.2,6.3c9.4,13,7,26.2,0,38.9
		c-5.5,10-12,19.5-18.3,29.2c-6.2,9.6-12.7,19-19.1,28.6c-0.8,1.3-1.3,2.9-2.2,4.9L1516.4,2209.6z M1412.9,2336.8
		c5.7-8.3,10.7-15.8,16-23.2c4.7-6.7,9.7-13.1,14.5-19.8c3.6-5.1,7.1-10.2,10.3-15.6c4-6.7,7.7-13.6,11.5-20.5
		c3-5.5,4.8-11.8,8.9-16.3c6.9-7.6,10.2-16.6,13.7-25.8c0.9-2.4,2-4.8,3.5-6.8c7.2-9.7,15-19,21.8-29c7.8-11.4,14.8-23.2,22-34.9
		c1.7-2.7,3.1-5.6,5.1-9.2c-13-6.4-26.3-8.5-39.3-10.9c-17.4-3.2-35.1-4.9-52.6-7c-3.5-0.4-7.2-0.3-10.6,0.5
		c-30,7.1-59.8,15-91.2,13.3c-4.4-0.2-9.1,1.1-13.2,2.7c-15.7,6.4-31.3,13.3-46.9,20c-1.5,0.6-2.8,1.7-4.2,2.4
		c-6.6,3.7-13,7.5-19.7,10.9c-10.7,5.5-22.2,10-22.2,25c0,1.8-1.4,3.7-1.9,5.6c-2.7,9.6-1.7,18.2,6.9,24.7c3.7,2.8,7.2,5.7,10.8,8.6
		c12.8,10.2,25.7,20.4,38.3,30.8c3.6,3,6.7,5.7,12.1,3.9c4.1-1.3,6.9,1.2,7,5.8c0.1,1.9,0,3.7,0,5.9c5.6,3.6,10.7,8.3,16.7,10.3
		c4.5,1.5,8.5,1.9,11,6.6c0.9,1.8,3.6,2.7,5.5,3.9c8,5,15.3,11.2,24.7,13.8C1383.1,2324.7,1399.7,2328.2,1412.9,2336.8
		L1412.9,2336.8z M1316.1,2120.5c-11.8-29.2-29-53.8-45.1-82.1c-15.1,39.7-22.3,78.8-29.5,119.1c21.3-10.6,39.8-23.1,61.3-29.6
		C1307.6,2126.4,1311.8,2123,1316.1,2120.5L1316.1,2120.5z M1472.7,2022.5c-0.8,0.1-1.5,0.2-2.3,0.4c-6.7,25.3-15.5,50-20,76.6
		c14.9,2,28.6,3.6,42.1,5.6c13.8,2,27.5,4.4,43.3,7c-4.1-7.6-6.4-14.8-11.1-19.7c-18.6-19.2-32.5-41.9-47.4-63.8
		C1475.8,2026.5,1474.2,2024.6,1472.7,2022.5L1472.7,2022.5z"/>
	<path style="clip-path:url(#SVGID_00000028290197559514781330000016672397341069052345_);" d="M1445.9,2202.2
		c-0.4,6.1-2.1,9.8-6.8,11.2c-4.3,1.2-8.6-0.2-10-4.1c-2.8-7.5-5.5-15.4-6.4-23.3c-0.7-6.9,5.3-9.6,11.4-6c2.4,1.4,5.2,3.5,6.3,5.9
		C1442.9,2191.6,1444.4,2197.7,1445.9,2202.2L1445.9,2202.2z"/>
	<path style="clip-path:url(#SVGID_00000028290197559514781330000016672397341069052345_);" d="M1359.8,2217
		c0.1,7.9-2.6,12-7.3,13.1c-4.8,1.1-8.9-1.3-10.9-7.4c-2-5.8-3.5-11.9-4.7-17.9c-0.8-4.1,0.1-8.1,4.4-9.8c4.1-1.6,6.8,1,8.9,4.1
		C1354.6,2205,1360.1,2210.5,1359.8,2217L1359.8,2217z"/>
	<path style="clip-path:url(#SVGID_00000028290197559514781330000016672397341069052345_);" d="M1409.1,2249.9
		c0.2,9.1-4.4,15.4-11.3,15.6c-7,0.2-14.1-6.1-14-12.3c0.2-7,7.9-14.1,15.2-14C1405.2,2239.2,1408.9,2243.2,1409.1,2249.9
		L1409.1,2249.9z"/>
	<path style="clip-path:url(#SVGID_00000028290197559514781330000016672397341069052345_);" d="M213.4,1713.8
		c3.8,1.3,7.2,2.3,10.4,3.7c4.2,1.9,8.5,3.6,12.1,6.3c4.5,3.3,5.3,8.6,2.7,12.1c-3.2,4.1-7.2,3.9-11.5,1.9
		c-5.1-2.3-10.1-4.6-15.4-6.5c-3-1.1-6.2-1.6-9.4-2.4c-3.9,8.4-7.5,16.1-11.5,24.5c1.3,0.8,3.1,1.9,4.8,3.1
		c7,4.8,14.1,9.5,20.9,14.6c3.1,2.3,4.7,5.6,2.7,9.5c-1.6,3.3-6.1,4.5-10.4,2.2c-3.7-2-6.9-4.9-10.5-7.3
		c-5.1-3.5-10.1-6.8-16.5-11.1c-2.2,5.3-3.8,9.1-5.5,12.8c-1.6,3.5-3.5,7-5.3,10.5c6.4,6,12.8,11.6,18.9,17.5
		c2.3,2.3,4.6,4.9,5.7,7.9c0.7,2,0.1,5.6-1.3,7c-1.4,1.4-5,1.6-7,0.8c-2.6-1-4.7-3.4-6.8-5.4c-5.6-5.5-11.1-11-17.5-17.4
		c-2.4,3.7-4.3,7-6.6,10.1c-5.3,7.4-11,14.6-16.2,22.2c-3.9,5.6-7.8,11.4-10.5,17.5c-6.4,14.2-13.9,17.4-28,10.5
		c-7.6-3.7-15.1-8-22.6-11.9c-3.7-1.9-7.6-3.6-12-5.8c-1.4,3-2.5,5.2-3.6,7.5c-1.3,2.6-2.4,5.4-4.1,7.8c-3.3,4.6-7.4,6.1-10.8,4.2
		c-4.3-2.4-3.9-6.2-2.9-10.3c1.6-6,2.9-12.1,4.5-19.1c-6.7-4.6-13.3-9.1-20.4-14c-3,4.4-5.3,8-7.9,11.2c-2.1,2.7-4.9,4.8-8.5,3.2
		c-4.1-1.9-4.2-5.4-3-9.2c1.3-4,2.5-8.1,4.2-13.3c-5.8-4.2-11.8-8.6-18.2-13.3c-3.7,3.3-6.9,6.1-10.1,8.8c-2,1.7-3.9,3.9-6.3,4.6
		c-2.5,0.8-6.3,1-7.8-0.5c-1.5-1.4-2.2-5.9-1.1-7.7c3.1-5.3,7.3-10,11.7-15.7c-3.2-3-6.3-6.3-9.8-9.1c-10-8-20.1-15.8-30.1-23.7
		c-5.4-4.3-10.8-8.6-16-13.1c-13.9-12-14.7-27.2-9.2-43.1c4-11.5,6.7-23,7.3-35.3c2.2-45.9,11.9-90.3,28.7-133.1
		c4.8-12.2,13.5-14.2,22.6-4.8c4.7,4.9,8.6,10.8,12,16.7c13.1,23.1,26.1,46.3,38.8,69.6c3.2,5.9,7,8.1,13.9,8.4
		c27.3,1.2,53.4-4.9,79.7-10.6c5.7-1.2,7-4.9,8.2-9.5c5.5-21.3,11.1-42.5,16.9-63.7c1.5-5.7,3.4-11.3,5.7-16.7
		c1.2-3,3.1-5.8,5.2-8.3c8.1-9.6,17.8-9.2,25.3,1.3c6.5,9.1,12.3,18.6,18.5,27.9c4.2,6.2,7.8,12.8,15.1,16.4
		c2.7,1.3,4.2,4.9,6.2,7.5c7.3,9.6,14.5,19.4,22,28.9c3.8,4.7,7.5,9,6.9,15.6c-0.2,2,0.9,4.5,2.2,6.3c9.4,13,7,26.2,0,38.9
		c-5.5,10-12,19.5-18.3,29.2c-6.2,9.6-12.7,19-19.1,28.6c-0.8,1.3-1.3,2.9-2.2,4.9V1713.8z M109.9,1841c5.7-8.3,10.7-15.8,16-23.2
		c4.7-6.7,9.7-13.1,14.5-19.8c3.6-5.1,7.1-10.2,10.3-15.6c4-6.7,7.7-13.6,11.5-20.5c3-5.5,4.8-11.8,8.9-16.3
		c6.9-7.6,10.2-16.6,13.7-25.8c0.9-2.4,2-4.8,3.5-6.8c7.2-9.7,15-19,21.8-29c7.8-11.4,14.8-23.2,22-34.9c1.7-2.7,3.1-5.6,5.1-9.2
		c-13-6.4-26.3-8.5-39.3-10.9c-17.4-3.2-35.1-4.9-52.6-7c-3.5-0.4-7.2-0.3-10.6,0.5c-30,7.1-59.8,15-91.2,13.3
		c-4.4-0.2-9.1,1.1-13.2,2.7c-15.7,6.4-31.3,13.3-46.9,20c-1.5,0.6-2.8,1.7-4.2,2.4c-6.6,3.7-13,7.5-19.7,10.9
		c-10.7,5.5-22.2,10-22.2,25c0,1.8-1.4,3.7-1.9,5.6c-2.7,9.6-1.7,18.2,6.9,24.7c3.7,2.8,7.2,5.7,10.8,8.6
		c12.8,10.2,25.7,20.4,38.3,30.8c3.6,3,6.7,5.7,12.1,3.9c4.1-1.3,6.9,1.2,7,5.8c0.1,1.9,0,3.7,0,5.9c5.6,3.6,10.7,8.3,16.7,10.3
		c4.5,1.5,8.5,1.9,11,6.6c0.9,1.8,3.6,2.7,5.5,3.9c8,5,15.3,11.2,24.7,13.8C80.2,1828.9,96.8,1832.3,109.9,1841L109.9,1841z
		 M13.1,1624.7c-11.8-29.2-29-53.8-45.1-82.1c-15.1,39.7-22.3,78.8-29.5,119.1c21.3-10.6,39.8-23.1,61.3-29.6
		C4.6,1630.6,8.8,1627.2,13.1,1624.7L13.1,1624.7z M169.7,1526.7c-0.8,0.1-1.5,0.2-2.3,0.4c-6.7,25.3-15.5,50-20,76.6
		c14.9,2,28.6,3.6,42.1,5.6c13.8,2,27.5,4.4,43.3,7c-4.1-7.6-6.4-14.8-11.1-19.7c-18.6-19.2-32.5-41.9-47.4-63.8
		C172.9,1530.7,171.2,1528.8,169.7,1526.7L169.7,1526.7z"/>
	<path style="clip-path:url(#SVGID_00000028290197559514781330000016672397341069052345_);" d="M142.9,1706.4
		c-0.4,6.1-2.1,9.8-6.8,11.2c-4.3,1.2-8.6-0.2-10-4.1c-2.8-7.5-5.5-15.4-6.4-23.3c-0.7-6.9,5.3-9.6,11.4-6c2.4,1.4,5.2,3.5,6.3,5.9
		C139.9,1695.9,141.4,1701.9,142.9,1706.4L142.9,1706.4z"/>
	<path style="clip-path:url(#SVGID_00000028290197559514781330000016672397341069052345_);" d="M56.8,1721.2
		c0.1,7.9-2.6,12-7.3,13.1c-4.8,1.1-8.9-1.3-10.9-7.4c-2-5.8-3.5-11.9-4.7-17.9c-0.8-4.1,0.1-8.1,4.4-9.8c4.1-1.6,6.8,1,8.9,4.1
		C51.6,1709.3,57.1,1714.7,56.8,1721.2L56.8,1721.2z"/>
	<path style="clip-path:url(#SVGID_00000028290197559514781330000016672397341069052345_);" d="M106.1,1754.1
		c0.2,9.1-4.4,15.4-11.3,15.6c-7,0.2-14.1-6.1-14-12.3c0.2-7,7.9-14.1,15.2-14C102.2,1743.4,106,1747.4,106.1,1754.1L106.1,1754.1z"
		/>
	<path style="clip-path:url(#SVGID_00000028290197559514781330000016672397341069052345_);" d="M2262.1,1713.8
		c3.8,1.3,7.2,2.3,10.4,3.7c4.2,1.9,8.5,3.6,12.1,6.3c4.5,3.3,5.3,8.6,2.7,12.1c-3.2,4.1-7.2,3.9-11.5,1.9
		c-5.1-2.3-10.1-4.6-15.4-6.5c-3-1.1-6.2-1.6-9.4-2.4c-3.9,8.4-7.5,16.1-11.5,24.5c1.3,0.8,3.1,1.9,4.8,3.1
		c7,4.8,14.1,9.5,20.9,14.6c3.1,2.3,4.7,5.6,2.7,9.5c-1.6,3.3-6.1,4.5-10.4,2.2c-3.7-2-6.9-4.9-10.5-7.3
		c-5.1-3.5-10.1-6.8-16.5-11.1c-2.2,5.3-3.8,9.1-5.5,12.8c-1.6,3.5-3.5,7-5.3,10.5c6.4,6,12.8,11.6,18.9,17.5
		c2.3,2.3,4.6,4.9,5.7,7.9c0.7,2,0.1,5.6-1.3,7c-1.4,1.4-5,1.6-7,0.8c-2.6-1-4.7-3.4-6.8-5.4c-5.6-5.5-11.1-11-17.5-17.4
		c-2.4,3.7-4.3,7-6.6,10.1c-5.3,7.4-11,14.6-16.2,22.2c-3.9,5.6-7.8,11.4-10.5,17.5c-6.4,14.2-13.9,17.4-28,10.5
		c-7.6-3.7-15.1-8-22.6-11.9c-3.7-1.9-7.6-3.6-12-5.8c-1.4,3-2.5,5.2-3.6,7.5c-1.3,2.6-2.4,5.4-4.1,7.8c-3.3,4.6-7.4,6.1-10.8,4.2
		c-4.3-2.4-3.9-6.2-2.9-10.3c1.6-6,2.9-12.1,4.5-19.1c-6.7-4.6-13.3-9.1-20.4-14c-3,4.4-5.3,8-7.9,11.2c-2.1,2.7-4.9,4.8-8.5,3.2
		c-4.1-1.9-4.2-5.4-3-9.2c1.3-4,2.5-8.1,4.2-13.3c-5.8-4.2-11.8-8.6-18.2-13.3c-3.7,3.3-6.9,6.1-10.1,8.8c-2,1.7-3.9,3.9-6.3,4.6
		c-2.5,0.8-6.3,1-7.8-0.5c-1.5-1.4-2.2-5.9-1.1-7.7c3.1-5.3,7.3-10,11.7-15.7c-3.2-3-6.3-6.3-9.8-9.1c-10-8-20.1-15.8-30.1-23.7
		c-5.4-4.3-10.8-8.6-16-13.1c-13.9-12-14.7-27.2-9.2-43.1c4-11.5,6.7-23,7.3-35.3c2.2-45.9,11.9-90.3,28.7-133.1
		c4.8-12.2,13.5-14.2,22.6-4.8c4.7,4.9,8.6,10.8,12,16.7c13.1,23.1,26.1,46.3,38.8,69.6c3.2,5.9,7,8.1,13.9,8.4
		c27.3,1.2,53.4-4.9,79.7-10.6c5.7-1.2,7-4.9,8.2-9.5c5.5-21.3,11.1-42.5,16.9-63.7c1.5-5.7,3.4-11.3,5.7-16.7
		c1.2-3,3.1-5.8,5.2-8.3c8.1-9.6,17.8-9.2,25.3,1.3c6.5,9.1,12.3,18.6,18.5,27.9c4.2,6.2,7.8,12.8,15.1,16.4
		c2.7,1.3,4.2,4.9,6.2,7.5c7.3,9.6,14.5,19.4,22,28.9c3.8,4.7,7.5,9,6.9,15.6c-0.2,2,0.9,4.5,2.2,6.3c9.4,13,7,26.2,0,38.9
		c-5.5,10-12,19.5-18.3,29.2c-6.2,9.6-12.7,19-19.1,28.6c-0.8,1.3-1.3,2.9-2.2,4.9V1713.8z M2158.6,1841c5.7-8.3,10.7-15.8,16-23.2
		c4.7-6.7,9.7-13.1,14.5-19.8c3.6-5.1,7.1-10.2,10.3-15.6c4-6.7,7.7-13.6,11.5-20.5c3-5.5,4.8-11.8,8.9-16.3
		c6.9-7.6,10.2-16.6,13.7-25.8c0.9-2.4,2-4.8,3.5-6.8c7.2-9.7,15-19,21.8-29c7.8-11.4,14.8-23.2,22-34.9c1.7-2.7,3.1-5.6,5.1-9.2
		c-13-6.4-26.3-8.5-39.3-10.9c-17.4-3.2-35.1-4.9-52.6-7c-3.5-0.4-7.2-0.3-10.6,0.5c-30,7.1-59.8,15-91.2,13.3
		c-4.4-0.2-9.1,1.1-13.2,2.7c-15.7,6.4-31.3,13.3-46.9,20c-1.5,0.6-2.8,1.7-4.2,2.4c-6.6,3.7-13,7.5-19.7,10.9
		c-10.7,5.5-22.2,10-22.2,25c0,1.8-1.4,3.7-1.9,5.6c-2.7,9.6-1.7,18.2,6.9,24.7c3.7,2.8,7.2,5.7,10.8,8.6
		c12.8,10.2,25.7,20.4,38.3,30.8c3.6,3,6.7,5.7,12.1,3.9c4.1-1.3,6.9,1.2,7,5.8c0.1,1.9,0,3.7,0,5.9c5.6,3.6,10.7,8.3,16.7,10.3
		c4.5,1.5,8.5,1.9,11,6.6c0.9,1.8,3.6,2.7,5.5,3.9c8,5,15.3,11.2,24.7,13.8C2128.9,1828.9,2145.5,1832.3,2158.6,1841L2158.6,1841z
		 M2061.8,1624.7c-11.8-29.2-29-53.8-45.1-82.1c-15.1,39.7-22.3,78.8-29.5,119.1c21.3-10.6,39.8-23.1,61.3-29.6
		C2053.3,1630.6,2057.5,1627.2,2061.8,1624.7L2061.8,1624.7z M2218.4,1526.7c-0.8,0.1-1.5,0.2-2.3,0.4c-6.7,25.3-15.5,50-20,76.6
		c14.9,2,28.6,3.6,42.1,5.6c13.8,2,27.5,4.4,43.3,7c-4.1-7.6-6.4-14.8-11.1-19.7c-18.6-19.2-32.5-41.9-47.4-63.8
		C2221.6,1530.7,2219.9,1528.8,2218.4,1526.7L2218.4,1526.7z"/>
	<path style="clip-path:url(#SVGID_00000028290197559514781330000016672397341069052345_);" d="M2191.6,1706.4
		c-0.4,6.1-2.1,9.8-6.8,11.2c-4.3,1.2-8.6-0.2-10-4.1c-2.8-7.5-5.5-15.4-6.4-23.3c-0.7-6.9,5.3-9.6,11.4-6c2.4,1.4,5.2,3.5,6.3,5.9
		C2188.6,1695.9,2190.1,1701.9,2191.6,1706.4L2191.6,1706.4z"/>
	<path style="clip-path:url(#SVGID_00000028290197559514781330000016672397341069052345_);" d="M2105.5,1721.2
		c0.1,7.9-2.6,12-7.3,13.1c-4.8,1.1-8.9-1.3-10.9-7.4c-2-5.8-3.5-11.9-4.7-17.9c-0.8-4.1,0.1-8.1,4.4-9.8c4.1-1.6,6.8,1,8.9,4.1
		C2100.3,1709.3,2105.8,1714.7,2105.5,1721.2L2105.5,1721.2z"/>
	<path style="clip-path:url(#SVGID_00000028290197559514781330000016672397341069052345_);" d="M2154.8,1754.1
		c0.2,9.1-4.4,15.4-11.3,15.6c-7,0.2-14.1-6.1-14-12.3c0.2-7,7.9-14.1,15.2-14C2150.9,1743.4,2154.7,1747.4,2154.8,1754.1
		L2154.8,1754.1z"/>
	<path style="clip-path:url(#SVGID_00000028290197559514781330000016672397341069052345_);" d="M1476.2,443.8
		c-1.9,2.6-3.8,4.4-4.6,6.5c-6.5,18.7-10.7,37.6-3.4,57.1c1,2.6,1.6,5.5,1.8,8.3c0.3,4.5-1.3,8.4-5.3,10.8c-4.1,2.4-8.4,2.3-12-0.6
		c-3.9-3-7.3-6.7-10.6-10.3c-8.6-9.5-16.8-19.2-25.4-28.6c-3.3-3.5-7.3-6.2-12.6-10.5c-0.2,4.5-0.6,6.8-0.4,9
		c2.7,25.7,9.9,50,24.4,71.7c3.5,5.2,6,10.9,9,16.4c-5.5,4.5-8.9,1.2-12.2-1.2c-9.6-7-17.1-16-22.9-26.2
		c-12.5-22.1-18.1-46.1-18.9-71.2c-0.5-17.1,12.2-25.5,27.6-17.6c8.3,4.3,15.3,11.3,22.7,17.2c2.9,2.3,5.5,5.2,8.6,8.2
		c2.8-11.7,5-22.3,7.9-32.7c1.5-5.4,3.6-10.9,6.6-15.6c9.4-14.4,28-15.4,38.6-2c4.7,6,9,13,11.3,20.3c7.7,23.9,14.7,48.1,21.6,72.3
		c2.1,7.3-0.4,12.3-5.8,14.1c-5.3,1.7-10.6-0.8-13.2-7.7c-3.3-9-5.7-18.3-8.4-27.4c-4.3-14.2-8.3-28.6-12.9-42.7
		C1485.9,455.2,1483.5,448.8,1476.2,443.8z"/>
	<path style="clip-path:url(#SVGID_00000028290197559514781330000016672397341069052345_);" d="M1565.1,489.9
		c2.3,5.6,3.5,10.5,6,14.4c5.1,8,16.9,8,22.4,0.2c2.4-3.4,3.9-7.5,5.9-11.2c1.5-2.8,2.8-5.8,4.9-8.1c2.7-3.1,6.4-4.4,10.5-2.6
		c4.1,1.7,5.9,5.1,5.7,9.3c-0.1,2.4-0.6,5-1.5,7.2c-2,4.9-4.2,9.8-6.8,14.4c-7,12.8-17.8,18.3-32.5,17.1
		c-13.8-1.1-23.9-7.6-28.7-20.1c-9.8-25.2-11.8-50.4,6.2-73.3c3.1-3.9,7.9-7.4,12.6-9c9.2-3.1,18.6,2,23.7,11.4
		c10.6,19.7,0.4,43-21.3,48.4C1570.4,488.3,1568.7,488.8,1565.1,489.9L1565.1,489.9z M1565.2,471.6c12.4-4.4,14.9-11.1,8.9-22.1
		C1567.7,455.2,1564.8,462.1,1565.2,471.6z"/>
	<path style="clip-path:url(#SVGID_00000028290197559514781330000016672397341069052345_);" d="M1754.9,418.6
		c1.6-10.2,1.6-17.8,0.3-25.4c-0.3-2.1-1-4.2-1.1-6.3c-0.2-5.1,1.8-9,6.7-10.9c5.1-1.9,9.1,0.2,12,4.3c3.4,4.9,6.4,10.1,9.6,15.3
		c0.9,1.5,1.7,3.1,2.9,5.6c5.4-6.6,4.5-12,3.8-16.9c-1.2-9.1-3-18.2-4.5-27.3c-0.5-3.1-1-6.4-0.8-9.5c0.4-4.7,3.2-7.9,7.9-8.7
		c4.3-0.8,7.6,1.3,9.8,4.8c0.9,1.5,1.8,3.2,2.1,4.8c2.1,14.3,4.9,28.6,5.8,43c0.4,6.7-2.2,13.9-5,20.3
		c-4.5,10.6-11.2,13.1-22.4,10.1c-1.7-0.5-3.3-1.1-5.7-1.9c-1.2,2.6-2.2,5.1-3.4,7.5c-4,8.6-10.5,12.1-19.7,10.5
		c-7.2-1.3-13.2-5.1-18.1-10.4c-11.2-11.8-18.1-26.1-22.7-41.5c-0.5-1.7-0.8-3.5-0.5-5.2c0.8-5.6,6-7.6,10-3.6
		c3.4,3.5,6,7.8,8.9,11.8c5.1,7.2,9.9,14.7,15.1,21.8C1747.9,413.4,1750.7,415.1,1754.9,418.6L1754.9,418.6z"/>
	<path style="clip-path:url(#SVGID_00000028290197559514781330000016672397341069052345_);" d="M1658.8,399.7
		c17.8-0.6,28.5,8,33.8,27.3c2.9,10.5,2.2,21.1-1.2,31.4c-5.3,15.6-19.1,21.3-34,14.2c-10.4-4.9-17.6-13-21.3-23.9
		c-3.8-11.4-3.4-23.1,0.1-34.4C1639.6,403,1646.4,399.1,1658.8,399.7L1658.8,399.7z M1669.9,454c5.3-8.6,5.3-22.9-0.6-29.5
		c-1.8-2-5.5-3.6-8-3.2c-2.6,0.4-6,3-7,5.4C1649.9,437.7,1658.1,451.5,1669.9,454z"/>
	<path style="clip-path:url(#SVGID_00000028290197559514781330000016672397341069052345_);" d="M969.1,1827.7
		c-1.9,2.6-3.8,4.4-4.6,6.5c-6.5,18.7-10.7,37.6-3.4,57.1c1,2.6,1.6,5.5,1.8,8.3c0.3,4.5-1.3,8.4-5.3,10.8c-4.1,2.4-8.4,2.3-12-0.6
		c-3.9-3-7.3-6.7-10.6-10.3c-8.6-9.5-16.8-19.2-25.4-28.6c-3.3-3.5-7.3-6.2-12.6-10.5c-0.2,4.5-0.6,6.8-0.4,9
		c2.7,25.7,9.9,50,24.4,71.7c3.5,5.2,6,10.9,9,16.4c-5.5,4.5-8.9,1.2-12.2-1.2c-9.6-7-17.1-16-22.9-26.2
		c-12.5-22.1-18.1-46.1-18.9-71.2c-0.5-17.1,12.2-25.5,27.6-17.6c8.3,4.3,15.3,11.3,22.7,17.2c2.9,2.3,5.5,5.2,8.6,8.2
		c2.8-11.7,5-22.3,7.9-32.7c1.5-5.4,3.6-10.9,6.6-15.6c9.4-14.4,28-15.4,38.6-2c4.7,6,9,13,11.3,20.3c7.7,23.9,14.7,48.1,21.6,72.3
		c2.1,7.3-0.4,12.3-5.8,14.1c-5.3,1.7-10.6-0.8-13.2-7.7c-3.3-9-5.7-18.3-8.4-27.4c-4.3-14.2-8.3-28.6-12.9-42.7
		C978.8,1839.1,976.4,1832.6,969.1,1827.7L969.1,1827.7z"/>
	<path style="clip-path:url(#SVGID_00000028290197559514781330000016672397341069052345_);" d="M1058,1873.7
		c2.3,5.6,3.5,10.5,6,14.4c5.1,8,16.9,8,22.4,0.2c2.4-3.4,3.9-7.5,5.9-11.2c1.5-2.8,2.8-5.8,4.9-8.1c2.7-3.1,6.4-4.4,10.5-2.6
		c4.1,1.7,5.9,5.1,5.7,9.3c-0.1,2.4-0.6,5-1.5,7.2c-2,4.9-4.2,9.8-6.8,14.4c-7,12.8-17.8,18.3-32.5,17.1
		c-13.8-1.1-23.9-7.6-28.7-20.1c-9.8-25.2-11.8-50.4,6.2-73.3c3.1-3.9,7.9-7.4,12.6-9c9.2-3.1,18.6,2,23.7,11.4
		c10.6,19.7,0.4,43-21.3,48.4C1063.3,1872.1,1061.6,1872.7,1058,1873.7L1058,1873.7z M1058.2,1855.5c12.4-4.4,14.9-11.1,8.9-22.1
		C1060.7,1839.1,1057.8,1846,1058.2,1855.5z"/>
	<path style="clip-path:url(#SVGID_00000028290197559514781330000016672397341069052345_);" d="M1247.8,1802.5
		c1.6-10.2,1.6-17.8,0.3-25.4c-0.3-2.1-1-4.2-1.1-6.3c-0.2-5.1,1.8-9,6.7-10.9c5.1-1.9,9.1,0.2,12,4.3c3.4,4.9,6.4,10.1,9.6,15.3
		c0.9,1.5,1.7,3.1,2.9,5.6c5.4-6.6,4.5-12,3.8-16.9c-1.2-9.1-3-18.2-4.5-27.3c-0.5-3.1-1-6.4-0.8-9.5c0.4-4.7,3.2-7.9,7.9-8.7
		c4.3-0.8,7.6,1.3,9.8,4.8c0.9,1.5,1.8,3.2,2.1,4.8c2.1,14.3,4.9,28.6,5.8,43c0.4,6.7-2.2,13.9-5,20.3
		c-4.5,10.6-11.2,13.1-22.4,10.1c-1.7-0.5-3.3-1.1-5.7-1.9c-1.2,2.6-2.2,5.1-3.4,7.5c-4,8.6-10.5,12.1-19.7,10.5
		c-7.2-1.3-13.2-5.1-18.1-10.4c-11.2-11.8-18.1-26.1-22.7-41.5c-0.5-1.7-0.8-3.5-0.5-5.2c0.8-5.6,6-7.6,10-3.6
		c3.4,3.5,6,7.8,8.9,11.8c5.1,7.2,9.9,14.7,15.1,21.8C1240.8,1797.3,1243.6,1798.9,1247.8,1802.5L1247.8,1802.5z"/>
	<path style="clip-path:url(#SVGID_00000028290197559514781330000016672397341069052345_);" d="M1151.7,1783.6
		c17.8-0.6,28.5,8,33.8,27.3c2.9,10.5,2.2,21.1-1.2,31.4c-5.3,15.6-19.1,21.3-34,14.2c-10.4-4.9-17.6-13-21.3-23.9
		c-3.8-11.4-3.4-23.1,0.1-34.4C1132.6,1786.9,1139.3,1783,1151.7,1783.6L1151.7,1783.6z M1162.8,1837.9c5.3-8.6,5.3-22.9-0.6-29.5
		c-1.8-2-5.5-3.6-8-3.2c-2.6,0.4-6,3-7,5.4C1142.9,1821.6,1151,1835.3,1162.8,1837.9z"/>
	<path style="clip-path:url(#SVGID_00000028290197559514781330000016672397341069052345_);" d="M1896.4,562.4
		c3.9-2.6,7-4.7,10.2-6.8c3.9-2.5,7.8-3.7,11.7-0.1c3.3,3.1,3.3,8-0.9,12.3c-4.3,4.4-9.7,7.8-14.3,12c-2,1.8-4.6,4.7-4.4,6.9
		c2.3,19.8,6.4,39.3,12.1,59.1c2.9-1.2,5-2.8,7-2.7c3,0.2,7,0.6,8.7,2.5c1.7,2,2,6.2,1.2,8.9c-1.1,3.2-3.7,6.2-6.3,8.6
		c-3.5,3.2-3.6,6.4-2.2,10.6c7.9,22.3,16.4,44.3,31.3,63.2c5.1,6.5,5.4,11.4,1.4,14.8c-3.9,3.4-9.8,2.8-14.8-2.7
		c-5-5.5-9.9-11.6-13.3-18.2c-6.5-12.5-12-25.5-17.8-38.3c-1.3-3-2.4-6-4.1-10.3c-3.1,2.4-5.5,4.3-8,6.1c-2.1,1.5-4.2,3.6-6.6,4.1
		c-2.6,0.5-6.4,0.2-7.8-1.4c-1.3-1.5-1.1-5.8,0.2-7.8c3.8-5.7,8.4-10.9,12.9-16.1c2.3-2.7,3.2-5.3,2.3-8.9
		c-4.7-20.1-9.1-40.3-13.6-60.4c-0.1-0.5-0.8-1-1.9-2.2c-3.4,1.9-6.9,4.2-10.6,5.9c-3.8,1.8-7.8,3.5-11.8,4.6
		c-1.6,0.4-4.5-0.2-5.2-1.4c-1-1.6-1.3-4.5-0.5-6.2c1-2.3,3.1-4.2,5.1-5.9c5-4.2,10-8.6,15.4-12.1c5.1-3.3,6.4-7.1,6.1-13.1
		c-1.4-24.9-1.7-49.8,1.9-74.6c0.9-6.5,2.5-12.9,4-19.2c0.7-2.8,1.9-5.6,3.3-8.1c2.1-3.8,5.5-6,9.8-4.2c4.6,1.9,3.2,5.6,2.5,9.2
		c-5.6,28.9-4.7,58.1-4,87.3C1895.4,558.9,1895.9,560.1,1896.4,562.4L1896.4,562.4z"/>
</g>
</svg>
