<svg id="Layer_1" data-name="Layer 1" xmlns="http://www.w3.org/2000/svg" viewBox="0 0 1725.34 907.23"><defs><style>.cls-1{fill:#fff;}</style></defs><path d="M105.86,904.42q.45-20.38-.68-37.38a280.38,280.38,0,0,1-.68-28.78q.45-20.38,0-42.14a365.74,365.74,0,0,1,1.59-42.83,181.73,181.73,0,0,1,8.38-40.1,81.18,81.18,0,0,1,20.85-33.08q13.59-13.59,34.44-20.17a142.61,142.61,0,0,1,43.05-6.57,126.25,126.25,0,0,1,42.14,7q19.94,7,32.18,20.62a62.06,62.06,0,0,1,11.33,19.26,75.89,75.89,0,0,1,4.3,20.4,87.56,87.56,0,0,1-.91,19.94,89,89,0,0,1-4.75,17.9,33.6,33.6,0,0,1-11.33,15,36.69,36.69,0,0,1-17.22,7.7A24.83,24.83,0,0,1,251.78,778q-7.71-4.51-10-17.67a12.52,12.52,0,0,1,0-4.76,13.93,13.93,0,0,1,2-5.44,8.93,8.93,0,0,1,4.76-3.62q3.16-1.12,8.61.22a5.54,5.54,0,0,1,3.17,3.63,37,37,0,0,1,1.36,5.44,15.07,15.07,0,0,0,1.13,4.07c.46.91,1.28.46,2.49-1.35a22.37,22.37,0,0,0,3.86-15.19,35.18,35.18,0,0,0-5.89-16.76A44.44,44.44,0,0,0,248.61,713a41.79,41.79,0,0,0-21.75-5.66q-14.06,0-23.79,4.3a46.41,46.41,0,0,0-16.32,11.78,51.28,51.28,0,0,0-10,17.45,130.08,130.08,0,0,0-5.21,21.3,68.84,68.84,0,0,0-.68,9.06,136.56,136.56,0,0,0,.23,13.83,64.85,64.85,0,0,0,2,12.91c1.05,3.93,2.94,6.05,5.66,6.34a49.18,49.18,0,0,0,21.07,0,64.68,64.68,0,0,0,18.81-7.7,21.51,21.51,0,0,1,15.41-3.17,26,26,0,0,1,14,7,30.06,30.06,0,0,1,8.15,14.73q2.26,9.08-1.81,19-5,11.79-15.63,15.86t-19.72,1.82a57.15,57.15,0,0,1-7-2.5,21.52,21.52,0,0,1-4.53-2.72,42.78,42.78,0,0,1-4.08-3.62,42.78,42.78,0,0,0-5.21-4.31Q191.5,834.2,187,836a13.34,13.34,0,0,0-7,6.79,37.22,37.22,0,0,0-3.39,11.79,87.56,87.56,0,0,0-.91,11.32q0,14.52.91,29t.9,29a146.72,146.72,0,0,0,1.36,19.94,52.64,52.64,0,0,1-.91,19.49,26.83,26.83,0,0,1-14,17.89,49.3,49.3,0,0,1-23.11,5.67,48.17,48.17,0,0,1-22.66-5.44Q107.66,976,105.86,965.6a53.11,53.11,0,0,1-.45-8.61V941.81q0-8.84.23-18.58T105.86,904.42Z" transform="translate(-104.37 -87.77)"/><path d="M356,869.08a160.49,160.49,0,0,0,.45,26.73c1.09,11.57,9.16,24.71,18.78,31.07,20.18,13.37,32.92-6.71,32.43-24.72a11.82,11.82,0,0,0-4.53-9.29q-4.54-3.86-8.84-7.25a28.41,28.41,0,0,1-6.34-6.57q-2-3.16,2-7.71a12.2,12.2,0,0,1,10.87-3.62,30.16,30.16,0,0,1,12.47,5A74.61,74.61,0,0,1,424.66,882a64.13,64.13,0,0,1,7.93,9.29,48.82,48.82,0,0,1,7.93,22.43,65.28,65.28,0,0,1-2.26,24,69.6,69.6,0,0,1-11.33,22.66,62.88,62.88,0,0,1-20.17,17.45A68.54,68.54,0,0,1,376,988a74.54,74.54,0,0,1-30.14-3.85,77.66,77.66,0,0,1-26.05-15.41,83.24,83.24,0,0,1-19-24.47,129,129,0,0,1-10-27.87,176.93,176.93,0,0,1-4.53-31,181.9,181.9,0,0,1,.91-31.5,163.62,163.62,0,0,1,6.34-30.13,155.32,155.32,0,0,1,10.65-26.06,131.57,131.57,0,0,1,16.77-25.37,85.37,85.37,0,0,1,22.66-19,52.4,52.4,0,0,1,28.32-7q20.4.91,35.57,8.61a80.57,80.57,0,0,1,24.93,19A66.18,66.18,0,0,1,446,798.16q3.85,12.92,1.59,23.79-1.37,6.79-9.52,12a88.07,88.07,0,0,1-18.58,8.83,172.94,172.94,0,0,1-21.07,5.9,126.36,126.36,0,0,1-17.45,2.71,48.26,48.26,0,0,1-12.23.23,16,16,0,0,0-7.25.23c-1.82.61-3.1,2.11-3.85,4.53S356.31,863,356,869.08Zm72.05-169.49a54.64,54.64,0,0,1-11.1,10,126.25,126.25,0,0,1-14,8.39q-7.47,3.85-15,7.47A79.74,79.74,0,0,0,375,733.13a28.44,28.44,0,0,1-16.54,5q-9.28,0-13.37-9.51A26,26,0,0,1,344,711.15a44.86,44.86,0,0,1,8.38-15.63q7.71-9.53,18.81-20.85a122.71,122.71,0,0,1,27-20.39q8.61-5,17-1.59a29.54,29.54,0,0,1,13.59,11.11,33.72,33.72,0,0,1,5.67,17.67A25.74,25.74,0,0,1,428.06,699.59Zm-58,136.86a73.56,73.56,0,0,0,15.86-2A52.79,52.79,0,0,0,402,828.07a24.81,24.81,0,0,0,10-10.65q3-6.34-2.49-15c-.9-1.2-3-1.2-6.34,0a75.72,75.72,0,0,0-11.33,5.44,122.17,122.17,0,0,0-12.69,8.38,83.67,83.67,0,0,0-10.42,9.07q-4.08,4.3-4.31,7.47T370.06,836.45Z" transform="translate(-104.37 -87.77)"/><path d="M553.13,887.2q0,9.52,1.36,23.34a241.14,241.14,0,0,1,1.13,27.64,111.52,111.52,0,0,1-3.39,26.06q-3.18,12.24-12.24,19-10,7.25-19.94,6.57a35.46,35.46,0,0,1-18.13-6.34,44.83,44.83,0,0,1-13.36-14.73,38.37,38.37,0,0,1-5.22-19.48q0-27.19.68-53.93t1.59-53.93q.9-24.46,2-48.71A352.93,352.93,0,0,0,486.52,744q-.91-8.14-2-19.94a158.36,158.36,0,0,1-.46-24,124.1,124.1,0,0,1,3.4-23.11q2.73-10.87,9.52-17.22,7.24-7.25,16.09-8.16a34.49,34.49,0,0,1,17,2.49,41.64,41.64,0,0,1,14.5,10.2,40.11,40.11,0,0,1,9.07,15.41,105,105,0,0,1,4.53,24.92q.9,13.59.45,27.87t-1.13,28.32q-.69,14.06-.68,25.83,0,24.46-1.59,49.62T553.13,887.2Z" transform="translate(-104.37 -87.77)"/><path d="M661.43,737.21q-14,.91-25.15-4.54a53,53,0,0,1-18.12-14,44.79,44.79,0,0,1-9.29-18.81,33.64,33.64,0,0,1,.9-19q3.16-8.84,12.69-14.73t26.29-5.89q11.78-.9,25.15,5.44a42.8,42.8,0,0,1,20.16,19.48,29.22,29.22,0,0,1,3.63,16.09,39.44,39.44,0,0,1-4.53,16.54,37.87,37.87,0,0,1-12.24,13.37A35.89,35.89,0,0,1,661.43,737.21ZM680.92,942a140.11,140.11,0,0,1-2,17.89,49,49,0,0,1-5.44,15.64,29,29,0,0,1-10.87,10.88q-7,4.06-17.9,3.17-10.44-.92-17-5.21a32.6,32.6,0,0,1-10.42-10.88A42.76,42.76,0,0,1,612,958.8a76.91,76.91,0,0,1-.91-16.76q1.82-34.89,1.14-69.34t-.68-69.79a96.71,96.71,0,0,1,.9-13.36,45.72,45.72,0,0,1,3.4-12.24,30.69,30.69,0,0,1,7-10,29.52,29.52,0,0,1,12.23-6.57,33.25,33.25,0,0,1,16.77-.23,40.39,40.39,0,0,1,14.73,7A36.42,36.42,0,0,1,677.07,780a34.74,34.74,0,0,1,3.85,16.09q0,35.34.68,72T680.92,942Z" transform="translate(-104.37 -87.77)"/><path d="M984.41,834.64q-.92-8.61-1.36-17.45a71.39,71.39,0,0,0-2.72-16.54q-.45-1.81-4.76,1.13T966.06,809a105,105,0,0,0-9.29,8.61c-2.72,2.88-4.24,4.46-4.53,4.76a106.92,106.92,0,0,0-13.37,33.76,242.72,242.72,0,0,0-4.31,36,173.92,173.92,0,0,0-.68,19.48q.23,9.08-.22,17.9t-1.36,17.68a116.88,116.88,0,0,1-3.63,18.8,40.69,40.69,0,0,1-7.48,15.64,35.8,35.8,0,0,1-12,10,28.82,28.82,0,0,1-14.73,2.94q-7.94-.45-16.09-5.89-10-6.35-13.82-15.63a53.47,53.47,0,0,1-4.08-19.49,143.62,143.62,0,0,1,1.13-21.07q1.36-10.87,1.82-20.85.9-17.67,2.26-37.61t.91-37.61a81.61,81.61,0,0,0-2-17.45q-2-9.29-3.17-18.8a94,94,0,0,1-.46-18.36,29.73,29.73,0,0,1,5.67-15.63,25.59,25.59,0,0,1,14-10.2,39.32,39.32,0,0,1,17.22-1.13,38.4,38.4,0,0,1,16.08,6.57,32.49,32.49,0,0,1,11.11,12.92,27.44,27.44,0,0,1,2.49,8.38c.45,3.17.83,6.2,1.13,9.06a59.23,59.23,0,0,0,1.14,7.25c.45,2,1.13,3,2,3s2.34-1.21,4.31-3.63,4.08-5.21,6.34-8.38,4.38-6.12,6.35-8.84a52.39,52.39,0,0,1,4.3-5.44q13.14-13.12,27.42-17t32.85.68a37.59,37.59,0,0,1,17.9,9.74,61.66,61.66,0,0,1,11.56,16.09,84.35,84.35,0,0,1,6.8,19.26,165,165,0,0,1,3.17,19.71,174.63,174.63,0,0,1,.45,37.62q-1.82,18.12-1.81,38.06,0,8.61.45,20.62a218.53,218.53,0,0,1-.45,24.24,124,124,0,0,1-3.85,23.12,38.77,38.77,0,0,1-9.74,17.67,30.45,30.45,0,0,1-15.19,8.61,37.06,37.06,0,0,1-16.76-.23,40.94,40.94,0,0,1-15.64-7.7,35.74,35.74,0,0,1-10.87-13.82q-.91-2.26-.91-13.82t.68-24.7q.67-13.14,1.59-23.57c.6-6.94,1.05-10.42,1.36-10.42,0-3.92.14-8.61.45-14s.68-11,1.13-16.76.75-11.56.91-17.45S984.71,840.07,984.41,834.64Z" transform="translate(-104.37 -87.77)"/><path d="M827.25,667.79a21.91,21.91,0,0,1,9.06,2.27,13.37,13.37,0,0,1,4.76,4.3,12,12,0,0,1,1.81,5.67,29.91,29.91,0,0,1-.22,6.34,53,53,0,0,1-1.82,9.74c-.9,3.18-1.81,6-2.71,8.61s-2,5.52-3.18,8.84q10.42,3.18,15.41,10.42a26.77,26.77,0,0,1,5,15.41A28.68,28.68,0,0,1,850.59,755q-4.76,7.49-14.28,11.11a38.71,38.71,0,0,1-19.48,2.94,38.21,38.21,0,0,1-17-6.12,34.86,34.86,0,0,1-11.78-13.36,41.58,41.58,0,0,1-4.3-19.26q0-8.16,3.85-19a109.44,109.44,0,0,1,10-20.84,68.78,68.78,0,0,1,13.82-16.54Q819.09,667.34,827.25,667.79Z" transform="translate(-104.37 -87.77)"/><path d="M1074,769.3q-10,.91-13.82-3.63a20.11,20.11,0,0,1-4.76-9.51,24.42,24.42,0,0,1,.68-10.88,51.28,51.28,0,0,1,4.08-10.65q2.47-4.75,6.11-11.55-10.42-2.73-15.4-10a26.68,26.68,0,0,1-5-15.41,29.83,29.83,0,0,1,4.76-15.86,27.77,27.77,0,0,1,14.27-11.33,37.59,37.59,0,0,1,36,3.17,36.73,36.73,0,0,1,12,13.37,39.88,39.88,0,0,1,4.53,19.26q0,5.9-3,16.31a96.14,96.14,0,0,1-8.6,20.62,73.73,73.73,0,0,1-13.83,17.9Q1084,768.85,1074,769.3Z" transform="translate(-104.37 -87.77)"/><path d="M1224.17,739q-.45-10-1.59-23.34a116.62,116.62,0,0,1,.46-25.38q1.57-12,8.15-20.16t22-8.16a39.12,39.12,0,0,1,22.21,7,36.77,36.77,0,0,1,14.5,18.35q.9,2.26,1.13,11.1t1.13,17.9q.45,6.35,1.59,8.38c.75,1.36,1.59,1.9,2.49,1.59a5.83,5.83,0,0,0,2.72-2.49,22.45,22.45,0,0,1,2.72-3.4q5.88-7.25,12.24-15t8.15-10a203.66,203.66,0,0,1,20.39-18.58,67.86,67.86,0,0,1,24.47-12.69,38.87,38.87,0,0,1,25.16,1.13,60.71,60.71,0,0,1,22,14.5,73.77,73.77,0,0,1,15,22.21,56.16,56.16,0,0,1,5,24.69,110,110,0,0,1-5.21,25.15,149.62,149.62,0,0,1-11.1,25.84,121.24,121.24,0,0,1-15.86,22.65,85.3,85.3,0,0,1-18.58,16.09q-13.15,7.71-16.54,12.24T1366,836q2.71,2.71,10,5.21t15.41,6.11q28.54,13.15,42.14,31.73t13.59,43.05a43.11,43.11,0,0,1-5.89,22,71.42,71.42,0,0,1-15,18.13A112.7,112.7,0,0,1,1406.57,976a121.71,121.71,0,0,1-20.17,9.07,74.47,74.47,0,0,1-26.06,5.21,148.52,148.52,0,0,1-27-2,68.2,68.2,0,0,1-17.22-5.89q-8.16-4.08-15.18-7a37.78,37.78,0,0,0-12.92-3.17q-5.89-.23-10,5.67a28.26,28.26,0,0,1-17.45,11.78A35.68,35.68,0,0,1,1240,988a41.58,41.58,0,0,1-17.45-13.14q-7.47-9.28-8.38-22.89,0-26.26,2-53t4.08-53.25q2-26.5,3.4-53.25T1224.17,739ZM1385,894.91q2.71-8.61-3.85-15.18a58.22,58.22,0,0,0-16.77-11.33,104.59,104.59,0,0,0-21.07-7.25q-10.87-2.49-15.86-2.5-13.15-.43-21.3,2t-12.46,7.48a27.76,27.76,0,0,0-5.89,13.14c-2,10.45-9.65,40.84,6.12,42.6q8.14.92,15.86,1.13t15.4.23q8.61,0,17.9-.91a65.14,65.14,0,0,0,17.45-4.08,43.2,43.2,0,0,0,14.5-9.29A41.7,41.7,0,0,0,1385,894.91Zm-76.13-154.53a83.87,83.87,0,0,0-9.74,17.9,84.78,84.78,0,0,0-4.76,17.9q-1.37,9.08-2,18.8c-.45,6.51-1,13.37-1.59,20.62-.3,4.84.3,7.56,1.82,8.16s3.62,0,6.34-1.81a51.76,51.76,0,0,0,9.06-8.16q5-5.44,9.52-11.33t8.38-11.33q3.86-5.43,5.22-7.7,4.07-6.79,10.42-16.09t12.23-19.94a128.58,128.58,0,0,0,9.75-22.43,67.2,67.2,0,0,0,3.39-23.56q0-9.52-8.15-6.12t-18.36,12.23a232.86,232.86,0,0,0-19.48,19Q1311.62,736.75,1308.91,740.38Z" transform="translate(-104.37 -87.77)"/><path d="M1500.59,756.69a32,32,0,0,1,20.85-2,37.75,37.75,0,0,1,18.58,10.2,24.27,24.27,0,0,1,5.89,10.65,75,75,0,0,1,1.81,10.42q.45,4.76.68,7.71t2.95,2q5.43-1.8,9.06-8.61t7.93-14.27A66.12,66.12,0,0,1,1579,759q6.35-6.35,18.13-7.71,13.14-1.35,22.88,3.63a42.49,42.49,0,0,1,15.86,13.82,56.24,56.24,0,0,1,8.61,20.17,67.54,67.54,0,0,1,1.14,22.65,154.88,154.88,0,0,1-4.54,21.76,69.86,69.86,0,0,1-9.28,20.39,40.86,40.86,0,0,1-15.41,13.82q-9.3,4.75-22,1.59A36.93,36.93,0,0,1,1576.27,858a33.77,33.77,0,0,1-9.06-18.8,28.61,28.61,0,0,1,1.36-13.37q2.27-6.57,4.76-12t4.07-9.52c1.06-2.71,1-4.53-.22-5.43q-1.37-.9-4.53,3.39a95.6,95.6,0,0,0-6.35,10q-3.16,5.68-5.89,11.33a53.14,53.14,0,0,0-3.17,7.48,68.7,68.7,0,0,0-5.89,24.47q-.46,11.79-.46,25.83,0,9.53,1.37,23.34t1.58,28.1a143.94,143.94,0,0,1-2,27.18q-2.27,12.93-9.06,20.17a29.46,29.46,0,0,1-17,9.29,37.62,37.62,0,0,1-18.81-1.59,38.24,38.24,0,0,1-15.86-10.64,34.62,34.62,0,0,1-8.61-17.45,265.8,265.8,0,0,1-2.72-49.4q.9-25.37,1.81-49.84a278,278,0,0,0-.9-31.27,267.62,267.62,0,0,1-.91-30.82,77,77,0,0,1,4.76-25.6Q1488.8,761.68,1500.59,756.69Z" transform="translate(-104.37 -87.77)"/><path d="M1769.77,981.46q-18.58,14-37.84,10.65t-35.12-17.45q-15.87-14-26.06-35.34a98.92,98.92,0,0,1-10.19-43.05q0-9.06,1.13-22.89t3.86-29.45a271.3,271.3,0,0,1,7.47-31.5,141.42,141.42,0,0,1,12-28.77,71.47,71.47,0,0,1,17-20.85,36.72,36.72,0,0,1,22.44-8.38,36.08,36.08,0,0,1,15.4,3.17,33.4,33.4,0,0,0,4.08,1.81,4.77,4.77,0,0,0,2.49.23,9.57,9.57,0,0,0,3-1.36l5.44-3.4a20.27,20.27,0,0,1,10-2.27,55.56,55.56,0,0,1,12,1.36,69.31,69.31,0,0,1,11.56,3.63,44.53,44.53,0,0,1,8.61,4.53,156.79,156.79,0,0,1,13.14,12,53.94,53.94,0,0,1,9.29,13.37,76.43,76.43,0,0,1,6.12,19.48,271.41,271.41,0,0,1,3.63,29.91q1.8,27.2-2,49.4a154.37,154.37,0,0,1-12.24,39.88,142.25,142.25,0,0,1-20.16,31.49A159.47,159.47,0,0,1,1769.77,981.46ZM1758,781.16a34.82,34.82,0,0,0-8.16,16.32,177.76,177.76,0,0,1-5.43,19,183.12,183.12,0,0,0-7,27q-2,12-5.21,24.7-.92,4.53-.68,17.9a163.81,163.81,0,0,0,2.49,26.06q2.27,12.69,7.48,19t14.27-3.17q11.79-12.69,15-32.18t5-48.49c0-3-.07-7-.22-12a157.36,157.36,0,0,0-1.36-15.86q-1.14-8.38-2.72-16.55a104.86,104.86,0,0,0-3.63-14q-2-5.89-4.53-8.39C1761.54,778.83,1759.8,779.05,1758,781.16Z" transform="translate(-104.37 -87.77)"/><path d="M974.21,220.48s2.86-6.63,2.28-5.06c-.46,1.25.33-2.59,2-5.71,1.58-2.86.66-1.53,5.45-6.84a85.18,85.18,0,0,1,9.13-8.48c2-1,4.24-2.44,6.36,3.43,0,0,1.81,4.79,3.58,9.94a57.6,57.6,0,0,1,1.8,8.81s-.09,6.31-.6,10.47a3,3,0,0,1-3.43,2.63c-1.15-.16-2.71-.31-4.78-.39-4.4-.49-7.92,1.12-7.17,3.1s7.89,3.55,11.9,5.71a24.13,24.13,0,0,1,7.83,7c4.41,6.28,5.42,7.32,9.29,16.3,2.9,6.74,3.34,11.06,5.71,15.82,2.26,4.53,4.44,4.66,9.94,9.78,3.67,3.41,4.44,5.23,4.57,5.87.28,1.47-1.63,5.73-4.24,10.11-3.54,5.93-6,8.41-8.32,11.74-2.74,4-4.3,6.32-9.13,9.45-5.1,3.32-9.41,4.1-9.13,6.2.33,2.44,2.83,2.63,3.92,7.83,0,0,1.61,8.08,2.28,13.36.35,2.76-.1,5.47.32,9.3a46.21,46.21,0,0,0,1.47,7s2.35-7.22,3.26-10.76a43.54,43.54,0,0,0,1.47-11.58,61.13,61.13,0,0,1,.49-8.8c.81-3.26.81-3.26,2-5.38.13-.24,5.44-2,13-11.58,3.87-4.87,4.08-5.38,8.15-11.74,3.73-5.81,3.31-7.69,4.24-10.76,1.58-5.22,1.7-8.51.65-10.92-1.69-3.93-9.17-6.69-15-16.31-3.7-6.11-2.37-9.51-7.42-17.78-2.51-4.1-3.11-5.89-5.62-9.44-3.14-4.46-5.1-5.09-4.24-7.67,1.63-4.89.41-1.26,1.63-4.89,1.54-4.57.61-11.83-1.3-20.54-1.31-6-3.26-11.09-7.34-21.52-4.58-11.73-7.66-15.33-7.66-15.33-2.38-.88-8.58,4.62-20.87,15.65-3.47,3.12-7,6.39-8.48,11.74a24.09,24.09,0,0,0-.65,7.17A35.22,35.22,0,0,0,974.21,220.48Z" transform="translate(-104.37 -87.77)"/><path d="M1055.4,294.74a10.32,10.32,0,0,1,2.94-5.87c2.72-3.11,5.74-4.92,9.53-6.84,6.13-3.11,9.2-4.66,13.21-5.63,5.77-1.39,5.79-.73,17.61-1.47,3-.18,5.9-.84,6.11-.24.29.81.19.48-7,3-1.94.68-4,1.17-8.88,2.61a38.81,38.81,0,0,0-6.61,1.95c-1.19.56-3.13,1.63-8.8,7.58-5,5.24-5.19,6.21-7.83,7.83-1,.6-6.5,4-9.05,2C1055,298.36,1055.32,295.54,1055.4,294.74Z" transform="translate(-104.37 -87.77)"/><path d="M1046.51,315.12c-2.86.84-3.89,1.87-4.32,2.37s-2.24,2.77-1.46,5.22a5.61,5.61,0,0,0,3.26,3.18c2,.86,3.43.48,6.36.24a43.77,43.77,0,0,1,8.88.08,30.13,30.13,0,0,1,8.4,2.53,31.35,31.35,0,0,1,6.6,4.16,38.3,38.3,0,0,1,7.42,7.9,29.93,29.93,0,0,1,4.48,7.5,38.26,38.26,0,0,0,3.18,7c1.47,2.46,1.94,2.49,2.12,2.45,1.19-.26.9-5.8.82-7.34a44,44,0,0,0-1.8-10.35,41,41,0,0,0-3.83-9,27.86,27.86,0,0,0-3.26-4.64,31,31,0,0,0-5.95-5.14A32.11,32.11,0,0,0,1072,318a31.59,31.59,0,0,0-7.42-2.28,53.54,53.54,0,0,0-9.29-1.15C1049.73,314.28,1047.51,314.84,1046.51,315.12Z" transform="translate(-104.37 -87.77)"/><path d="M972.13,234.83c.5-.65-2.66-2.9-6.85-9.3a66.23,66.23,0,0,1-6.36-12.47,84.69,84.69,0,0,1-3.91-13,111.5,111.5,0,0,1-2.57-16.88c-.37-2.45-.89-5.61-1.59-9.29-.56-3-.82-4-1.47-4.16-1.32-.31-3.16,3.09-5.62,7.83-4.6,8.84-7.11,14.08-9,17.85-2.74,5.33-2.36,3.84-8.56,14.92-3.44,6.13-5.89,10.76-7.83,14.43-4.15,7.84-6.22,11.76-7.82,15.41-1.86,4.22-3.12,7.79-5.63,14.91-3,8.49-4.48,12.73-5.62,17.37a115.27,115.27,0,0,0-2.94,17.85,95.38,95.38,0,0,0-.24,15.65,89.39,89.39,0,0,0,3.67,19.81A94.28,94.28,0,0,0,909,346.59a119,119,0,0,0,16.38,21.77,129.07,129.07,0,0,0,15.66,13.94c5.62,4.36,10.22,7.36,16.5,11.43,6.74,4.37,7.54,4.64,16.82,10.58,6.41,4.11,9.62,6.16,13.94,9.17,9.43,6.56,15.44,11.53,18.13,13.8,1.35,1.13,2.27,1.94,4.12,3.56,7.88,6.9,11.82,10.34,13.94,13,5.48,6.77,7,13.12,7.77,12.84.61-.22,0-3.91-.8-6.85-2.43-8.83-7.86-14.83-17-23.48a271.72,271.72,0,0,0-22-19.08c-6.47-5-7.37-5.33-21.77-15.65-14.62-10.48-22-15.82-27.39-20.54-8.55-7.56-14.74-13.11-20.55-22.5a89.67,89.67,0,0,1-9.53-22,105.36,105.36,0,0,1-4.65-25.68,106.5,106.5,0,0,1,1.22-21,131.42,131.42,0,0,1,5.63-22c1.7-5.27,3.64-10.12,7.52-19.81,5.85-14.63,4.84-10.69,9.11-21.53.86-2.19,2.62-5.69,6.11-12.71,2.25-4.52,3.32-6.5,4.4-6.36,1.57.19,1.61,4.6,3.18,10a48.86,48.86,0,0,0,9.3,16.64C961.92,231.93,971.33,235.86,972.13,234.83Z" transform="translate(-104.37 -87.77)"/><path d="M937.28,305.75c1.25-1.14,2.48-2.17,3.69-3.11a45,45,0,0,1,6.09-3.25A52.37,52.37,0,0,1,958.47,296a79.21,79.21,0,0,1,8.89-1.3,77,77,0,0,1,17.36.49c7.16,1,10.78,1.58,13,4.41s2.85,7.73,1,9.29c-1.14.95-3.46.24-8.07-1.22-11.46-3.65-11.68-3.8-13.21-4.16a42,42,0,0,0-14.67-.74c-4.45.51-7.62,1.57-13.94,3.67-.69.23-1.68.57-10.41,3.81-3.42,1.27-5.12,3-8.18,3C929.14,313.2,934.44,308.33,937.28,305.75Z" transform="translate(-104.37 -87.77)"/><path d="M994.5,319.45c-3.47-.62-10,1.16-11.17,1.48A74.24,74.24,0,0,0,971.58,325c-2.36,1-3.64,1.7-8.14,5.23-5,3.9-7.72,7.57-13.2,14.91-3.15,4.22-6.6,8.83-5.87,9.54s5.43-3,7.58-4.64c6.86-5.39,7-7.25,11.49-10.52a32.53,32.53,0,0,1,14.92-6.36c6.1-.8,8.82.46,13.94-1.22,2.78-.91,5.47-2.32,6.36-5.63.44-1.64.34-4.15-1.22-5.62A5.24,5.24,0,0,0,994.5,319.45Z" transform="translate(-104.37 -87.77)"/><path d="M909.23,350.21c-.53-1-14.16,2.1-21,5.43a93,93,0,0,0-14.67,9.13c-4.83,3.53-8.11,6.49-14.68,12.39-5.88,5.29-7.19,7.49-11.08,11.62a104.25,104.25,0,0,0-13,16.51c-4,6.53-5.43,9-7.47,13.91-2.51,6-5.1,11.86-6.73,16.76a187.37,187.37,0,0,0-5.78,29.25,197.25,197.25,0,0,0-1,28A156.49,156.49,0,0,0,817,519.91a131.7,131.7,0,0,0,9.3,27.71c2.84,5.82,12,21.15,13.36,20.63S837,553,833.09,542c-4.08-11.51-6.26-18-7.8-24.7a152.52,152.52,0,0,1-2.59-24.44c.11-9.59.3-16.34.73-21,.8-8.71,2.73-16,4.4-22.75.77-3.11.82-3.88,6.61-19.81,5.56-15.31,7.6-16.42,9-18.95,1.74-3.05,3.76-6.22,10.84-14.8,4-4.86,6.91-8.81,11.13-13,8.75-8.61,12.52-12,16.95-15.49,2.77-2.17,3.54-2.47,13.37-9.78C902.79,352.06,909.47,350.68,909.23,350.21Z" transform="translate(-104.37 -87.77)"/><path d="M912.82,416.54c.27,0,.91.39,3.42,16.75,2.07,13.46,1.92,15.1,3.18,20.18,1.71,6.87,3.89,11.54,7.34,18.83C932,483.42,934.56,486,940,496c3.75,7,6.74,14.18,12.71,28.61,3.73,9,7.65,18.37,12.23,31.06,3.57,9.89,8.59,19.34,10.88,29.6a32.56,32.56,0,0,0,2.82,7.09c1.6,3.07,3.26,6.18,5.87,6.36a4.62,4.62,0,0,0,3.18-1.23c.53-.51,1.31-1.55,1.46-6.35.13-3.9-.3-5.68.25-5.87.27-.1.74.21,3.67,4.4,2.26,3.24,2.74,4.16,3.91,4.4a3.47,3.47,0,0,0,3.67-1.71c.61-1.46-.81-3-2.69-5.87A66,66,0,0,1,992.55,576c-1.74-3.89-3.45-8.8-2.94-9,.14-.06.51.16,5,7.22,2,3.12,4.26,6.08,6.11,9.29,1.57,2.73,2.44,4.59,4.53,5.26,1.18.38,3,.44,3.66-.49.88-1.16-.31-3.19-1.71-6.36-2.05-4.62-.79-3.17-3.42-9.54-3.61-8.71-5.34-9.9-8.07-16.38-2.16-5.12-3-8.92-4.65-16.39A173.27,173.27,0,0,1,988.15,521c-1.26-10.42-1.88-15.62-1.47-21.28.52-7.18.86-11.82,3.42-17.36,1.77-3.82,3.88-6.53,5.14-12.23a65.7,65.7,0,0,0,1-7.34c.6-5.85.91-8.77.49-11.49-.58-3.7-1.65-5-.74-6.12,0,0,3.1-6.52,6.85.49a12.16,12.16,0,0,1,1.47,3.67c.82,8.9,1.23,13.35.49,16.87-1.3,6.11-2.79,6.19-5.14,13.45a71.32,71.32,0,0,0-2.93,14.92,107,107,0,0,0,.48,28.86c1.06,6.67,2.91,12.6,6.61,24.46,5,16,6,15.12,6.36,20.54.43,6.64,1.42,9.48,3.42,15.16.46,1.31,1.33,3.63,3.42,4.41,1.4.52,3.37.36,4.16-.74,1.28-1.78-1.08-5.29-1.47-5.87-2.1-3.12-4.25-3.15-4.89-5.62-.36-1.43-.15-3.38,1-4.16,1.72-1.19,4.8.84,5.38,1.22a14.07,14.07,0,0,1,5.87,9.3c.27,1.8.06,3,1,3.67,1.1.79,3.31.26,4.4-1,2.24-2.54-.25-8-1.47-10.64a24.1,24.1,0,0,0-6.72-9.42c-3.42-2.78-6.4-3.37-8.68-7.33a15.39,15.39,0,0,1-1.23-2.82c-1.66-4.85-.93-8.9-.3-14.57.73-6.61.09-4.1.92-11.47.74-6.67,1.22-8.32,3.42-21.65,1.44-8.76,2-12.89,3.79-19.44,1.25-4.66,2.52-9.4,3.42-9.29,1.52.18,1.2,14.1.74,22.25-.58,10.23-1.5,13.92-2.69,29.6-1,13.16-.74,15.76.73,18.83.83,1.71,3.73,5.79,9.54,13.94a35.51,35.51,0,0,1,4.16,6.6,29.07,29.07,0,0,1,2.44,12c0,4.22.07,7.59-2.2,10.76a9.54,9.54,0,0,1-4.89,3.92c-3.59,1.08-4.8-1.61-10.52-2-4.3-.27-4.44,1.21-9.29.73-3-.29-4-1-5.87-.24s-1.71,1.59-4.65,4.16c-2.33,2-3.5,3.06-5.13,3.42-3,.67-4-1.41-6.61-.73-2.88.75-3,3.6-5.62,4.64-3,1.19-6.51-.67-8.32-2.2a13.48,13.48,0,0,1-3.42-5.13,19.27,19.27,0,0,1-1.22-3.67c-1.29-5.57-7.19-17.57-13-30.82-4.28-9.8-3.28-8.07-7.83-18.34-4.11-9.28-5-10.72-8.93-19.69-4.69-10.69-4.25-10.46-7.95-18.7s-6.32-14.1-10.51-21.77-6.36-10.59-9.29-17.85a70.89,70.89,0,0,1-3.67-11c-.46-1.92-2-8.64-1.59-20.54C910.25,428.59,911.36,416.55,912.82,416.54Z" transform="translate(-104.37 -87.77)"/><path d="M989.61,108.63a59.58,59.58,0,0,0-12.71-2.28c-10.67-1.13-10.83-.92-18.43-1.64-6.82-.65-10.92-.73-17.61-1.13-7.42-.45-12.49-.47-19.81-.37-10,.13-19.42,1.32-26.16,1.67a193,193,0,0,0-21.2,2.45c-11,1.7-19.08,3.6-21,4.07-9.75,2.33-17.21,4.75-20.79,5.95-2.25.76-7.46,2.55-14,5.22-3.35,1.36-7.08,2.88-11.9,5.22-6,2.9-10.36,5.47-14.35,7.82-2.64,1.56-5.51,3.38-11.25,7-6.74,4.26-10.16,6.43-12.72,8.31-2,1.47-4.65,3.65-10,8-5.07,4.16-7.6,6.24-9.62,8.07-4.44,4-7.6,7.4-10.27,10.27-3,3.24-3,3.38-9.29,10.6-8.16,9.32-9.11,10.07-11.74,13.7-1.47,2-3.15,4.77-6.52,10.27-4.1,6.69-6.77,11-10.11,17.28-3,5.67-5.14,10.11-6.52,13-2.81,6-4.49,9.53-6.36,14.51-.6,1.61-2,6.31-4.89,15.66-2.54,8.32-3.83,12.54-4.57,15.81-.62,2.77-1.13,5.8-2.12,11.74-1.63,9.85-2.45,14.77-2.93,19.73-.55,5.59-.58,9.6-.65,17.61a250,250,0,0,0,.81,28c.9,9.57,2.27,16.92,3.1,21.36.81,4.28,1.66,8.76,3.26,14.67,1.26,4.65,2.43,8.13,4.4,14,1.78,5.32,2.89,8.61,4.41,12.56a191.58,191.58,0,0,0,8.8,19.4c1.54,3,5.6,10.9,11.74,20.71,2.75,4.4,6.38,10.17,11.74,17.28a215.09,215.09,0,0,0,18.75,21.6,228.28,228.28,0,0,0,23,20.22,233.4,233.4,0,0,0,24,16.79,243.24,243.24,0,0,0,36.53,17.94c9.4,3.86,15.3,5.72,17.93,6.52a194.88,194.88,0,0,0,19.24,4.73c2.68.54,12.21,2.42,25.11,3.75,4.41.45,10.64,1.08,18.91,1.3a235.15,235.15,0,0,0,25.92-.81c22.66-1.93,34.24-4.89,34.24-4.89s10.35,10.91,7.57,14.72c-1.23,1.68-1.8,3.15-10.36,4.5-8,1.27-3.72.88-16.43,3-8.5,1.38-15.73,2.56-19.62,2.93-6.61.64-11.6.69-16.39.74-7.26.07-12.71-.2-18.58-.49-6.88-.35-11.73-.59-17.61-1.22a216.73,216.73,0,0,1-29.11-5.38c-5.24-1.25-13.84-3.33-24.94-7.1a214.76,214.76,0,0,1-26.17-10.51c-8.7-4.22-14.7-7.9-23.72-13.45-6.41-3.94-12-7.4-19.2-12.72-2.53-1.87-8.47-6.35-15.65-12.72-2-1.74-9.05-8.08-17.61-17.36a262.46,262.46,0,0,1-17.85-21.52,274.62,274.62,0,0,1-20.3-32,224.47,224.47,0,0,1-15.66-34,243.22,243.22,0,0,1-8.8-32.28c-2.5-11.5-3.75-20.42-4.4-25.68-1.13-9.11-1.4-15.12-1.47-16.63-.07-1.69-.31-7.86,0-16.14,0-1.44.23-5.67,1-13.94.78-8.65,1.42-15.73,2.93-25.19A212.78,212.78,0,0,1,656,278.11c1.8-6.9,3.54-12,5.13-16.63,1.78-5.2,4.08-11.86,7.83-20.3,2.73-6.15,5.05-10.58,7.58-15.4,2.72-5.2,5.38-10.28,9.29-16.63a221.33,221.33,0,0,1,14.55-20.79c1.27-1.62,6.25-8,13.46-15.9,6.4-7,12-12.45,15.65-15.89,6.9-6.48,12.82-11.39,16.63-14.43,4.26-3.42,9.51-7.6,16.87-12.48,7.09-4.69,12.68-7.74,16.88-10a271.9,271.9,0,0,1,28.12-13.21c11.73-4.72,20.93-7.49,23.73-8.32a255.76,255.76,0,0,1,26.9-6.35,249.64,249.64,0,0,1,26.78-3.43c4.5-.31,8.27-.44,10.63-.49,3.53-.09,9.65-.16,18,.25A221.26,221.26,0,0,1,943.8,91c6.76,1.18,17.23,3.06,26.9,7.34,4.23,1.87,8.83,4.33,8.83,4.33,4.14,2.21,7.55,4.3,10.08,5.94" transform="translate(-104.37 -87.77)"/><path d="M1015.7,369.38c-2.34.06-4.32-1.05-8.18-3.27-8.35-4.81-10.07-8.58-16.37-9.83-2-.39-3.4-.67-4.92,0-5.36,2.36-5,13.19-4.91,16.37.2,6.23.49,14.46,4.91,16.38,6,2.59,15.18-8.43,27.84-9.83a21.3,21.3,0,0,1,4.91,0c1.94.25,5,1.14,11.46,4.91,5.84,3.4,6.38,5.38,8.19,4.92,3.18-.83,4-7.65,4.91-14.74a32.91,32.91,0,0,0,0-9.82c-.67-4.07-1.19-7.23-3.28-8.19-.85-.39-2.71-.77-13.1,6.55C1020.52,367.51,1019,369.29,1015.7,369.38Z" transform="translate(-104.37 -87.77)"/><path class="cls-1" d="M1017.34,372.65c-.14-.39,3.11-2.15,6.55-3.27a38.55,38.55,0,0,1,9.82-1.64c1.64-.12,4.88-.28,4.92,0s-2,.56-6.55,1.64c-3.08.73-3,.79-6.55,1.64C1020.14,372.31,1017.45,373,1017.34,372.65Z" transform="translate(-104.37 -87.77)"/><path class="cls-1" d="M1017.43,374.51c.05-.42,3.74-.57,7.32-.06a38.45,38.45,0,0,1,9.55,2.85c1.52.62,4.5,1.9,4.41,2.17s-2-.38-6.61-1.42c-3.08-.69-3.06-.62-6.6-1.41C1020.1,375.44,1017.4,374.83,1017.43,374.51Z" transform="translate(-104.37 -87.77)"/><path class="cls-1" d="M991.17,368.15c.05-.42,3.74-.57,7.32-.06A38.36,38.36,0,0,1,1008,371c1.53.61,4.51,1.89,4.41,2.16s-2-.38-6.6-1.42c-3.09-.69-3.07-.62-6.6-1.41C993.84,369.08,991.13,368.47,991.17,368.15Z" transform="translate(-104.37 -87.77)"/><path class="cls-1" d="M991.12,379.38c-.13-.4,3.17-2.08,6.63-3.12a38.78,38.78,0,0,1,9.86-1.4c1.64-.07,4.88-.16,4.91.12s-2,.51-6.59,1.48c-3.09.66-3,.72-6.58,1.48C993.93,379.11,991.23,379.69,991.12,379.38Z" transform="translate(-104.37 -87.77)"/></svg>