<svg id="Layer_1" data-name="Layer 1" xmlns="http://www.w3.org/2000/svg" viewBox="0 0 840.48 953.06"><defs><style>.cls-1{fill:#fff;}</style></defs><path d="M1107,307.79s5.26-12.18,4.2-9.29c-.84,2.29.61-4.77,3.77-10.5,2.89-5.26,1.2-2.81,10-12.57a156.78,156.78,0,0,1,16.77-15.58c3.6-1.79,7.79-4.49,11.69,6.29,0,0,3.33,8.81,6.59,18.28,1.31,3.81,2.25,9.49,3.29,16.18,0,0-.16,11.61-1.09,19.24a5.54,5.54,0,0,1-6.31,4.83c-2.1-.29-5-.57-8.77-.71-8.09-.89-14.56,2.06-13.19,5.7,1.3,3.42,14.5,6.52,21.87,10.48A44.57,44.57,0,0,1,1170.19,353c8.12,11.55,10,13.46,17.08,30,5.34,12.39,6.13,20.33,10.49,29.06,4.15,8.33,8.16,8.58,18.27,18,6.74,6.26,8.16,9.61,8.39,10.78.53,2.71-3,10.54-7.79,18.58-6.5,10.89-11.05,15.45-15.28,21.57-5,7.29-7.9,11.61-16.78,17.37-9.37,6.1-17.29,7.53-16.77,11.39.6,4.49,5.2,4.83,7.19,14.38,0,0,3,14.85,4.19,24.57.65,5.05-.19,10,.6,17.07a84.83,84.83,0,0,0,2.7,12.88s4.32-13.27,6-19.77a80.18,80.18,0,0,0,2.7-21.27c.11-8.69.46-14.45.89-16.18,1.5-6,1.5-6,3.6-9.88.24-.45,10-3.65,24-21.27,7.1-9,7.49-9.89,15-21.57,6.84-10.68,6.08-14.14,7.79-19.78,2.9-9.6,3.11-15.64,1.19-20.07-3.11-7.21-16.85-12.28-27.56-30-6.81-11.24-4.35-17.48-13.64-32.67-4.62-7.54-5.72-10.83-10.33-17.36-5.76-8.18-9.36-9.35-7.78-14.08,3-9,.75-2.33,3-9,2.83-8.4,1.12-21.74-2.4-37.75-2.4-10.95-6-20.37-13.48-39.54-8.41-21.54-14.08-28.16-14.08-28.16-4.36-1.61-15.75,8.49-38.34,28.76-6.38,5.72-12.92,11.74-15.58,21.57a44.36,44.36,0,0,0-1.2,13.18A65.1,65.1,0,0,0,1107,307.79Z" transform="translate(-506.62 -63.94)"/><path d="M1256.18,444.25c.37-3.68,2-6.95,5.39-10.79,5-5.72,10.56-9,17.52-12.58,11.27-5.7,16.9-8.56,24.27-10.33,10.6-2.56,10.64-1.35,32.36-2.7,5.43-.34,10.84-1.56,11.23-.45.53,1.5.34.88-12.88,5.54-3.58,1.26-7.27,2.15-16.33,4.8-3.43,1-7.86,1.58-12.13,3.59-2.18,1-5.76,3-16.18,13.93-9.17,9.63-9.54,11.4-14.38,14.38-1.79,1.1-12,7.36-16.63,3.6C1255.51,450.89,1256,445.71,1256.18,444.25Z" transform="translate(-506.62 -63.94)"/><path d="M1239.85,481.7c-5.26,1.53-7.15,3.43-7.94,4.34s-4.12,5.08-2.7,9.59c1.18,3.71,4.82,5.32,6,5.84,3.59,1.59,6.31.89,11.69.45a81.56,81.56,0,0,1,16.33.15,55,55,0,0,1,15.43,4.64,58.41,58.41,0,0,1,12.13,7.64,70.86,70.86,0,0,1,13.63,14.53c3.78,5.17,6.22,8.52,8.24,13.78a68.71,68.71,0,0,0,5.84,12.89c2.7,4.5,3.56,4.56,3.89,4.49,2.18-.47,1.65-10.67,1.5-13.48a81.06,81.06,0,0,0-3.29-19,77,77,0,0,0-7-16.47,52.77,52.77,0,0,0-6-8.54,57.6,57.6,0,0,0-10.94-9.44A52.07,52.07,0,0,0,1273,482.75a98,98,0,0,0-17.07-2.1C1245.76,480.14,1241.67,481.17,1239.85,481.7Z" transform="translate(-506.62 -63.94)"/><path d="M1103.16,334.15c.92-1.19-4.88-5.33-12.58-17.08a122.63,122.63,0,0,1-11.68-22.91,155.13,155.13,0,0,1-7.19-23.82,204,204,0,0,1-4.72-31c-.68-4.51-1.63-10.31-2.92-17.08-1-5.41-1.5-7.35-2.7-7.63-2.44-.58-5.81,5.67-10.34,14.38-8.45,16.24-13.06,25.88-16.62,32.8-5,9.79-4.33,7.05-15.73,27.41-6.31,11.27-10.82,19.78-14.38,26.52-7.63,14.41-11.44,21.61-14.38,28.31-3.41,7.76-5.72,14.31-10.34,27.41-5.49,15.59-8.24,23.39-10.33,31.91a212.21,212.21,0,0,0-5.4,32.8,176.39,176.39,0,0,0-.45,28.76,166.82,166.82,0,0,0,6.74,36.4,173.4,173.4,0,0,0,17.08,38.2,219,219,0,0,0,30.11,40,237.09,237.09,0,0,0,28.76,25.62c10.34,8,18.79,13.52,30.33,21,12.38,8,13.85,8.51,30.9,19.43,11.79,7.55,17.68,11.33,25.61,16.85,17.33,12.06,28.37,21.18,33.31,25.35,2.48,2.09,4.18,3.58,7.59,6.56,14.48,12.66,21.72,19,25.61,23.82,10.06,12.44,12.77,24.12,14.27,23.59,1.13-.4,0-7.18-1.46-12.58-4.48-16.23-14.44-27.25-31.35-43.14-12.88-12.12-22.74-21.33-40.44-35.06-11.88-9.21-13.54-9.79-40-28.76-26.87-19.26-40.51-29.06-50.34-37.74-15.71-13.89-27.07-24.09-37.74-41.35-9.89-16-14.4-30.28-17.53-40.44a183.12,183.12,0,0,1-6.29-85.83c2.52-16.23,6.29-27.94,10.34-40.45,3.13-9.68,6.69-18.58,13.81-36.4,10.75-26.88,8.89-19.63,16.74-39.54,1.59-4,4.82-10.47,11.24-23.37,4.13-8.29,6.09-11.93,8.09-11.68,2.88.35,3,8.45,5.84,18.42a89.79,89.79,0,0,0,17.08,30.56C1084.41,328.82,1101.69,336.05,1103.16,334.15Z" transform="translate(-506.62 -63.94)"/><path d="M1039.13,464.47c2.29-2.09,4.56-4,6.77-5.71a81.62,81.62,0,0,1,11.2-6c8-3.48,14.56-4.86,21-6.17a143.08,143.08,0,0,1,16.33-2.37,140.83,140.83,0,0,1,31.91.9c13.14,1.85,19.79,2.89,23.81,8.09,4.22,5.45,5.24,14.2,1.8,17.07-2.1,1.75-6.37.45-14.83-2.24-21-6.7-21.47-7-24.27-7.64a76.48,76.48,0,0,0-27-1.35c-8.18.93-14,2.87-25.61,6.74-1.28.42-3.09,1-19.13,7-6.28,2.33-9.41,5.59-15,5.59C1024.18,478.17,1033.92,469.21,1039.13,464.47Z" transform="translate(-506.62 -63.94)"/><path d="M1144.28,489.64c-6.39-1.14-18.38,2.13-20.54,2.73-13.71,3.81-19.24,6.41-21.59,7.44-4.33,1.91-6.68,3.12-14.94,9.6-9.15,7.17-14.19,13.91-24.27,27.41-5.79,7.75-12.12,16.23-10.78,17.53s10-5.44,13.93-8.54c12.61-9.9,12.91-13.31,21.12-19.32,3.41-2.5,13.46-9.86,27.41-11.69,11.2-1.47,16.21.84,25.61-2.25,5.11-1.67,10-4.26,11.69-10.33.81-3,.62-7.63-2.25-10.34C1148.7,491,1147.33,490.18,1144.28,489.64Z" transform="translate(-506.62 -63.94)"/><path d="M987.6,546.17c-1-1.92-26,3.85-38.5,10a170,170,0,0,0-27,16.78c-8.87,6.49-14.91,11.92-27,22.77C884.37,605.41,882,609.45,874.8,617c-7.64,8.1-16.71,18.75-23.82,30.33-7.36,12-10,16.53-13.72,25.56-4.61,11.08-9.36,21.8-12.36,30.81-1.65,4.93-8.2,30.77-10.62,53.73-1.06,10.11-2.43,23.37-1.87,51.38A286.25,286.25,0,0,0,818.18,858c2.88,14.18,9.67,35.77,17.08,50.93,5.21,10.68,22,38.86,24.56,37.9s-5-28-12.14-48.27c-7.5-21.15-11.51-33-14.32-45.39-1.8-7.93-4.92-32.4-4.77-44.9.21-17.63.56-30,1.35-38.65,1.46-16,5-29.35,8.09-41.79,1.41-5.73,1.51-7.13,12.13-36.4,10.21-28.14,14-30.18,16.63-34.83,3.19-5.6,6.92-11.42,19.92-27.19,7.38-8.94,12.7-16.19,20.45-23.81,16.08-15.82,23-22.06,31.15-28.46,5.09-4,6.5-4.55,24.57-18C975.75,549.57,988,547,987.6,546.17Z" transform="translate(-506.62 -63.94)"/><path d="M994.19,668c.49,0,1.68.72,6.29,30.78,3.79,24.74,3.52,27.75,5.84,37.08,3.14,12.63,7.14,21.21,13.48,34.6,9.68,20.43,14.33,25.16,24.27,43.59,6.89,12.78,12.38,26,23.37,52.58,6.84,16.53,14,33.74,22.47,57.07,6.55,18.16,15.78,35.53,20,54.38a60,60,0,0,0,5.18,13c2.94,5.64,6,11.36,10.79,11.68a8.38,8.38,0,0,0,5.84-2.25c1-.94,2.4-2.85,2.69-11.68.24-7.17-.55-10.44.45-10.79.5-.17,1.37.39,6.74,8.09,4.16,6,5.05,7.64,7.19,8.09,2.56.54,5.8-.89,6.74-3.14,1.13-2.68-1.48-5.51-4.94-10.79-4-6.11-6.09-10.8-9.88-19.32-3.19-7.16-6.33-16.18-5.4-16.63.25-.12.94.29,9.22,13.26,3.66,5.74,7.83,11.17,11.23,17.07,2.89,5,4.48,8.44,8.31,9.67,2.18.69,5.45.81,6.74-.9,1.62-2.14-.56-5.88-3.14-11.69-3.77-8.48-1.46-5.84-6.29-17.52-6.63-16-9.81-18.21-14.83-30.11-4-9.41-5.52-16.4-8.54-30.11-2.77-12.55-3.91-21.84-5.39-34.15-2.3-19.14-3.45-28.7-2.7-39.1,1-13.19,1.58-21.72,6.29-31.91,3.24-7,7.13-12,9.44-22.46a121.6,121.6,0,0,0,1.8-13.49c1.11-10.74,1.67-16.12.89-21.12-1-6.78-3-9.15-1.34-11.23,0,0,5.69-12,12.58.9,1.48,2.76,2.55,5.2,2.7,6.74,1.51,16.36,2.26,24.54.89,31-2.37,11.22-5.11,11.36-9.43,24.71-3.39,10.46-4.34,18.51-5.4,27.41a197.29,197.29,0,0,0,.9,53c1.94,12.25,5.34,23.15,12.14,44.94,9.15,29.34,11,27.78,11.68,37.75.79,12.2,2.62,17.42,6.29,27.86.84,2.39,2.45,6.65,6.29,8.09,2.57,1,6.19.67,7.64-1.35,2.36-3.27-2-9.73-2.69-10.79-3.86-5.74-7.82-5.78-9-10.33-.68-2.63-.28-6.2,1.8-7.64,3.16-2.19,8.81,1.54,9.88,2.25a25.79,25.79,0,0,1,10.79,17.07c.5,3.31.1,5.53,1.8,6.74,2,1.46,6.07.49,8.08-1.79,4.11-4.67-.45-14.65-2.69-19.55-2.13-4.65-5.27-11.53-12.36-17.3-6.28-5.12-11.76-6.19-16-13.49a27.13,27.13,0,0,1-2.25-5.16c-3-8.92-1.72-16.36-.56-26.79,1.35-12.14.17-7.52,1.68-21.07,1.37-12.25,2.26-15.29,6.3-39.77,2.65-16.1,3.74-23.7,7-35.73,2.29-8.56,4.63-17.27,6.29-17.08,2.79.33,2.19,25.91,1.35,40.9-1.06,18.79-2.76,25.57-4.94,54.37-1.84,24.19-1.36,29,1.34,34.61,1.52,3.15,6.86,10.64,17.53,25.61,4.1,5.76,5.78,8,7.64,12.13a53.23,53.23,0,0,1,4.49,22c.07,7.75.13,13.94-4,19.78-1.27,1.78-4.09,5.71-9,7.19-6.59,2-8.82-2.95-19.32-3.6-7.92-.49-8.17,2.22-17.08,1.35-5.48-.53-7.41-1.76-10.78-.45-3.14,1.22-3.15,2.93-8.54,7.64-4.3,3.75-6.44,5.63-9.44,6.29-5.52,1.23-7.31-2.6-12.13-1.35-5.31,1.38-5.45,6.61-10.34,8.54-5.5,2.17-12-1.23-15.28-4s-5-6.5-6.29-9.44a35.83,35.83,0,0,1-2.24-6.74c-2.37-10.23-13.21-32.29-23.82-56.62-7.86-18-6-14.84-14.38-33.71-7.56-17-9.17-19.69-16.4-36.17-8.64-19.65-7.81-19.23-14.61-34.38s-11.62-25.9-19.32-40-11.69-19.47-17.08-32.81a132.15,132.15,0,0,1-6.74-20.22c-.84-3.52-3.61-15.87-2.92-37.75C989.47,690.19,991.5,668.06,994.19,668Z" transform="translate(-506.62 -63.94)"/><path d="M1135.29,102.27c-9-2.4-10.41-2.82-23.37-4.19-19.59-2.08-19.89-1.69-33.85-3-12.53-1.19-20.06-1.34-32.35-2.08-13.64-.81-23-.85-36.4-.67-18.46.24-35.7,2.42-48.09,3.07-15,.79-26.18,2.52-38.94,4.49-20.21,3.13-35,6.63-38.65,7.49-17.92,4.29-31.62,8.72-38.2,10.94-4.13,1.39-13.7,4.68-25.76,9.58-6.15,2.51-13,5.29-21.87,9.59-11,5.33-19,10.05-26.37,14.38-4.84,2.86-10.11,6.2-20.67,12.88-12.38,7.84-18.66,11.83-23.37,15.28-3.68,2.71-8.55,6.7-18.27,14.68-9.32,7.65-14,11.47-17.68,14.83-8.17,7.41-14,13.61-18.87,18.88-5.55,5.95-5.46,6.2-17.08,19.47-15,17.12-16.73,18.51-21.57,25.16-2.7,3.72-5.79,8.77-12,18.88-7.54,12.3-12.45,20.32-18.57,31.76-5.59,10.42-9.45,18.57-12,24-5.16,10.94-8.25,17.5-11.68,26.67-1.11,2.94-3.75,11.58-9,28.76-4.67,15.28-7,23.05-8.39,29.06-1.15,5.08-2.08,10.64-3.89,21.57-3,18.09-4.51,27.14-5.4,36.25-1,10.27-1.06,17.63-1.19,32.35-.17,18.43-.29,32.51,1.49,51.53,1.66,17.58,4.16,31.09,5.7,39.25,1.48,7.87,3,16.09,6,27,2.31,8.53,4.46,14.94,8.09,25.76,3.27,9.77,5.3,15.82,8.09,23.07a354.81,354.81,0,0,0,16.17,35.65c2.84,5.59,10.3,20,21.57,38,5.07,8.1,11.73,18.7,21.57,31.76A393.49,393.49,0,0,0,675,834a420.74,420.74,0,0,0,42.24,37.15,427.91,427.91,0,0,0,44,30.86c27.46,16.68,50.09,26,67.11,33,17.27,7.09,28.12,10.52,33,12a355.1,355.1,0,0,0,35.35,8.68c4.92,1,22.43,4.45,46.14,6.9,8.11.83,19.55,2,34.75,2.39a432.83,432.83,0,0,0,47.63-1.5c41.64-3.54,62.92-9,62.92-9s19,20.06,13.9,27c-2.26,3.09-3.32,5.78-19,8.27-14.75,2.34-6.82,1.62-30.19,5.41-15.61,2.54-28.9,4.71-36,5.4-12.15,1.17-21.32,1.26-30.11,1.35-13.33.13-23.36-.36-34.15-.9-12.63-.63-21.55-1.08-32.36-2.24-21.57-2.33-37.62-6.1-53.47-9.89-9.63-2.3-25.45-6.12-45.84-13a394.26,394.26,0,0,1-48.08-19.33c-16-7.74-27-14.52-43.59-24.71-11.77-7.24-22.07-13.6-35.28-23.37-4.65-3.44-15.56-11.66-28.76-23.37-3.6-3.2-16.62-14.84-32.36-31.9a484.67,484.67,0,0,1-32.8-39.55,503.68,503.68,0,0,1-37.3-58.87c-8.68-16-19.06-35.26-28.76-62.46-8.46-23.73-12.6-42.84-16.18-59.32-4.58-21.14-6.89-37.53-8.09-47.19-2.07-16.74-2.57-27.78-2.69-30.55-.14-3.11-.58-14.46,0-29.66.1-2.65.42-10.41,1.8-25.62,1.43-15.88,2.61-28.9,5.39-46.28a386.12,386.12,0,0,1,8.09-40c3.32-12.68,6.5-22,9.43-30.56,3.27-9.55,7.5-21.8,14.38-37.3,5-11.3,9.29-19.45,13.94-28.31,5-9.55,9.88-18.88,17.07-30.55a408.25,408.25,0,0,1,26.74-38.2c2.32-3,11.48-14.68,24.72-29.21,11.77-12.93,22-22.88,28.76-29.21,12.68-11.9,23.56-20.92,30.55-26.51,7.84-6.27,17.48-14,31-22.92,13-8.63,23.3-14.24,31-18.43a496.74,496.74,0,0,1,51.68-24.26C823,89.55,839.92,84.47,845.07,83A472.53,472.53,0,0,1,894.5,71.26,459.81,459.81,0,0,1,943.71,65c8.26-.57,15.19-.8,19.53-.91,6.5-.16,17.73-.28,33,.46,16.56.8,33.13,1.61,54.83,5.39,12.42,2.17,31.66,5.63,49.43,13.49,7.78,3.44,16.22,7.95,16.22,7.95,7.61,4.06,13.87,7.9,18.53,10.92" transform="translate(-506.62 -63.94)"/><path d="M1183.23,581.39c-4.3.11-7.94-1.93-15-6-15.34-8.83-18.5-15.76-30.08-18-3.69-.72-6.23-1.23-9,0-9.85,4.34-9.21,24.23-9,30.09.37,11.43.9,26.57,9,30.08,11,4.77,27.88-15.48,51.15-18a38.1,38.1,0,0,1,9,0c3.57.45,9.15,2.1,21.06,9,10.73,6.25,11.73,9.89,15,9,5.84-1.51,7.41-14,9-27.08,1-8.18.75-13.46,0-18-1.24-7.47-2.19-13.27-6-15-1.56-.72-5-1.41-24.07,12C1192.08,578,1189.24,581.23,1183.23,581.39Z" transform="translate(-506.62 -63.94)"/><path class="cls-1" d="M1186.24,587.41c-.26-.73,5.72-4,12-6,6.72-2.19,12.42-2.6,18-3,3-.22,9-.52,9,0s-3.68,1-12,3c-5.66,1.34-5.57,1.45-12,3C1191.39,586.78,1186.45,588,1186.24,587.41Z" transform="translate(-506.62 -63.94)"/><path class="cls-1" d="M1186.41,590.81c.09-.76,6.87-1,13.45-.1,7,1,12.31,3.13,17.54,5.24,2.8,1.13,8.27,3.48,8.1,4s-3.76-.7-12.13-2.59c-5.67-1.29-5.64-1.15-12.13-2.6C1191.31,592.52,1186.34,591.41,1186.41,590.81Z" transform="translate(-506.62 -63.94)"/><path class="cls-1" d="M1138.15,579.13c.09-.77,6.87-1,13.46-.11,7,1,12.3,3.13,17.53,5.25,2.8,1.13,8.27,3.47,8.1,4s-3.75-.7-12.13-2.6c-5.67-1.28-5.63-1.14-12.13-2.59C1143.05,580.83,1138.09,579.73,1138.15,579.13Z" transform="translate(-506.62 -63.94)"/><path class="cls-1" d="M1138.07,599.76c-.24-.73,5.81-3.81,12.18-5.72,6.77-2,12.48-2.31,18.11-2.57,3-.15,9-.31,9,.21s-3.71.94-12.11,2.72c-5.69,1.21-5.6,1.32-12.1,2.72C1143.23,599.26,1138.26,600.33,1138.07,599.76Z" transform="translate(-506.62 -63.94)"/></svg>